<svg width="338" height="66" viewBox="0 0 338 66" fill="none" xmlns="http://www.w3.org/2000/svg">
<g clip-path="url(#clip0)">
<path d="M269.305 33.4641C267.738 35.9107 266.173 38.3556 264.607 40.7989C264.135 41.5894 263.617 42.3524 263.059 43.0844C261.408 45.1055 259.169 45.1175 257.547 43.0483C256.571 41.7986 255.788 40.4048 254.925 39.0637C253.674 37.1195 252.427 35.1705 250.782 33.32C250.748 33.9448 250.683 34.5673 250.683 35.1921C250.683 39.3833 250.683 43.5746 250.683 47.7658C250.716 48.4352 250.687 49.1061 250.597 49.7702C250.464 50.5208 250.08 51.2035 249.508 51.7055C248.935 52.2076 248.209 52.499 247.45 52.5315C246.692 52.5934 245.935 52.3849 245.314 51.9427C244.693 51.5004 244.248 50.8529 244.057 50.1139C243.852 49.3053 243.759 48.4724 243.778 47.6385C243.76 39.3393 243.76 31.0409 243.778 22.7433C243.754 21.9914 243.826 21.2394 243.992 20.5059C244.711 17.771 247.694 16.9802 249.659 18.999C250.216 19.6236 250.709 20.3023 251.131 21.0249C253.7 25.048 256.245 29.0855 258.8 33.1085C259.237 33.7909 259.732 34.4374 260.327 35.2714C260.926 34.3966 261.403 33.7381 261.839 33.0556C264.494 28.8908 267.112 24.7068 269.798 20.5587C271.337 18.1723 272.64 17.5138 274.452 18.0521C276.108 18.5328 276.786 19.8161 276.788 22.5438C276.788 31.0097 276.788 39.4755 276.788 47.9413C276.816 48.5279 276.792 49.1157 276.717 49.6981C276.597 50.4507 276.225 51.1399 275.663 51.6516C275.099 52.1634 274.379 52.467 273.62 52.5123C272.022 52.6228 270.646 51.7601 270.186 50.1692C269.961 49.2797 269.86 48.3634 269.884 47.4462C269.855 42.8465 269.872 38.2466 269.872 33.6468L269.299 33.4569" fill="#333333"/>
<path d="M141.627 49.8182C137.649 52.9833 133.479 53.3389 129.189 51.438C124.814 49.4986 122.719 45.7928 122.184 41.1665C121.807 38.3231 122.266 35.4311 123.507 32.8464C127.179 25.2931 136.473 24.5649 140.942 28.3885C141.185 28.5639 141.439 28.7244 141.701 28.8691C142.033 28.3264 142.4 27.8061 142.799 27.3118C144.601 25.3435 147.555 25.9683 148.405 28.5014C148.585 29.0579 148.676 29.6395 148.676 30.2245C148.695 36.2567 148.695 42.2888 148.676 48.321C148.68 48.9056 148.599 49.4877 148.436 50.0489C147.626 52.6924 144.551 53.3822 142.684 51.3418C142.301 50.9237 142.028 50.4046 141.62 49.8086L141.627 49.8182ZM141.815 39.3425C141.815 35.2184 139.305 32.397 135.6 32.3394C131.84 32.2793 129.031 35.2641 129.017 39.3304C129.003 43.4327 131.713 46.2998 135.588 46.259C139.372 46.2277 141.819 43.5145 141.819 39.3425" fill="#333333"/>
<path d="M198.74 28.9481C200.253 26.5304 201.498 25.807 203.167 26.3045C204.901 26.8116 205.59 28.0301 205.594 30.7289C205.608 36.4343 205.608 42.1387 205.594 47.8425C205.608 48.4288 205.586 49.0155 205.53 49.5992C205.359 50.9715 204.623 51.9327 203.296 52.3461C201.889 52.7835 200.64 52.4686 199.665 51.3391C199.295 50.8541 198.952 50.3486 198.639 49.8251C196.18 51.8823 193.398 52.8099 190.252 52.4975C185.006 51.976 181.243 48.8927 179.707 43.8338C178.837 41.0101 178.808 37.9933 179.622 35.1532C182.146 26.0882 192.526 23.6177 198.745 28.9577L198.74 28.9481ZM185.973 39.4358C186.007 43.4877 188.806 46.3452 192.684 46.278C196.415 46.2106 198.951 43.358 198.915 39.2772C198.87 35.2495 196.205 32.3583 192.537 32.3583C188.802 32.3583 185.957 35.4345 185.993 39.4358" fill="#333333"/>
<path d="M302.615 49.8085C298.258 53.1731 293.762 53.459 289.271 50.9933C284.504 48.3786 282.839 43.8533 283.04 38.6814C283.148 36.5902 283.678 34.5424 284.595 32.6613C287.793 26.098 295.921 24.1706 301.889 28.3836C302.15 28.5686 302.416 28.744 302.682 28.9266C303.089 28.3162 303.401 27.6986 303.845 27.2228C304.709 26.3168 305.804 25.925 307.044 26.2807C308.352 26.6556 309.22 27.516 309.44 28.8954C309.516 29.4777 309.546 30.0651 309.529 30.6522C309.529 36.4392 309.529 42.2271 309.529 48.0157C309.529 48.3497 309.529 48.6862 309.514 49.0226C309.478 50.5967 308.82 51.7719 307.293 52.3223C305.81 52.8606 304.434 52.3848 303.339 50.9813C303.074 50.6033 302.827 50.2118 302.603 49.8085H302.615ZM302.821 39.4746C302.883 35.3458 300.153 32.3152 296.403 32.3417C292.755 32.3705 289.971 35.3073 289.899 39.2078C289.825 43.2597 292.566 46.2397 296.389 46.2613C300.173 46.2829 302.764 43.548 302.821 39.4746Z" fill="#333333"/>
<path d="M219.874 28.5202C222.053 26.9629 224.307 26.1625 226.811 26.1602C231.787 26.1602 235.679 29.3276 236.036 34.2735C236.389 39.2843 236.233 44.3359 236.165 49.3683C236.139 51.2909 234.704 52.5069 232.928 52.5382C231.078 52.5671 229.604 51.2549 229.544 49.2338C229.443 45.7971 229.515 42.3556 229.492 38.9141C229.519 37.9937 229.462 37.0727 229.324 36.1625C228.845 33.6847 226.896 32.1467 224.53 32.2764C221.997 32.4133 220.124 34.1991 220.046 36.7994C219.946 40.2384 220.015 43.6799 220.003 47.1212C220.034 47.8752 220.007 48.6304 219.925 49.3803C219.603 51.4327 218.208 52.6223 216.346 52.519C214.484 52.4156 213.257 51.1083 213.102 49.0271C213.07 48.6089 213.087 48.1883 213.087 47.7677C213.087 42.1473 213.087 36.5254 213.087 30.9017C213.049 30.2323 213.08 29.5605 213.18 28.8974C213.289 28.3183 213.551 27.7786 213.936 27.3341C214.323 26.8896 214.82 26.5562 215.377 26.3683C215.935 26.1803 216.531 26.1446 217.107 26.2646C217.682 26.3848 218.215 26.6565 218.652 27.0518C219.086 27.429 219.404 27.9409 219.881 28.5202" fill="#333333"/>
<path d="M166.343 32.4998C163.433 32.4998 161.104 32.5143 158.778 32.4998C158.028 32.5215 157.278 32.4578 156.543 32.31C155.922 32.1863 155.364 31.8481 154.965 31.3541C154.567 30.8601 154.354 30.2416 154.363 29.6063C154.357 28.9729 154.559 28.3549 154.936 27.8467C155.313 27.3386 155.846 26.9683 156.453 26.7921C156.606 26.7335 156.768 26.6978 156.932 26.6864C162.276 26.6864 167.625 26.5782 172.967 26.7248C175.182 26.7873 176.227 28.9646 175.26 30.9738C174.977 31.4859 174.637 31.9647 174.247 32.4013C173.358 33.5116 172.449 34.6075 171.55 35.7082C169.279 38.4991 167.008 41.2901 164.74 44.0811C164.282 44.6458 163.87 45.2491 163.115 46.2656C165.49 46.2656 167.443 46.2656 169.399 46.2656C170.735 46.2656 172.078 46.196 173.405 46.3136C175.057 46.4579 176.016 47.5658 176.042 49.1182C176.061 50.5987 175.275 51.6128 173.734 51.9493C173.08 52.073 172.413 52.1269 171.747 52.1103C167.15 52.1224 162.556 52.1103 157.962 52.1103C157.722 52.1103 157.462 52.1103 157.21 52.1103C155.901 52.0743 154.689 51.7931 154.047 50.4929C153.365 49.1111 153.806 47.9142 154.739 46.7968C157.985 42.8587 161.221 38.9116 164.445 34.956C164.963 34.3239 165.445 33.6678 166.338 32.5094" fill="#333333"/>
<path d="M106.72 34.2371L114.723 43.504C115.761 44.7056 116.835 45.8808 117.838 47.1088C119.118 48.7046 119.08 50.3869 117.822 51.6005C116.497 52.8791 114.579 52.8646 113.143 51.3265C110.864 48.8801 108.714 46.3134 106.514 43.7948C104.535 41.5261 102.539 39.2743 100.588 36.9815C98.702 34.7658 98.6948 33.629 100.617 31.5358C104.296 27.5344 108.013 23.5691 111.724 19.5989C112.109 19.1586 112.544 18.765 113.019 18.4261C113.609 18.0203 114.323 17.8343 115.035 17.9002C115.749 17.9662 116.416 18.2798 116.923 18.7871C117.429 19.2944 117.744 19.9631 117.811 20.678C117.877 21.3927 117.693 22.1085 117.289 22.7015C116.849 23.3116 116.36 23.8854 115.828 24.4174C112.88 27.6065 109.922 30.786 106.72 34.2275" fill="#333333"/>
<path d="M331.074 32.9305C331.074 27.9053 331.182 22.8777 331.029 17.855C330.947 15.1753 332.303 13.3441 334.578 13.3824C336.735 13.4209 337.971 14.9205 337.98 17.754C338.006 27.8892 338.006 38.0246 337.98 48.1599C337.985 48.8274 337.892 49.4921 337.705 50.1329C337.21 51.7383 335.898 52.6203 334.303 52.5241C333.543 52.4912 332.819 52.1992 332.247 51.6966C331.676 51.194 331.294 50.5109 331.163 49.7604C331.072 49.098 331.042 48.4287 331.074 47.7609C331.074 42.8199 331.074 37.878 331.074 32.9353" fill="#333333"/>
<path d="M316.802 32.9688C316.802 28.1127 316.802 23.2572 316.802 18.4027C316.78 17.7331 316.802 17.0628 316.867 16.396C317.106 14.5071 318.417 13.3583 320.235 13.3727C322.055 13.3871 323.313 14.5599 323.545 16.4729C323.598 17.0561 323.615 17.642 323.596 18.2273C323.596 28.0229 323.596 37.8169 323.596 47.6094C323.626 48.362 323.587 49.1158 323.478 49.8612C323.31 50.6138 322.889 51.2856 322.286 51.7641C321.683 52.2426 320.934 52.4987 320.165 52.4898C319.397 52.4807 318.654 52.2071 318.062 51.7146C317.47 51.222 317.065 50.5406 316.914 49.7843C316.814 49.0382 316.778 48.2848 316.806 47.5324C316.797 42.6779 316.797 37.8233 316.806 32.9688" fill="#333333"/>
<path d="M97.7434 35.4521C97.7434 39.5544 97.7434 43.6543 97.7434 47.7566C97.77 48.508 97.7202 49.2601 97.5948 50.0013C97.2809 51.4793 96.0538 52.4406 94.5513 52.5199C92.9791 52.6016 91.5125 51.6355 91.1338 50.1334C90.9839 49.3961 90.9251 48.643 90.9588 47.8912C90.9492 39.4382 90.9492 30.9852 90.9588 22.5321C90.9341 21.8635 90.9734 21.1939 91.0763 20.5327C91.4165 18.8504 92.7946 17.8386 94.5369 17.9179C96.157 17.9925 97.3936 19.0115 97.638 20.648C97.7476 21.6454 97.7853 22.6493 97.7506 23.6521C97.7506 27.5862 97.7506 31.5203 97.7506 35.4521" fill="#333333"/>
<path fill-rule="evenodd" clip-rule="evenodd" d="M71.9993 30.594C71.6195 29.1335 70.9688 27.7865 70.2391 26.4814C68.8492 23.9925 67.4375 21.5121 66.004 19.0402C64.8881 17.1018 63.7598 15.173 62.6191 13.2535C62.0058 12.192 61.2356 11.2298 60.3348 10.3998C58.8352 9.05582 57.1122 8.56601 55.151 9.10361C54.182 9.3938 53.2737 9.85832 52.4706 10.4745C51.4281 11.2331 50.5123 12.1276 49.6054 13.0355C46.7612 15.8897 43.9173 18.746 41.0741 21.6042C39.4151 23.2752 37.7548 24.9447 36.1167 26.6351C35.116 27.6685 34.2345 28.799 33.6299 30.1235C32.7557 32.0365 32.7363 33.9584 33.6209 35.8639C33.9152 36.5097 34.2776 37.1219 34.702 37.6902C35.3329 38.519 36.0147 39.3075 36.7436 40.0512C41.0394 44.3997 45.3489 48.7358 49.6724 53.0595C50.3113 53.7001 50.9546 54.278 51.6382 54.8694C52.5658 55.6728 53.6172 56.385 54.7922 56.7838C56.7429 57.4454 58.515 57.1258 60.1039 55.8071C60.4006 55.5634 60.6816 55.3011 60.9453 55.0217C61.7402 54.1508 62.4314 53.1901 63.0047 52.159C65.1511 48.4635 67.2856 44.7616 69.4081 41.0531C70.0738 39.8869 70.6918 38.6907 71.2651 37.4767C71.9567 36.0769 72.3179 34.5365 72.3209 32.9743C72.3204 32.17 72.2122 31.3694 71.9993 30.594ZM18.7994 33.1326C18.789 30.5745 18.8352 28.4436 18.8381 27.7881C18.85 25.3091 18.9096 22.8377 18.9215 20.3587C18.9215 19.3015 18.9215 18.2681 18.9096 17.2078C18.9021 16.6747 18.8857 16.1223 18.8857 15.5876C18.9069 14.4496 18.796 13.313 18.5552 12.2007C18.3303 11.2465 17.9356 10.3236 17.2477 9.59939C16.2455 8.5451 14.9037 8.3226 13.5814 8.92291C12.8579 9.26818 12.2135 9.75983 11.6887 10.367C10.9276 11.2276 10.2601 12.1673 9.6977 13.1699C7.2555 17.3931 4.82024 21.6196 2.39194 25.8497C1.69847 27.0383 1.10665 28.2837 0.622823 29.5725C-0.187138 31.7075 -0.20774 34.0629 0.564745 36.2118C0.99553 37.4224 1.52549 38.5953 2.1492 39.7182C4.46334 43.7874 6.79832 47.7956 9.12884 51.8573C9.75597 52.9975 10.4663 54.0896 11.2539 55.1247C11.714 55.731 12.3618 56.4299 13.1332 56.8719C14.1592 57.4588 15.2179 57.6305 16.314 57.0974C17.034 56.7301 17.614 56.1363 17.9654 55.407C18.5164 54.3616 18.7026 53.1938 18.8188 51.944C18.8515 51.4004 18.8604 51.0554 18.8768 50.5462C18.9319 48.8483 18.9423 47.1115 18.9349 45.4151C18.923 42.8407 18.8172 37.3602 18.7994 33.1341V33.1326ZM49.1155 57.8306C48.3099 56.8525 47.467 55.9013 46.5839 54.9933C42.315 50.6895 38.0412 46.4012 33.7624 42.1283C32.9954 41.3608 32.1943 40.6231 31.3797 39.9078C30.5478 39.1599 29.5808 38.5784 28.531 38.1949C26.8244 37.5902 25.2176 37.9755 24.0889 39.2612C23.6378 39.7924 23.2953 40.4074 23.0807 41.0711C22.6995 42.1686 22.5566 43.4021 22.5402 44.5535C22.5059 47.0504 22.4925 49.4546 22.5059 51.9514C22.5148 53.7658 22.57 55.5817 22.628 57.3961C22.656 58.4703 22.8059 59.538 23.0747 60.5783C23.6376 62.7048 24.8528 64.2877 26.9048 65.1583C27.5869 65.4373 28.3006 65.6309 29.0299 65.7348C30.2813 65.9168 31.5448 66.0037 32.8093 65.9946C34.4206 65.9946 36.0318 65.9946 37.6431 65.9946C38.952 65.9946 40.2625 65.9946 41.573 65.9946C42.9424 66.0193 44.312 65.9595 45.6741 65.8154C46.7284 65.6899 47.7439 65.4405 48.6658 64.8866C50.1624 63.9905 50.8414 62.4181 50.487 60.6963C50.2706 59.6429 49.7997 58.6588 49.1155 57.8306ZM22.7293 23.4006C22.8782 24.3489 23.1224 25.2703 23.6227 26.0887C24.2273 27.0727 25.0598 27.7716 26.2049 27.9911C27.1594 28.1748 28.111 27.9911 29.0015 27.5939C30.0832 27.0903 31.0757 26.4129 31.9397 25.5884C32.7929 24.7984 33.6253 23.986 34.4459 23.1632C38.7098 18.8824 42.9688 14.6015 47.2228 10.3206C48.0047 9.56177 48.7159 8.73304 49.3478 7.84474C49.838 7.16574 50.2027 6.40402 50.4244 5.5958C50.7908 4.0308 50.484 2.52255 49.1304 1.43243C48.7334 1.12634 48.2971 0.875206 47.8333 0.685766C46.8549 0.260169 45.4655 0.149664 44.5647 0.0884377C43.3837 0.00779843 42.2118 0.0212383 41.0517 0.00779845C39.847 -0.00713474 33.2188 -0.00265479 30.9911 0.0391581C30.0273 0.0569859 29.0686 0.184232 28.1333 0.418462C25.4648 1.0805 23.7825 2.75003 23.0866 5.42706C22.6845 6.97712 22.5922 8.56303 22.5714 10.1534C22.5446 12.1231 22.5074 14.1331 22.5014 16.1028C22.5014 17.3258 22.5208 18.51 22.5193 19.7331C22.5178 20.956 22.5312 22.1851 22.7293 23.4006Z" fill="url(#paint0_linear)"/>
</g>
<defs>
<linearGradient id="paint0_linear" x1="12.5479" y1="9.49336" x2="59.8009" y2="56.6143" gradientUnits="userSpaceOnUse">
<stop stop-color="#FF8519"/>
<stop offset="1" stop-color="#FD238A"/>
</linearGradient>
<clipPath id="clip0">
<rect width="338" height="66" fill="white"/>
</clipPath>
</defs>
</svg>
