<svg width="50" height="50" viewBox="0 0 50 50" fill="none" xmlns="http://www.w3.org/2000/svg">
<g clip-path="url(#clip0)">
<path d="M27.9028 15.4311C27.9028 13.8306 26.6007 12.5285 25.0003 12.5285C23.3997 12.5285 22.0977 13.8307 22.0977 15.4311C22.0977 17.0316 23.3998 18.3337 25.0003 18.3337C26.6008 18.3337 27.9028 17.0315 27.9028 15.4311ZM25.0003 16.8688C24.2074 16.8688 23.5624 16.2239 23.5624 15.431C23.5624 14.6382 24.2073 13.9932 25.0003 13.9932C25.7931 13.9932 26.4381 14.6382 26.4381 15.431C26.4381 16.2239 25.7931 16.8688 25.0003 16.8688Z" fill="url(#paint0_linear)"/>
<path d="M46.53 47.3572C46.1254 47.3572 45.7976 47.6851 45.7976 48.0896V48.535H43.4924V46.3805C43.4924 45.9759 43.1646 45.648 42.76 45.648C42.3554 45.648 42.0276 45.9759 42.0276 46.3805V48.535H34.4496L34.45 41.2831H41.8172C43.8217 41.2831 45.5193 42.7792 45.7661 44.7632C45.8122 45.1339 46.1277 45.4053 46.492 45.4053C46.5222 45.4053 46.5527 45.4033 46.5834 45.3995C46.9848 45.3496 47.2697 44.9837 47.2198 44.5823C46.882 41.8664 44.5595 39.8183 41.8173 39.8183H41.3811C42.32 38.8941 42.9035 37.6101 42.9035 36.1916C42.9035 33.3844 40.6196 31.1005 37.8124 31.1005C35.5304 31.1005 33.5943 32.6098 32.9496 34.6824C31.9569 33.6381 30.5562 32.9851 29.0048 32.9851H28.5685C29.3599 32.2062 29.8974 31.1713 30.0472 30.016C33.3061 28.8886 36.1135 26.6834 37.9902 23.763C38.2088 23.4228 38.1102 22.9695 37.7699 22.7509C37.4297 22.5321 36.9764 22.6309 36.7578 22.9711C35.1444 25.4817 32.7723 27.409 30.012 28.4706C29.7337 26.8957 28.7299 25.5689 27.3585 24.8488C27.3932 24.7739 27.4221 24.6956 27.4445 24.6142L28.0433 22.4372C28.5764 22.2057 29.0795 21.9149 29.5461 21.5689L31.7315 22.1392C32.392 22.3114 33.092 22.019 33.4332 21.4276L34.4102 19.7356C34.7516 19.1442 34.6551 18.3918 34.1754 17.906L32.5885 16.2979C32.6216 16.0078 32.6384 15.7177 32.6384 15.4311C32.6384 15.1444 32.6216 14.8543 32.5884 14.5641L34.1754 12.9561C34.6551 12.4701 34.7517 11.7177 34.4102 11.1265L33.4329 9.43457C33.0915 8.84307 32.3915 8.55029 31.731 8.72305L29.5457 9.29316C29.0792 8.94717 28.5759 8.65654 28.0429 8.425L27.4442 6.24795C27.2631 5.58965 26.6598 5.12988 25.9771 5.12988H24.0233C23.3405 5.12988 22.7372 5.58965 22.5562 6.24795L21.9574 8.425C21.4244 8.65645 20.9212 8.94717 20.4546 9.29316L18.2694 8.72305C17.6088 8.55078 16.9089 8.84307 16.5675 9.43447L15.5905 11.1265C15.2491 11.7179 15.3456 12.4703 15.8253 12.9562L17.4123 14.5642C17.3791 14.8544 17.3623 15.1445 17.3623 15.4312C17.3623 15.7178 17.3791 16.0079 17.4122 16.298L15.8254 17.9061C15.3456 18.392 15.2491 19.1444 15.5905 19.7357L16.5674 21.4276C16.9088 22.019 17.6086 22.3114 18.2693 22.1393L20.4546 21.569C20.9211 21.915 21.4243 22.2058 21.9574 22.4373L22.5562 24.6143C22.5785 24.6956 22.6074 24.7737 22.642 24.8485C21.2701 25.5687 20.2659 26.8958 19.9877 28.4712C14.5955 26.4098 11.034 21.2802 11.034 15.4316C11.0341 7.73027 17.2991 1.46484 24.9998 1.46484C32.7011 1.46484 38.9665 7.73027 38.9665 15.4315C38.9665 17.0198 38.7025 18.5767 38.1818 20.0589C38.0477 20.4405 38.2485 20.8586 38.63 20.9927C39.0118 21.1267 39.4297 20.926 39.5638 20.5444C40.1395 18.9059 40.4314 17.1856 40.4314 15.4315C40.4314 6.92256 33.5087 0 24.9998 0C16.4914 0 9.56925 6.92256 9.56925 15.4315C9.56925 18.7923 10.631 21.9869 12.6398 24.67C14.4816 27.1302 17.0642 29.0142 19.9526 30.0161C20.1024 31.1714 20.64 32.2063 21.4314 32.9852H20.995C19.4438 32.9852 18.043 33.6382 17.0502 34.6825C16.4056 32.6098 14.4695 31.1006 12.1874 31.1006C9.38019 31.1006 7.0963 33.3845 7.0963 36.1917C7.0963 37.61 7.6797 38.8939 8.61847 39.8181H8.18214C5.17999 39.8181 2.73761 42.2605 2.73761 45.2626V49.2676C2.73761 49.6722 3.06544 50 3.47003 50L46.5299 49.9997C46.9345 49.9997 47.2623 49.6719 47.2623 49.2673V48.0896C47.2623 47.6851 46.9345 47.3572 46.53 47.3572V47.3572ZM24.0234 24.2675C23.9979 24.2675 23.9754 24.2503 23.9686 24.2257L23.274 21.7003C23.2118 21.4744 23.0453 21.2917 22.826 21.2092C22.1929 20.9707 21.607 20.6322 21.0849 20.2031C20.9524 20.0942 20.7876 20.0366 20.6198 20.0366C20.5581 20.0366 20.4959 20.0444 20.4349 20.0604L17.8996 20.7219C17.875 20.7284 17.8488 20.7174 17.8361 20.6953L16.8592 19.0033C16.8465 18.9812 16.85 18.9531 16.868 18.9351L18.7087 17.0699C18.8732 16.9033 18.9481 16.6682 18.9102 16.4372C18.8552 16.1011 18.8273 15.7626 18.8273 15.4312C18.8273 15.0997 18.8551 14.7613 18.9102 14.425C18.948 14.194 18.8731 13.9589 18.7087 13.7923L16.868 11.9271C16.85 11.909 16.8464 11.881 16.8592 11.859L17.8362 10.1668C17.8489 10.1448 17.8748 10.1341 17.8995 10.1403L20.4349 10.8018C20.6613 10.8609 20.9034 10.8079 21.0848 10.659C21.607 10.2298 22.1928 9.8915 22.8258 9.65303C23.0451 9.57041 23.2117 9.38789 23.2739 9.16191L23.9685 6.63643C23.9752 6.61182 23.9978 6.59463 24.0233 6.59463H25.9771C26.0026 6.59463 26.025 6.61182 26.0318 6.63643L26.7264 9.16191C26.7886 9.38789 26.9552 9.57051 27.1745 9.65303C27.8075 9.89141 28.3933 10.2298 28.9155 10.659C29.0969 10.808 29.3387 10.861 29.5654 10.8018L32.1009 10.1403C32.1258 10.1338 32.1516 10.1448 32.1642 10.1668L33.1411 11.859C33.1539 11.881 33.1503 11.909 33.1323 11.9271L31.2916 13.7922C31.1272 13.9588 31.0524 14.1939 31.0902 14.4249C31.1451 14.7611 31.1731 15.0996 31.1731 15.4311C31.1731 15.7625 31.1452 16.1009 31.0902 16.4371C31.0523 16.6681 31.1273 16.9032 31.2916 17.0698L33.1323 18.935C33.1502 18.9531 33.1538 18.9813 33.141 19.0032L32.164 20.6953C32.1514 20.7174 32.1248 20.7283 32.1007 20.7218L29.5653 20.0603C29.3388 20.0013 29.0968 20.0541 28.9154 20.203C28.3933 20.6321 27.8074 20.9705 27.1743 21.2091C26.955 21.2917 26.7885 21.4743 26.7263 21.7002L26.0318 24.2256C26.025 24.2502 26.0025 24.2674 25.977 24.2674H24.0234V24.2675ZM21.3735 29.3585C21.3735 27.359 23.0003 25.7322 24.9998 25.7322C26.9993 25.7322 28.6261 27.359 28.6261 29.3585C28.6261 31.3579 26.9993 32.9848 24.9998 32.9848C23.0003 32.9848 21.3735 31.358 21.3735 29.3585ZM30.6795 43.1668H32.9847V48.5346H30.6795V43.1668ZM37.8122 32.5653C39.8117 32.5653 41.4385 34.1921 41.4385 36.1916C41.4385 38.1911 39.8118 39.818 37.8122 39.818C35.8127 39.818 34.1859 38.1912 34.1859 36.1916C34.1859 34.1921 35.8127 32.5653 37.8122 32.5653ZM8.56114 36.1915C8.56114 34.192 10.1878 32.5652 12.1874 32.5652C14.187 32.5652 15.8138 34.192 15.8138 36.1915C15.8138 38.191 14.187 39.8179 12.1874 39.8179C10.1878 39.8179 8.56114 38.1911 8.56114 36.1915ZM4.20245 45.2624C4.20245 43.068 5.98771 41.2827 8.18214 41.2827H15.5497L15.5501 48.5352H7.97218V46.3804C7.97218 45.9758 7.64435 45.6479 7.23976 45.6479C6.83517 45.6479 6.50734 45.9758 6.50734 46.3804V48.5352H4.20245V45.2624ZM29.2147 48.5349H20.785V47.7751C20.785 47.3705 20.4571 47.0427 20.0526 47.0427C19.648 47.0427 19.3201 47.3705 19.3201 47.7751V48.5346H17.015V43.1668H19.3201V44.3571C19.3201 44.7617 19.648 45.0896 20.0526 45.0896C20.4571 45.0896 20.785 44.7617 20.785 44.3571L20.7846 40.0785C20.7846 39.6739 20.4567 39.3461 20.0522 39.3461C19.6476 39.3461 19.3197 39.6739 19.3197 40.0785V41.702H17.0146V38.4294C17.0146 36.2351 18.8002 34.4499 20.995 34.4499H29.0047C31.1994 34.4499 32.9852 36.2351 32.9852 38.4294V41.702H30.68V40.0785C30.68 39.6739 30.3522 39.3461 29.9476 39.3461C29.543 39.3461 29.2151 39.6739 29.2151 40.0785L29.2147 48.5349Z" fill="url(#paint1_linear)"/>
</g>
<defs>
<linearGradient id="paint0_linear" x1="22.0977" y1="15.4311" x2="27.9028" y2="15.4311" gradientUnits="userSpaceOnUse">
<stop stop-color="#E30613"/>
<stop offset="1" stop-color="#F39200"/>
</linearGradient>
<linearGradient id="paint1_linear" x1="2.73761" y1="25" x2="47.2623" y2="25" gradientUnits="userSpaceOnUse">
<stop stop-color="#E30613"/>
<stop offset="1" stop-color="#F39200"/>
</linearGradient>
<clipPath id="clip0">
<rect width="50" height="50" fill="white"/>
</clipPath>
</defs>
</svg>
