<svg width="50" height="50" viewBox="0 0 50 50" fill="none" xmlns="http://www.w3.org/2000/svg">
<g clip-path="url(#clip0)">
<path d="M19.5101 28.2233C19.7164 28.2233 19.9215 28.1366 20.0664 27.9677L23.7508 23.6716C23.8647 23.5388 23.9273 23.3697 23.9273 23.1948V15.1589C23.9273 14.7543 23.5993 14.4265 23.1948 14.4265C22.7903 14.4265 22.4624 14.7543 22.4624 15.1589V22.9237L18.9545 27.014C18.6912 27.3211 18.7267 27.7835 19.0337 28.0468C19.1718 28.1653 19.3413 28.2233 19.5101 28.2233V28.2233Z" fill="url(#paint0_linear)"/>
<path d="M48.2326 35.7915H47.7756C47.6701 35.4878 47.547 35.188 47.4074 34.894L47.7287 34.5717C48.4172 33.8833 48.4172 32.7632 47.7287 32.0747L45.7853 30.1313C45.673 30.019 45.549 29.9253 45.4181 29.8491C45.4982 29.5815 45.5734 29.312 45.6437 29.0405C46.5177 25.6715 46.6193 22.0806 45.9396 18.6559C45.8605 18.2594 45.4748 18.0016 45.0783 18.0807C44.6808 18.1598 44.424 18.5456 44.5021 18.9421C45.2306 22.606 45.0177 26.2935 43.9377 29.7192C43.7004 29.8042 43.4787 29.9419 43.2882 30.1313L42.967 30.4526C42.672 30.3139 42.3732 30.1909 42.0695 30.0844V29.6284C42.0695 28.7866 41.4797 28.0805 40.6935 27.9038C41.1984 26.0219 41.3976 24.0494 41.2707 22.0474C40.964 17.2194 38.7951 12.7996 35.1633 9.60231C31.7288 6.57643 27.4594 5.09157 23.2064 5.09118C23.1691 5.08532 23.1312 5.08142 23.0924 5.08142C23.0514 5.08142 23.0115 5.08561 22.9724 5.09206C18.0257 5.15505 13.1223 7.22683 9.60231 11.2233C9.33473 11.526 9.36403 11.9889 9.66774 12.2565C9.97145 12.5241 10.4334 12.4948 10.7009 12.1911C13.7871 8.68776 18.0297 6.7945 22.36 6.57663V8.32175C22.36 8.72634 22.688 9.05417 23.0924 9.05417C23.4969 9.05417 23.8249 8.72634 23.8249 8.32175V6.56667C27.5269 6.70378 31.2054 8.06735 34.1957 10.701C37.5336 13.6404 39.5276 17.7029 39.8089 22.1403C39.8177 22.2802 39.8245 22.4199 39.8299 22.5594H38.0679C37.6634 22.5594 37.3355 22.8873 37.3355 23.2919C37.3355 23.6965 37.6633 24.0243 38.0679 24.0243H39.8237C39.7611 25.3339 39.5461 26.6194 39.1848 27.8599H37.5559C36.5823 27.8599 35.7913 28.6529 35.7913 29.6285V30.1373C35.5032 30.2437 35.219 30.3648 34.9407 30.5006L34.5715 30.1314C33.8831 29.4429 32.763 29.4429 32.0745 30.1314L30.1311 32.0748C29.4426 32.7633 29.4426 33.8834 30.1311 34.5718L30.552 34.9937C30.4339 35.2545 30.3264 35.5211 30.2317 35.7916H29.6282C28.6526 35.7916 27.8596 36.5826 27.8596 37.5562V39.1695C26.9197 39.4425 25.959 39.6302 24.99 39.7351V38.201C24.99 37.7965 24.6621 37.4686 24.2576 37.4686C23.8531 37.4686 23.5252 37.7965 23.5252 38.201V39.8291C19.5031 39.9115 15.4407 38.5508 12.1909 35.6891C8.71188 32.6249 6.778 28.3322 6.57517 23.9276H8.32155C8.72604 23.9276 9.05397 23.5998 9.05397 23.1952C9.05397 22.7906 8.72604 22.4628 8.32155 22.4628H6.57155C6.678 19.8905 7.37907 17.3222 8.71188 14.9786C8.91208 14.627 8.78903 14.1798 8.43747 13.9805C8.08591 13.7803 7.63864 13.9034 7.43942 14.2549C5.90016 16.9599 5.09567 20.034 5.08454 23.1383C5.08307 23.1572 5.08171 23.176 5.08171 23.1952C5.08171 23.2151 5.08317 23.2347 5.08473 23.2542C5.08737 24.202 5.16306 25.1523 5.31559 26.0955C5.98259 30.2223 8.08024 34.0202 11.2237 36.7886C14.6591 39.8139 18.9297 41.2993 23.1835 41.2993C23.5141 41.2993 23.8446 41.2882 24.1748 41.2701C24.2022 41.2732 24.2299 41.2752 24.2582 41.2752C24.314 41.2752 24.3681 41.2683 24.4204 41.2565C25.5938 41.1767 26.7602 40.9842 27.9003 40.6792C28.0721 41.4731 28.7821 42.0698 29.6288 42.0698H30.2831C30.3778 42.3247 30.4833 42.5757 30.5995 42.8227L30.1317 43.2885C29.9452 43.476 29.8085 43.6938 29.7235 43.9272C28.0702 44.4448 26.3427 44.7671 24.5703 44.8794C24.0996 44.9096 23.6308 44.9243 23.164 44.9243C17.879 44.9243 12.8361 43.0249 8.83425 39.5006C-0.156182 31.5825 -1.03021 17.825 6.88669 8.83386C14.8046 -0.156182 28.5621 -1.03021 37.5532 6.88659C40.2495 9.25964 42.3285 12.283 43.5677 15.6296C43.7084 16.0085 44.1293 16.2028 44.5091 16.0622C44.8881 15.9216 45.0824 15.4997 44.9418 15.1208C43.6185 11.5476 41.3989 8.32009 38.5219 5.78698C33.8725 1.6944 27.9078 -0.344659 21.7243 0.047919C15.5418 0.440497 9.88171 3.21677 5.78708 7.8652C1.6944 12.5145 -0.344659 18.4802 0.0479189 24.6628C0.440497 30.8453 3.21677 36.5053 7.8652 40.6C12.1376 44.3626 17.5203 46.3889 23.1618 46.3889C23.6598 46.3889 24.1608 46.3733 24.6628 46.3411C26.444 46.2278 28.1822 45.9173 29.8511 45.4202C29.9263 45.551 30.0201 45.6741 30.1314 45.7854L32.0748 47.7288C32.7632 48.4173 33.8834 48.4173 34.5718 47.7298L35.0396 47.263C35.2867 47.3792 35.5367 47.4837 35.7916 47.5774V48.2327C35.7916 49.2073 36.5826 50.0003 37.5562 50.0003H40.3051C41.2778 50.0003 42.0698 49.2073 42.0698 48.2327V47.6311C42.3383 47.5364 42.6049 47.429 42.8676 47.3079L43.2885 47.7288C43.977 48.4173 45.0971 48.4173 45.7856 47.7288L47.729 45.7854C48.4174 45.0969 48.4174 43.9768 47.729 43.2883L47.3608 42.9202C47.4965 42.6419 47.6176 42.3587 47.7241 42.0696H48.2329C49.2075 42.0696 50.0005 41.2776 50.0005 40.305V37.556C50.0002 36.5824 49.2072 35.7915 48.2326 35.7915V35.7915ZM48.5353 40.305C48.5353 40.4672 48.3966 40.6049 48.2326 40.6049H47.1974C46.8742 40.6049 46.589 40.8168 46.4963 41.1263C46.3322 41.6693 46.1056 42.1966 45.8234 42.6947C45.6613 42.9818 45.7101 43.3412 45.9425 43.5746L46.6935 44.3246C46.8088 44.4398 46.8088 44.6351 46.6935 44.7504L44.7502 46.6937C44.6349 46.809 44.4396 46.809 44.3244 46.6937L43.5324 45.9017C43.3048 45.6742 42.9562 45.6224 42.672 45.7718C42.1759 46.0345 41.6593 46.2425 41.1379 46.39C40.8224 46.4799 40.6047 46.767 40.6047 47.0951V48.2328C40.6047 48.3968 40.467 48.5355 40.3048 48.5355H37.5559C37.3928 48.5355 37.2561 48.3968 37.2561 48.2328V47.0502C37.2561 46.7279 37.0442 46.4427 36.7346 46.349C36.2249 46.1957 35.7249 45.9867 35.2493 45.7269C35.1389 45.6664 35.0178 45.6371 34.8987 45.6371C34.7092 45.6371 34.5217 45.7103 34.3811 45.8509L33.5364 46.6937C33.4212 46.809 33.2258 46.809 33.1106 46.6937L31.3391 44.9222L31.1673 44.7504C31.052 44.6342 31.052 44.4398 31.1663 44.3246L32.011 43.4838C32.1516 43.3431 32.2249 43.1576 32.2258 42.9691C32.2268 42.848 32.1975 42.725 32.136 42.6127C31.8753 42.1381 31.6653 41.6371 31.511 41.1263C31.4182 40.8168 31.1331 40.6049 30.8098 40.6049H29.6282C29.4632 40.6049 29.3245 40.4672 29.3245 40.305V40.2338V38.6693V37.556C29.3245 37.3929 29.4632 37.2562 29.6282 37.2562H30.7678C31.096 37.2562 31.3841 37.0384 31.4729 36.723C31.6233 36.1937 31.8303 35.6771 32.0882 35.1879C32.2385 34.9037 32.1858 34.555 31.9592 34.3275L31.1673 33.5365C31.052 33.4213 31.052 33.2259 31.1673 33.1107L33.1106 31.1674C33.2258 31.0521 33.4212 31.0521 33.5364 31.1674L34.2864 31.9174C34.5188 32.1498 34.8782 32.1986 35.1643 32.0375C35.6653 31.7543 36.1936 31.5277 36.7356 31.3646C37.0442 31.2709 37.2561 30.9857 37.2561 30.6634V29.6283C37.2561 29.4633 37.3928 29.3246 37.5559 29.3246H38.6819H40.2483H40.3049C40.4671 29.3246 40.6048 29.4633 40.6048 29.6283V30.6215C40.6048 30.9496 40.8235 31.2386 41.1399 31.3265C41.6926 31.4818 42.2366 31.7045 42.7571 31.9896C42.846 32.0384 42.9426 32.0668 43.0393 32.0756C43.2512 32.097 43.468 32.0228 43.6262 31.8646L44.3245 31.1674C44.4397 31.0521 44.634 31.0521 44.7503 31.1674L44.9202 31.3373L46.6936 33.1107C46.8089 33.2259 46.8089 33.4213 46.6936 33.5365L45.9954 34.2338C45.7659 34.4642 45.7151 34.8177 45.8714 35.1039C46.1555 35.6234 46.3782 36.1674 46.5335 36.7211C46.6223 37.0375 46.9104 37.2562 47.2385 37.2562H48.2327C48.3967 37.2562 48.5354 37.3929 48.5354 37.556V40.305H48.5353Z" fill="url(#paint1_linear)"/>
<path d="M38.9315 35.5886C37.0882 35.5886 35.5887 37.0881 35.5887 38.9314C35.5887 40.7731 37.0882 42.2714 38.9315 42.2714C40.7732 42.2714 42.2715 40.7732 42.2715 38.9314C42.2715 37.0882 40.7732 35.5886 38.9315 35.5886ZM38.9315 40.8066C37.896 40.8066 37.0535 39.9654 37.0535 38.9314C37.0535 37.8959 37.896 37.0535 38.9315 37.0535C39.9654 37.0535 40.8067 37.8959 40.8067 38.9314C40.8067 39.9654 39.9654 40.8066 38.9315 40.8066Z" fill="url(#paint2_linear)"/>
</g>
<defs>
<linearGradient id="paint0_linear" x1="18.7781" y1="21.3249" x2="23.9273" y2="21.3249" gradientUnits="userSpaceOnUse">
<stop stop-color="#E30613"/>
<stop offset="1" stop-color="#F39200"/>
</linearGradient>
<linearGradient id="paint1_linear" x1="0.000183105" y1="25.0002" x2="50.0005" y2="25.0002" gradientUnits="userSpaceOnUse">
<stop stop-color="#E30613"/>
<stop offset="1" stop-color="#F39200"/>
</linearGradient>
<linearGradient id="paint2_linear" x1="35.5887" y1="38.93" x2="42.2715" y2="38.93" gradientUnits="userSpaceOnUse">
<stop stop-color="#E30613"/>
<stop offset="1" stop-color="#F39200"/>
</linearGradient>
<clipPath id="clip0">
<rect width="50" height="50" fill="white"/>
</clipPath>
</defs>
</svg>
