<svg width="163" height="39" fill="none" xmlns="http://www.w3.org/2000/svg"><path d="M.04 30.696a.5.5 0 01.264-.656l4.14-1.764a.5.5 0 11.392.92l-3.68 1.568 1.568 3.68a.5.5 0 11-.92.392L.04 30.696zM162 .5l.168.471h-.001l-.005.002-.019.007-.076.027-.301.108-1.181.427c-1.037.375-2.566.932-4.53 1.654a1517.809 1517.809 0 00-16.564 6.209c-13.934 5.31-33.053 12.809-53.797 21.556l-.388-.922c20.756-8.752 39.887-16.255 53.828-21.569a1526.522 1526.522 0 0116.576-6.213 986.295 986.295 0 016.02-2.191l.076-.028a.47.47 0 00.019-.006l.005-.002h.001L162 .5zM85.694 30.96c-20.86 8.798-42.21 8.793-58.324 6.598a138.183 138.183 0 01-19.564-4.117 106.591 106.591 0 01-5.52-1.751 65.935 65.935 0 01-1.938-.712l-.025-.01-.007-.003H.314L.5 30.5l.187-.464h.001l.005.003a2.034 2.034 0 00.115.045c.082.032.204.08.367.14.325.123.809.301 1.44.522a105.44 105.44 0 005.47 1.735 137.194 137.194 0 0019.42 4.086c16.01 2.18 37.162 2.175 57.8-6.528l.39.922z" fill="#828282"/></svg>