<svg width="91" height="69" fill="none" xmlns="http://www.w3.org/2000/svg"><path d="M67.954 30.29a.5.5 0 00-.663-.244l-4.086 1.886a.5.5 0 10.419.908l3.631-1.676 1.677 3.631a.5.5 0 10.908-.419l-1.886-4.085zM3.097 1C2.661.756 2.661.756 2.66.757a.114.114 0 01-.003.005 2.589 2.589 0 00-.037.069c-.024.046-.06.114-.103.202-.088.176-.21.432-.352.761a21.37 21.37 0 00-.971 2.793C.546 6.949.053 10.243.68 13.959c1.263 7.475 7.03 16.467 24.645 23.01l.348-.938C8.29 29.574 2.854 20.817 1.667 13.791c-.598-3.534-.13-6.677.491-8.94.31-1.13.657-2.038.925-2.66a14.252 14.252 0 01.444-.935l.006-.01v-.002L3.098 1zm22.229 35.97c17.582 6.53 28.237 5.06 34.526 1.852 3.139-1.602 5.163-3.623 6.405-5.252a14.72 14.72 0 001.316-2.045 9.883 9.883 0 00.388-.83l.006-.014.001-.004v-.002c.001 0 .001-.001-.468-.174l-.469-.173-.003.007a8.921 8.921 0 01-.34.724c-.248.473-.644 1.14-1.226 1.905-1.165 1.527-3.078 3.443-6.064 4.967-5.96 3.04-16.306 4.57-33.724-1.899l-.348.938z" fill="#828282"/></svg>