<svg width="110" height="206" fill="none" xmlns="http://www.w3.org/2000/svg"><path d="M109.52 205.5a.501.501 0 00.48-.52l-.183-4.497a.5.5 0 00-.999.041l.162 3.997-3.997.162a.5.5 0 00.041.999l4.496-.182zM45.5.5a21.4 21.4 0 00-.036-.499l-.008.001a6.212 6.212 0 00-.127.01l-.386.037a36.07 36.07 0 00-1.45.184 51.6 51.6 0 00-5.147 1.04c-4.255 1.08-9.931 3.05-15.612 6.616C11.348 15.037 0 28.567 0 54h1C1 28.933 12.152 15.713 23.266 8.736c5.57-3.496 11.143-5.432 15.326-6.493 2.09-.53 3.831-.842 5.047-1.02a33.974 33.974 0 011.774-.215A10.043 10.043 0 0145.527 1h.006L45.5.5zM0 54c0 12.774 6.88 28.626 17.106 45.161 10.239 16.556 23.883 33.876 37.516 49.604 13.635 15.73 27.27 29.88 37.493 40.096a770.705 770.705 0 0012.356 12.084 543.47 543.47 0 004.376 4.131l.234.218.06.055.015.014.004.003c.001.001.001.002.34-.366s.339-.368.338-.369l-.004-.003-.015-.014-.058-.054-.233-.216a492.186 492.186 0 01-4.366-4.123 767.575 767.575 0 01-12.34-12.067c-10.213-10.205-23.83-24.337-37.444-40.044-13.617-15.709-27.223-32.983-37.422-49.475C7.745 82.124 1 66.476 1 54H0z" fill="#828282"/></svg>