<svg width="197" height="145" fill="none" xmlns="http://www.w3.org/2000/svg"><path d="M172 144.512a.5.5 0 00.512.488l4.499-.111a.5.5 0 10-.025-1l-3.998.099-.099-3.999a.5.5 0 10-1 .025l.111 4.498zM.5 13.5l.14.48.005-.001.018-.005.072-.021.288-.082c.254-.071.633-.177 1.13-.312.992-.27 2.456-.66 4.334-1.135a366.25 366.25 0 0115.81-3.606c13.273-2.731 31.42-5.758 50.92-6.944 19.505-1.186 40.34-.528 58.999 4.096 18.658 4.624 35.099 13.202 45.882 27.827l.804-.593c-10.967-14.876-27.651-23.547-46.446-28.205C113.662.342 92.716-.313 73.157.876 53.595 2.066 35.4 5.101 22.094 7.84a367.22 367.22 0 00-15.852 3.616c-1.885.476-3.354.867-4.352 1.14a140.757 140.757 0 00-1.523.423l-.004.001c-.002 0-.002 0 .137.481zm177.598 20.297c21.634 29.344 20.136 56.916 13.241 77.167-3.45 10.134-8.254 18.437-12.197 24.207a92.342 92.342 0 01-4.986 6.661 60.94 60.94 0 01-1.484 1.737 33.167 33.167 0 01-.501.551l-.026.027-.006.007-.001.001.362.345c.362.345.363.344.363.344l.002-.002.008-.008a.533.533 0 01.028-.03l.107-.116c.095-.102.233-.254.411-.454.356-.399.87-.992 1.509-1.765a93.813 93.813 0 005.04-6.734c3.979-5.823 8.831-14.208 12.318-24.449 6.98-20.499 8.482-48.426-13.384-78.083l-.804.594z" fill="#828282"/></svg>