<svg width="207" height="58" fill="none" xmlns="http://www.w3.org/2000/svg"><path d="M204.982.869a.5.5 0 00-.614-.351l-4.341 1.184a.501.501 0 00.263.965l3.859-1.053 1.053 3.86a.5.5 0 10.964-.264L204.982.869zM.5 13.5c-.283.412-.283.412-.282.413l.002.002.01.007.04.027.157.107.616.414c.542.362 1.343.892 2.38 1.564a309.042 309.042 0 008.882 5.528C19.878 26.107 30.518 32.1 42.787 37.89c24.511 11.568 55.624 22.375 81.775 19.106l-.124-.992c-25.849 3.231-56.736-7.462-81.225-19.019-12.23-5.772-22.84-11.748-30.393-16.28a308.086 308.086 0 01-8.853-5.51A198.168 198.168 0 01.99 13.228l-.155-.105a10.88 10.88 0 00-.048-.033l-.002-.001L.5 13.5zm124.062 43.496c26.145-3.268 46.24-17.218 59.786-30.324a139.258 139.258 0 0015.368-17.619 112.321 112.321 0 003.9-5.665 71.172 71.172 0 001.233-1.994l.063-.108.016-.028.004-.007.002-.002L204.5 1l-.434-.248-.001.002-.004.006-.014.025a8.357 8.357 0 01-.06.103c-.054.09-.134.227-.242.405-.216.357-.54.883-.971 1.555a111.068 111.068 0 01-3.865 5.615 138.098 138.098 0 01-15.257 17.49c-13.454 13.02-33.359 26.82-59.214 30.051l.124.992z" fill="#828282"/></svg>