<svg width="244" height="88" fill="none" xmlns="http://www.w3.org/2000/svg"><path d="M.351 45.523a.5.5 0 00-.328.626l1.336 4.297a.5.5 0 00.955-.297l-1.188-3.82 3.82-1.188a.5.5 0 00-.298-.955L.351 45.523zM243 .5l-.484-.126v.001l-.001.004-.005.02-.022.079c-.02.071-.05.179-.093.322-.084.285-.215.711-.401 1.268a70.041 70.041 0 01-1.838 4.832c-1.748 4.164-4.625 10.107-9.14 17.207-9.03 14.198-24.61 33.024-50.804 51.484l.576.818c26.306-18.54 41.976-37.463 51.071-51.766 4.548-7.15 7.451-13.144 9.219-17.356a70.734 70.734 0 001.864-4.902c.19-.568.325-1.005.412-1.302.044-.148.076-.261.098-.338l.023-.087.007-.023.001-.006.001-.002L243 .5zm-62.788 75.091c-12.992 9.157-30.671 11.907-49.958 10.832-19.277-1.075-40.093-5.969-59.291-12.025-19.195-6.055-36.755-13.266-49.517-18.964a469.037 469.037 0 01-15.145-7.076 314.718 314.718 0 01-5.204-2.61 111.444 111.444 0 01-.342-.179l-.017-.009-.004-.002L.5 46c-.233.443-.232.443-.231.444a8.267 8.267 0 00.022.012l.07.036a107.402 107.402 0 001.357.697c.949.483 2.346 1.186 4.143 2.067a470.092 470.092 0 0015.177 7.091c12.785 5.709 30.382 12.935 49.624 19.005 19.24 6.069 40.143 10.988 59.537 12.07 19.385 1.08 37.331-1.67 50.589-11.013l-.576-.818z" fill="#828282"/></svg>