<svg width="40" height="40" viewBox="0 0 40 40" fill="none" xmlns="http://www.w3.org/2000/svg">
<path d="M25.9609 10.6416H14.0391C12.1362 10.6416 10.588 12.1898 10.588 14.0927V26.0145C10.588 27.9174 12.1362 29.466 14.0391 29.466H25.9609C27.8638 29.466 29.4124 27.9178 29.4124 26.0145V14.0927C29.4124 12.1898 27.8642 10.6416 25.9609 10.6416ZM20 26.2507C16.5832 26.2507 13.8033 23.4708 13.8033 20.0536C13.8033 16.6368 16.5832 13.8569 20 13.8569C23.4172 13.8569 26.1971 16.6368 26.1971 20.0536C26.1971 23.4703 23.4167 26.2507 20 26.2507ZM26.3963 15.1381C25.5875 15.1381 24.9297 14.4804 24.9297 13.672C24.9297 12.8636 25.5875 12.2058 26.3963 12.2058C27.2047 12.2058 27.8625 12.8636 27.8625 13.672C27.8625 14.4804 27.2047 15.1381 26.3963 15.1381Z" fill="url(#paint0_linear)"/>
<path d="M20 16.4756C18.0276 16.4756 16.4215 18.0808 16.4215 20.0532C16.4215 22.0265 18.0276 23.6322 20 23.6322C21.9733 23.6322 23.5781 22.0265 23.5781 20.0532C23.5781 18.0812 21.9728 16.4756 20 16.4756Z" fill="url(#paint1_linear)"/>
<path d="M20 0C8.95475 0 0 8.95475 0 20C0 31.0453 8.95475 40 20 40C31.0453 40 40 31.0453 40 20C40 8.95475 31.0453 0 20 0ZM32.0306 26.0148C32.0306 29.3621 29.3081 32.0845 25.9609 32.0845H14.0391C10.6923 32.0845 7.96943 29.3621 7.96943 26.0148V14.093C7.96943 10.7462 10.6923 8.02335 14.0391 8.02335H25.9609C29.3081 8.02335 32.0306 10.7462 32.0306 14.093V26.0148Z" fill="url(#paint2_linear)"/>
<defs>
<linearGradient id="paint0_linear" x1="10.588" y1="20.0538" x2="29.4124" y2="20.0538" gradientUnits="userSpaceOnUse">
<stop stop-color="#E30613"/>
<stop offset="1" stop-color="#F39200"/>
</linearGradient>
<linearGradient id="paint1_linear" x1="16.4215" y1="20.0539" x2="23.5781" y2="20.0539" gradientUnits="userSpaceOnUse">
<stop stop-color="#E30613"/>
<stop offset="1" stop-color="#F39200"/>
</linearGradient>
<linearGradient id="paint2_linear" x1="0" y1="20" x2="40" y2="20" gradientUnits="userSpaceOnUse">
<stop stop-color="#E30613"/>
<stop offset="1" stop-color="#F39200"/>
</linearGradient>
</defs>
</svg>
