<svg width="30" height="30" viewBox="0 0 30 30" fill="none" xmlns="http://www.w3.org/2000/svg">
<path d="M15 30C23.2843 30 30 23.2843 30 15C30 6.71573 23.2843 0 15 0C6.71573 0 0 6.71573 0 15C0 23.2843 6.71573 30 15 30Z" fill="#6F3FAA"/>
<path d="M21.5075 8.22908C17.8564 7.34725 14.1988 6.31576 10.4545 7.62627C8.03026 8.53535 8.03026 11.1616 8.13127 13.3839C8.13127 13.9899 7.42422 14.798 7.72721 15.5051C8.33325 17.5253 8.83832 19.5455 10.9595 20.5556C11.2626 20.7576 10.9595 21.1616 11.1616 21.4647C11.0606 21.4647 10.8585 21.5657 10.8585 21.6667C10.8585 22.1509 11.0758 22.8914 10.9315 23.3688L17.3771 29.8118C24.0035 28.7565 29.1825 23.3625 29.9112 16.6328L21.5075 8.22908Z" fill="#6F3FAA"/>
<path d="M22.9351 10.5424L22.9302 10.5226C22.5294 8.90232 20.7225 7.16373 19.0631 6.80203L19.0445 6.79816C16.3605 6.28617 13.6391 6.28617 10.9558 6.79816L10.9365 6.80203C9.2777 7.16373 7.47072 8.90244 7.06941 10.5226L7.06496 10.5424C6.56949 12.8051 6.56949 15.0999 7.06496 17.3626L7.06941 17.3824C7.45367 18.9335 9.126 20.5923 10.7234 21.0485V22.8571C10.7234 23.5118 11.5212 23.8333 11.9748 23.3609L13.8073 21.456C14.2048 21.4782 14.6025 21.4907 15.0001 21.4907C16.3511 21.4907 17.7027 21.3629 19.0444 21.1069L19.0631 21.1031C20.7225 20.7414 22.5294 19.0027 22.9302 17.3825L22.9351 17.3627C23.4305 15.0999 23.4305 12.8053 22.9351 10.5424ZM21.4849 17.0345C21.2173 18.0916 19.8454 19.4058 18.7553 19.6486C17.3282 19.92 15.8898 20.036 14.4529 19.9962C14.4243 19.9954 14.3968 20.0065 14.3769 20.027C14.173 20.2363 13.0389 21.4005 13.0389 21.4005L11.6158 22.8612C11.5118 22.9697 11.3289 22.8958 11.3289 22.7461V19.7498C11.3289 19.7003 11.2936 19.6583 11.245 19.6487C11.2447 19.6486 11.2445 19.6486 11.2442 19.6485C10.1541 19.4057 8.78264 18.0916 8.51457 17.0345C8.06861 14.9892 8.06861 12.9158 8.51457 10.8705C8.78264 9.81346 10.1541 8.49932 11.2442 8.2565C13.7365 7.78248 16.2635 7.78248 18.7554 8.2565C19.846 8.49932 21.2173 9.81346 21.4849 10.8705C21.9314 12.9159 21.9314 14.9893 21.4849 17.0345Z" fill="white"/>
<path d="M17.3713 18.4176C17.2037 18.3667 17.044 18.3325 16.8956 18.2711C15.3586 17.6334 13.9442 16.8107 12.8238 15.5497C12.1867 14.8327 11.688 14.0231 11.2664 13.1663C11.0665 12.76 10.8981 12.3379 10.7263 11.9183C10.5698 11.5358 10.8004 11.1407 11.0432 10.8524C11.2711 10.5819 11.5643 10.3749 11.8819 10.2223C12.1298 10.1032 12.3742 10.1719 12.5553 10.3819C12.9466 10.8362 13.3061 11.3136 13.5971 11.8401C13.7761 12.1639 13.727 12.5598 13.4025 12.7802C13.3237 12.8337 13.2518 12.8967 13.1784 12.9571C13.114 13.0102 13.0534 13.0637 13.0092 13.1355C12.9285 13.2668 12.9246 13.4218 12.9766 13.5646C13.3766 14.6638 14.0508 15.5187 15.1574 15.9792C15.3344 16.0529 15.5122 16.1386 15.7162 16.1149C16.0578 16.075 16.1685 15.7002 16.4079 15.5044C16.6418 15.3131 16.9409 15.3106 17.1929 15.4701C17.445 15.6297 17.6894 15.8009 17.9323 15.9741C18.1708 16.144 18.4081 16.3101 18.628 16.5039C18.8396 16.6901 18.9124 16.9345 18.7933 17.1872C18.5753 17.6501 18.258 18.0352 17.8005 18.281C17.6713 18.3503 17.5169 18.3727 17.3713 18.4176C17.2037 18.3667 17.5169 18.3727 17.3713 18.4176Z" fill="white"/>
<path d="M15.0041 9.69294C17.0144 9.74931 18.6657 11.0834 19.0195 13.0709C19.0798 13.4096 19.1013 13.7558 19.1281 14.0995C19.1394 14.2441 19.0575 14.3814 18.9015 14.3834C18.7404 14.3853 18.6679 14.2504 18.6573 14.106C18.6367 13.8199 18.6223 13.5325 18.5829 13.2489C18.3748 11.7513 17.1807 10.5124 15.69 10.2465C15.4657 10.2065 15.2362 10.196 15.0089 10.1722C14.8653 10.1571 14.6772 10.1484 14.6454 9.96986C14.6188 9.82015 14.7451 9.70097 14.8877 9.69329C14.9263 9.69101 14.9652 9.69282 15.0041 9.69294C17.0146 9.74931 14.9652 9.69282 15.0041 9.69294Z" fill="white"/>
<path d="M18.0593 13.6535C18.0559 13.6786 18.0542 13.7376 18.0395 13.7931C17.9861 13.9949 17.6801 14.0202 17.6097 13.8166C17.5888 13.7562 17.5857 13.6874 17.5855 13.6223C17.5848 13.1966 17.4923 12.7712 17.2776 12.4007C17.0569 12.0199 16.7196 11.6999 16.3241 11.5062C16.085 11.3891 15.8264 11.3163 15.5642 11.273C15.4497 11.254 15.3339 11.2426 15.2188 11.2265C15.0793 11.2071 15.0047 11.1182 15.0114 10.9808C15.0176 10.852 15.1117 10.7592 15.2521 10.7672C15.7134 10.7934 16.1591 10.8932 16.5693 11.1104C17.4033 11.5521 17.8798 12.2493 18.0189 13.1803C18.0252 13.2225 18.0353 13.2642 18.0385 13.3065C18.0463 13.4109 18.0513 13.5155 18.0593 13.6535C18.0559 13.6785 18.0513 13.5155 18.0593 13.6535Z" fill="white"/>
<path d="M16.8089 13.6048C16.6407 13.6078 16.5507 13.5146 16.5333 13.3605C16.5213 13.2531 16.5117 13.1441 16.486 13.0395C16.4355 12.8334 16.326 12.6425 16.1527 12.5162C16.0709 12.4566 15.9781 12.4132 15.881 12.3851C15.7577 12.3494 15.6295 12.3592 15.5065 12.3291C15.3729 12.2964 15.2989 12.1881 15.3199 12.0628C15.3391 11.9486 15.45 11.8596 15.5748 11.8686C16.3542 11.9249 16.9112 12.3278 16.9908 13.2454C16.9964 13.3102 17.003 13.3785 16.9886 13.4406C16.9639 13.5465 16.8854 13.5996 16.8089 13.6048C16.6407 13.6077 16.8854 13.5996 16.8089 13.6048Z" fill="white"/>
<path d="M22.9352 10.5424L22.9303 10.5226C22.7057 9.61436 22.039 8.669 21.2042 7.94971L20.0758 8.94979C20.7468 9.48445 21.3217 10.2251 21.4851 10.8705C21.9316 12.9158 21.9316 14.9892 21.4851 17.0346C21.2175 18.0917 19.8455 19.4058 18.7555 19.6486C17.3284 19.92 15.89 20.036 14.4531 19.9962C14.4245 19.9954 14.397 20.0065 14.3771 20.027C14.1732 20.2363 13.0392 21.4006 13.0392 21.4006L11.616 22.8612C11.512 22.9697 11.3292 22.8959 11.3292 22.7461V19.7499C11.3292 19.7003 11.2938 19.6583 11.2452 19.6487C11.2449 19.6487 11.2447 19.6486 11.2444 19.6486C10.6249 19.5106 9.91476 19.0265 9.36772 18.4403L8.25269 19.4284C8.94907 20.186 9.84726 20.7984 10.7235 21.0486V22.8573C10.7235 23.5119 11.5212 23.8334 11.9749 23.361L13.8074 21.4562C14.2049 21.4784 14.6024 21.4908 15.0001 21.4908C16.3511 21.4908 17.7027 21.363 19.0444 21.1071L19.0631 21.1033C20.7225 20.7416 22.5294 19.003 22.9302 17.3827L22.9351 17.3629C23.4306 15.0999 23.4306 12.8053 22.9352 10.5424Z" fill="white"/>
<path d="M17.3712 18.4176C17.5169 18.3727 17.2036 18.3667 17.3712 18.4176V18.4176Z" fill="white"/>
<path d="M18.6283 16.5038C18.4084 16.3101 18.1709 16.1439 17.9325 15.9739C17.6896 15.8008 17.4453 15.6296 17.1931 15.47C16.9411 15.3105 16.6421 15.313 16.4081 15.5043C16.1687 15.7001 16.0581 16.0748 15.7164 16.1147C15.5125 16.1385 15.3346 16.0527 15.1576 15.9791C14.4768 15.6959 13.9602 15.2627 13.5698 14.7159L12.7401 15.4512C12.7683 15.4839 12.7952 15.5174 12.8238 15.5496C13.9443 16.8106 15.3588 17.6333 16.8956 18.2709C17.0439 18.3325 17.2037 18.3667 17.3713 18.4175C17.2037 18.3666 17.5171 18.3727 17.3713 18.4175C17.5171 18.3727 17.6713 18.3501 17.8006 18.2808C18.2583 18.035 18.5755 17.6499 18.7934 17.187C18.9126 16.9344 18.8398 16.69 18.6283 16.5038Z" fill="white"/>
<path d="M15.0093 9.69322C15.0076 9.69322 15.0059 9.69305 15.0042 9.69305C15.0026 9.69293 15.0047 9.69305 15.0093 9.69322Z" fill="white"/>
<path d="M15.0042 9.69293C15.0058 9.69293 15.0075 9.69311 15.0092 9.69311C15.1208 9.69709 16.9353 9.74707 15.0042 9.69293Z" fill="white"/>
<path d="M17.8879 10.8889L17.5342 11.2024C18.0901 11.7432 18.4734 12.46 18.583 13.2488C18.6223 13.5325 18.6368 13.8198 18.6575 14.1059C18.668 14.2504 18.7404 14.3852 18.9016 14.3834C19.0577 14.3814 19.1395 14.2441 19.1282 14.0995C19.1013 13.7558 19.0799 13.4095 19.0197 13.0709C18.8648 12.2009 18.4613 11.4561 17.8879 10.8889Z" fill="white"/>
<path d="M18.0188 13.18C17.9175 12.5016 17.6361 11.948 17.1687 11.5263L16.8159 11.8389C16.9983 12.0008 17.1561 12.1909 17.2776 12.4006C17.4924 12.7711 17.5849 13.1965 17.5856 13.6222C17.5857 13.6873 17.5888 13.7561 17.6097 13.8166C17.6802 14.0203 17.9862 13.9951 18.0395 13.7931C18.0543 13.7375 18.056 13.6785 18.0593 13.6535C18.056 13.6786 18.0513 13.5156 18.0593 13.6535C18.0513 13.5156 18.0463 13.4109 18.0384 13.3064C18.0353 13.2639 18.0252 13.2222 18.0188 13.18Z" fill="white"/>
<path d="M18.0593 13.6535C18.0514 13.5155 18.056 13.6785 18.0593 13.6535V13.6535Z" fill="white"/>
<path d="M16.8089 13.6048C16.8115 13.6046 16.814 13.6033 16.8165 13.603C16.8094 13.603 16.7985 13.6031 16.7874 13.6036C16.7946 13.6037 16.8012 13.6048 16.8089 13.6048Z" fill="white"/>
<path d="M16.8089 13.6048C16.8014 13.6049 16.7947 13.6038 16.7874 13.6036C16.751 13.6046 16.7134 13.6065 16.8089 13.6048Z" fill="white"/>
<path d="M16.8166 13.603C16.814 13.6033 16.8115 13.6046 16.809 13.6048C16.8286 13.6034 16.8269 13.603 16.8166 13.603Z" fill="white"/>
<path d="M16.4539 12.1597L16.0948 12.4779C16.1147 12.49 16.134 12.5025 16.1529 12.5162C16.3262 12.6424 16.4357 12.8333 16.4862 13.0394C16.5119 13.144 16.5214 13.2529 16.5335 13.3605C16.5501 13.5077 16.6337 13.5983 16.7876 13.6035C16.7987 13.6032 16.8098 13.603 16.8167 13.6029C16.8908 13.5947 16.965 13.5428 16.9888 13.4404C17.0031 13.3785 16.9966 13.31 16.9909 13.2452C16.9462 12.7322 16.7523 12.3803 16.4539 12.1597Z" fill="white"/>
</svg>
