<svg width="30" height="30" viewBox="0 0 30 30" fill="none" xmlns="http://www.w3.org/2000/svg">
<path d="M15 30C23.2843 30 30 23.2843 30 15C30 6.71573 23.2843 0 15 0C6.71573 0 0 6.71573 0 15C0 23.2843 6.71573 30 15 30Z" fill="#75B73B"/>
<path d="M21.1078 8.89606C20.2381 8.67856 18.9591 7.92738 18.1312 7.62627C14.8989 6.61617 10.5555 7.42424 9.34334 11.1616C9.24233 11.2627 9.0403 11.2627 8.93928 11.2627C6.51502 14.0909 8.13122 17.5253 7.92918 20.6566C7.86022 21.7604 7.27979 22.7365 6.53284 23.5621L12.8189 29.8416C13.531 29.9453 14.259 30 14.9999 30C22.4083 30 28.5616 24.629 29.78 17.5687L21.1078 8.89606Z" fill="#75B73B"/>
<path d="M14.5804 6.35431C10.0084 6.57181 6.40045 10.3795 6.41422 14.9565C6.41844 16.3506 6.755 17.6664 7.34879 18.8293L6.43725 23.2539C6.38797 23.4933 6.60383 23.7029 6.84161 23.6466L11.1773 22.6194C12.2912 23.1744 13.5423 23.4947 14.8664 23.515C19.5395 23.5864 23.4358 19.876 23.5817 15.2047C23.7376 10.1974 19.605 6.11496 14.5804 6.35431ZM19.7538 19.6837C18.4841 20.9534 16.7958 21.6527 15.0001 21.6527C13.9487 21.6527 12.9419 21.4168 12.0079 20.9516L11.4043 20.6508L8.7459 21.2805L9.30542 18.5643L9.00805 17.9817C8.52313 17.0321 8.27727 16.0055 8.27727 14.9299C8.27727 13.1341 8.97659 11.446 10.2463 10.1762C11.5046 8.91773 13.2204 8.20723 15.0002 8.20723C16.7957 8.20723 18.4841 8.90654 19.7537 10.1762C21.0234 11.4459 21.7227 13.1342 21.7227 14.9297C21.7228 16.7096 21.0122 18.4253 19.7538 19.6837Z" fill="white"/>
<path d="M19.1669 16.7919L17.5038 16.3144C17.2853 16.2518 17.0497 16.3138 16.8904 16.4761L16.4837 16.8904C16.3122 17.0652 16.0521 17.1213 15.8251 17.0295C15.0383 16.7111 13.3833 15.2396 12.9609 14.5038C12.8388 14.2914 12.859 14.0261 13.0088 13.8322L13.3638 13.3728C13.5029 13.193 13.5322 12.9511 13.4402 12.7431L12.7406 11.1606C12.573 10.7817 12.0887 10.6713 11.7722 10.9389C11.3081 11.3316 10.7574 11.928 10.6905 12.5889C10.5724 13.7542 11.0722 15.2229 12.9617 16.9867C15.1447 19.0244 16.893 19.2934 18.0314 19.0178C18.6771 18.8615 19.193 18.2347 19.5185 17.7213C19.7406 17.3711 19.565 16.9063 19.1669 16.7919Z" fill="white"/>
<path d="M20.8596 8.65475L19.5574 9.9894C19.6237 10.0506 19.6897 10.1122 19.7538 10.1764C21.0235 11.446 21.7228 13.1344 21.7228 14.9299C21.7228 16.7097 21.0121 18.4254 19.7538 19.6839C18.4841 20.9535 16.7958 21.6528 15.0001 21.6528C13.9487 21.6528 12.942 21.4169 12.0079 20.9517L11.4043 20.6509L8.74588 21.2806L8.80084 21.0138L6.4469 23.4262C6.49881 23.5823 6.66399 23.6884 6.84147 23.6464L11.1771 22.6193C12.291 23.1742 13.5422 23.4946 14.8663 23.5148C19.5393 23.5863 23.4358 19.8759 23.5815 15.2045C23.6621 12.6186 22.5987 10.2794 20.8596 8.65475Z" fill="white"/>
<path d="M19.1668 16.7919L17.5037 16.3144C17.2852 16.2518 17.0496 16.3138 16.8903 16.4761L16.4836 16.8904C16.3121 17.0652 16.052 17.1213 15.825 17.0295C15.3705 16.8456 14.6267 16.2768 13.9977 15.6875L12.8416 16.8725C12.8812 16.9105 12.9208 16.9484 12.9617 16.9867C15.1447 19.0244 16.893 19.2934 18.0314 19.0177C18.677 18.8615 19.193 18.2346 19.5184 17.7213C19.7405 17.3711 19.5649 16.9063 19.1668 16.7919Z" fill="white"/>
</svg>
