<svg width="40" height="40" viewBox="0 0 40 40" fill="none" xmlns="http://www.w3.org/2000/svg">
<path d="M20 40C31.0457 40 40 31.0457 40 20C40 8.9543 31.0457 0 20 0C8.9543 0 0 8.9543 0 20C0 31.0457 8.9543 40 20 40Z" fill="#D22215"/>
<path d="M30.067 13.3066C29.4672 13.4897 28.8418 13.647 28.2155 13.8036C23.771 14.7463 17.8451 12.1874 15.2862 16.3625C13.152 19.6823 12.4782 23.8366 10.0505 26.8049L23.0179 39.7723C31.6484 38.4661 38.4689 31.6445 39.7738 23.0137L30.067 13.3066Z" fill="#D22215"/>
<path d="M26.6913 11.9014H13.3087C10.683 11.9014 8.5546 14.0299 8.5546 16.6554V23.3454C8.5546 25.9711 10.6831 28.0995 13.3087 28.0995H26.6913C29.3169 28.0995 31.4454 25.971 31.4454 23.3454V16.6554C31.4454 14.0299 29.3169 11.9014 26.6913 11.9014ZM23.4761 20.3259L17.2167 23.3112C17.0498 23.3908 16.8571 23.2693 16.8571 23.0846V16.9272C16.8571 16.7397 17.0549 16.6182 17.2219 16.703L23.4813 19.875C23.6677 19.9693 23.6644 20.2362 23.4761 20.3259Z" fill="white"/>
<path d="M26.6913 11.9014H19.8653V18.0424L23.4815 19.8748C23.6677 19.9692 23.6644 20.2361 23.4761 20.3258L19.8653 22.048V28.0995H26.6913C29.317 28.0995 31.4454 25.971 31.4454 23.3454V16.6554C31.4454 14.0299 29.3169 11.9014 26.6913 11.9014Z" fill="white"/>
</svg>
