<svg width="50" height="50" viewBox="0 0 50 50" fill="none" xmlns="http://www.w3.org/2000/svg">
<g clip-path="url(#clip0)">
<path d="M46.7096 7.27295H39.557C39.1519 7.27295 38.8235 7.60134 38.8235 8.0064C38.8235 8.41147 39.1519 8.73986 39.557 8.73986H46.7096C47.6896 8.73986 48.4869 9.53717 48.4869 10.5172V36.4141H1.51305V10.5172C1.51305 9.53717 2.31037 8.73986 3.29036 8.73986H10.3452C10.7503 8.73986 11.0787 8.41147 11.0787 8.0064C11.0787 7.60134 10.7503 7.27295 10.3452 7.27295H3.29036C1.50151 7.27295 0.0461426 8.72832 0.0461426 10.5172V38.7759C0.0461426 40.5648 1.50151 42.0201 3.29036 42.0201H15.6053V45.3225L13.6128 48.1011C13.3494 48.4683 13.314 48.9462 13.5205 49.3482C13.7269 49.7502 14.1358 50 14.5878 50H35.3143C35.7662 50 36.1752 49.7502 36.3816 49.3482C36.588 48.9462 36.5526 48.4683 36.2893 48.1011L34.3851 45.4457C34.3711 45.3551 34.3408 45.27 34.2969 45.1935V42.0202H46.7096C48.4985 42.0202 49.9538 40.5649 49.9538 38.776V10.5172C49.9537 8.72832 48.4985 7.27295 46.7096 7.27295ZM46.7096 40.5532H30.3542C29.9491 40.5532 29.6207 40.8816 29.6207 41.2867C29.6207 41.6917 29.9491 42.0201 30.3542 42.0201H32.8299V44.8249H31.5362C31.1311 44.8249 30.8027 45.1532 30.8027 45.5583C30.8027 45.9634 31.1311 46.2918 31.5362 46.2918H33.1868L34.7939 48.533H15.108L16.7151 46.2918H18.4635C18.8685 46.2918 19.1969 45.9634 19.1969 45.5583C19.1969 45.1532 18.8685 44.8249 18.4635 44.8249H17.072V42.0201H27.2283C27.6333 42.0201 27.9617 41.6917 27.9617 41.2867C27.9617 40.8816 27.6333 40.5532 27.2283 40.5532H3.29036C2.31037 40.5532 1.51305 39.7559 1.51305 38.7759V37.881H48.4868V38.7759C48.4868 39.7559 47.6896 40.5532 46.7096 40.5532Z" fill="url(#paint0_linear)"/>
<path d="M23.71 21.3979C24.0121 21.7793 24.4645 21.9981 24.951 21.9981C25.4376 21.9981 25.89 21.7794 26.192 21.3979L32.574 13.341C32.8255 13.0234 32.772 12.5621 32.4545 12.3106C32.1369 12.059 31.6756 12.1126 31.4241 12.4301L25.8486 19.4688L29.4393 7.14238H35.6126L33.3736 9.96912C33.122 10.2867 33.1755 10.7479 33.4931 10.9995C33.8105 11.251 34.2719 11.1976 34.5234 10.88L37.5628 7.04302C37.814 6.72578 37.8256 6.27407 37.5907 5.94411L33.7664 0.576593C33.509 0.215538 33.0907 0 32.6474 0H17.2548C16.8115 0 16.3932 0.215538 16.1359 0.576691L12.3113 5.94441C12.0765 6.27427 12.0881 6.72607 12.3394 7.04312L23.71 21.3979ZM27.9116 7.14248L24.8123 17.7818L21.7131 7.14248H27.9116ZM22.1654 5.67557L24.8123 1.9906L27.4592 5.67557H22.1654ZM26.2422 1.46691H31.3411L28.8304 5.07003L26.2422 1.46691ZM20.7942 5.07003L18.2835 1.46691H23.3824L20.7942 5.07003ZM20.1852 7.14248L23.6146 18.9147L14.2894 7.14248H20.1852ZM35.5982 5.67557H30.1963L32.8672 1.84263L35.5982 5.67557ZM16.8947 2.03949L19.4283 5.67557H14.304L16.8947 2.03949Z" fill="url(#paint1_linear)"/>
<path d="M14.8436 26.7495H42.9084C44.0633 26.7495 45.0028 25.81 45.0028 24.6551V18.4175C45.0028 17.2625 44.0633 16.323 42.9084 16.323H32.4381C32.033 16.323 31.7046 16.6514 31.7046 17.0565C31.7046 17.4615 32.033 17.7899 32.4381 17.7899H42.9083C43.2544 17.7899 43.5358 18.0714 43.5358 18.4175V24.6551C43.5358 25.0011 43.2544 25.2826 42.9083 25.2826H14.8436C14.4385 25.2826 14.1101 25.611 14.1101 26.016C14.1101 26.4211 14.4385 26.7495 14.8436 26.7495Z" fill="url(#paint2_linear)"/>
<path d="M7.09163 17.7899H17.464C17.8691 17.7899 18.1975 17.4615 18.1975 17.0565C18.1975 16.6514 17.8691 16.323 17.464 16.323H7.09163C5.93668 16.323 4.99718 17.2625 4.99718 18.4175V24.6551C4.99718 25.81 5.93668 26.7495 7.09163 26.7495H11.7178C12.1228 26.7495 12.4512 26.4211 12.4512 26.016C12.4512 25.611 12.1228 25.2826 11.7178 25.2826H7.09163C6.74554 25.2826 6.46409 25.0011 6.46409 24.6551V18.4175C6.46409 18.0714 6.74554 17.7899 7.09163 17.7899Z" fill="url(#paint3_linear)"/>
</g>
<defs>
<linearGradient id="paint0_linear" x1="0.0461426" y1="28.6365" x2="49.9538" y2="28.6365" gradientUnits="userSpaceOnUse">
<stop stop-color="#E30613"/>
<stop offset="1" stop-color="#F39200"/>
</linearGradient>
<linearGradient id="paint1_linear" x1="12.1427" y1="10.999" x2="37.7593" y2="10.999" gradientUnits="userSpaceOnUse">
<stop stop-color="#E30613"/>
<stop offset="1" stop-color="#F39200"/>
</linearGradient>
<linearGradient id="paint2_linear" x1="14.1101" y1="21.5363" x2="45.0028" y2="21.5363" gradientUnits="userSpaceOnUse">
<stop stop-color="#E30613"/>
<stop offset="1" stop-color="#F39200"/>
</linearGradient>
<linearGradient id="paint3_linear" x1="4.99718" y1="21.5363" x2="18.1975" y2="21.5363" gradientUnits="userSpaceOnUse">
<stop stop-color="#E30613"/>
<stop offset="1" stop-color="#F39200"/>
</linearGradient>
<clipPath id="clip0">
<rect width="50" height="50" fill="white"/>
</clipPath>
</defs>
</svg>
