<svg width="50" height="50" viewBox="0 0 50 50" fill="none" xmlns="http://www.w3.org/2000/svg">
<g clip-path="url(#clip0)">
<path d="M48.8378 11.3138C48.7454 11.1428 48.589 11.0154 48.4026 10.9599L45.966 10.2331L46.4039 8.76865C46.5279 8.35977 46.4841 7.92646 46.2805 7.54853C46.2004 7.3999 46.099 7.26787 45.9813 7.1541L46.7933 4.44023C47.2196 3.00615 46.4013 1.49268 44.9702 1.06699C44.2766 0.859375 43.5421 0.935156 42.9024 1.28066C42.2638 1.62578 41.7986 2.19717 41.5931 2.88848L40.7811 5.60244C40.2521 5.70176 39.7912 6.06357 39.586 6.58672L33.3038 0.603125L33.1939 0.497949C33.0624 0.371582 32.9389 0.254395 32.7961 0.164941C32.7897 0.160547 32.7833 0.15625 32.7768 0.152051C32.7741 0.150488 32.7716 0.148828 32.769 0.147363C32.7127 0.111621 32.6514 0.0832031 32.5859 0.0638672C32.4759 0.0245117 32.353 0 32.2061 0H2.46113C1.69639 0 1.07422 0.621875 1.07422 1.38623V22.3445C1.07422 22.7491 1.40215 23.077 1.80664 23.077C2.21113 23.077 2.53906 22.7491 2.53906 22.3445V1.46484H31.6448L31.64 5.69434C31.64 7.55098 33.1504 9.06143 35.0069 9.06143H38.8392L35.8277 19.1316C35.7118 19.5191 35.932 19.9272 36.3196 20.0432C36.7073 20.1595 37.1152 19.9389 37.2312 19.5513L40.5157 8.56787C40.5219 8.5499 40.5272 8.53174 40.5321 8.51318L40.9448 7.13311C40.965 7.06504 41.0451 7.02393 41.1147 7.04443L44.9124 8.17793C44.955 8.19053 44.9786 8.22041 44.9908 8.24316C45.003 8.26582 45.0148 8.30166 45.0013 8.34639L44.3539 10.5113C44.3534 10.513 44.3526 10.5146 44.3521 10.5162C44.3517 10.5179 44.3515 10.5195 44.351 10.5211L36.3645 37.2305L35.0392 36.8352L32.3078 36.0203L36.2631 22.7955C36.379 22.4079 36.1588 21.9998 35.7712 21.8839C35.3838 21.7679 34.9756 21.9882 34.8597 22.3757L30.6943 36.3026C30.6931 36.3069 30.6924 36.3113 30.6911 36.3157C30.6887 36.3244 30.6868 36.3332 30.6847 36.342C30.6803 36.3605 30.6765 36.379 30.6735 36.3976C30.6721 36.4068 30.6707 36.416 30.6695 36.4254C30.6671 36.4457 30.6656 36.466 30.6649 36.4864C30.6647 36.4938 30.6641 36.5009 30.664 36.5082C30.6638 36.536 30.665 36.5638 30.6681 36.5915C30.6682 36.5924 30.6681 36.5933 30.6682 36.5941L31.0731 40.2076L31.3628 42.7656C31.0853 42.5837 30.8768 42.2669 30.6265 41.8585C30.319 41.3569 29.8979 40.6702 29.0914 40.8217C28.414 40.9523 28.0954 41.5185 27.7873 42.0658C27.6274 42.3498 27.4621 42.6436 27.2317 42.9359C27.0614 43.1525 26.9465 43.2141 26.9096 43.2162C26.8801 43.2187 26.7098 43.2023 26.2297 42.7247C24.9735 41.4783 23.9965 42.3286 23.527 42.737C23.3517 42.8896 23.1529 43.0624 23.0224 43.0859C22.8988 43.1068 22.6738 42.9811 22.418 42.7463C22.1197 42.4729 21.6565 42.4929 21.3831 42.7912C21.1098 43.0894 21.1298 43.5526 21.4279 43.8261C22.9271 45.2008 23.9816 44.2832 24.4885 43.8421C24.6123 43.7344 24.8195 43.5541 24.8905 43.5408C24.8915 43.5409 24.9908 43.559 25.1973 43.7638C25.6561 44.2204 26.215 44.6813 26.9043 44.6813C26.9355 44.6813 26.9669 44.6803 26.9985 44.6784C27.5049 44.6478 27.9708 44.3661 28.3829 43.8422C28.6832 43.4611 28.8944 43.0858 29.0642 42.7843C29.125 42.6764 29.1976 42.5472 29.2642 42.441C29.3033 42.5026 29.343 42.5673 29.3779 42.6242C29.7893 43.2948 30.549 44.5319 32.238 44.3908C32.2409 44.3908 32.244 44.3915 32.247 44.3915C32.3558 44.3915 32.4524 44.3663 32.5373 44.3285C32.5498 44.3232 32.5617 44.3172 32.5738 44.3112C32.5763 44.31 32.5788 44.3088 32.5813 44.3075C32.6169 44.2895 32.6508 44.2688 32.6825 44.2455C32.7863 44.1728 32.8639 44.0889 32.9143 44.0342C32.9227 44.0251 32.9308 44.0158 32.9387 44.0062L37.42 38.6096C37.4267 38.6016 37.432 38.5927 37.4384 38.5845C37.4464 38.5739 37.4542 38.5635 37.4617 38.5525C37.4771 38.5298 37.491 38.5063 37.5037 38.4822C37.5075 38.4749 37.512 38.4682 37.5156 38.4607C37.5314 38.4281 37.5442 38.3944 37.555 38.3601C37.556 38.357 37.5574 38.3545 37.5583 38.3515L39.6184 31.4619V48.5352H2.53906V25.7301C2.53906 25.3255 2.21113 24.9977 1.80664 24.9977C1.40215 24.9977 1.07422 25.3255 1.07422 25.7301V48.611C1.07422 49.3769 1.69639 50 2.46113 50H39.6937C40.46 50 41.0833 49.3769 41.0833 48.6109V26.5628L45.5465 11.6365L47.2817 12.1541L44.3054 22.107C44.1895 22.4945 44.4097 22.9026 44.7973 23.0186C44.8673 23.0395 44.9379 23.0494 45.0074 23.0494C45.3228 23.0494 45.6139 22.8441 45.7089 22.5266L48.8952 11.8715C48.9508 11.6854 48.9302 11.4848 48.8378 11.3138ZM42.9969 3.30713C43.0911 2.99023 43.3049 2.72822 43.5989 2.56943C43.8939 2.40996 44.2316 2.3749 44.5514 2.47051C45.2097 2.66641 45.5856 3.3627 45.3897 4.02148L44.6289 6.56445L42.2361 5.85029L42.9969 3.30713ZM33.1049 5.69512L33.1085 2.43945L38.5225 7.59648H35.0068C33.9581 7.59648 33.1049 6.74316 33.1049 5.69512ZM32.7446 41.9469L32.2475 37.5309L35.5848 38.5265L32.7446 41.9469Z" fill="url(#paint0_linear)"/>
<path d="M10.3449 19.7708C10.3449 20.1753 10.6729 20.5032 11.0773 20.5032H30.9638C31.3683 20.5032 31.6962 20.1753 31.6962 19.7708C31.6962 19.3662 31.3683 19.0383 30.9638 19.0383H11.0773C10.6729 19.0383 10.3449 19.3663 10.3449 19.7708Z" fill="url(#paint1_linear)"/>
<path d="M11.0773 26.1965H29.7519C30.1563 26.1965 30.4843 25.8687 30.4843 25.4641C30.4843 25.0595 30.1563 24.7317 29.7519 24.7317H11.0773C10.6729 24.7317 10.3449 25.0595 10.3449 25.4641C10.3449 25.8687 10.6729 26.1965 11.0773 26.1965Z" fill="url(#paint2_linear)"/>
<path d="M11.0773 31.8896H28.307C28.7115 31.8896 29.0395 31.5618 29.0395 31.1572C29.0395 30.7526 28.7115 30.4248 28.307 30.4248H11.0773C10.6729 30.4248 10.3449 30.7526 10.3449 31.1572C10.3449 31.5618 10.6729 31.8896 11.0773 31.8896Z" fill="url(#paint3_linear)"/>
<path d="M11.0773 37.583H22.8772C23.2816 37.583 23.6096 37.2552 23.6096 36.8506C23.6096 36.446 23.2816 36.1182 22.8772 36.1182H11.0773C10.6729 36.1182 10.3449 36.446 10.3449 36.8506C10.3449 37.2552 10.6729 37.583 11.0773 37.583Z" fill="url(#paint4_linear)"/>
<path d="M28.6342 14.8738C29.3133 14.8738 29.8658 14.3216 29.8658 13.6428V10.6896C29.8658 10.0107 29.3133 9.4585 28.6342 9.4585H12.5166C11.8375 9.4585 11.285 10.0107 11.285 10.6896V13.6427C11.285 14.3215 11.8375 14.8737 12.5166 14.8737H28.6342V14.8738ZM12.7499 10.9232H28.401V13.409H12.7499V10.9232Z" fill="url(#paint5_linear)"/>
</g>
<defs>
<linearGradient id="paint0_linear" x1="1.07422" y1="25" x2="48.9258" y2="25" gradientUnits="userSpaceOnUse">
<stop stop-color="#E30613"/>
<stop offset="1" stop-color="#F39200"/>
</linearGradient>
<linearGradient id="paint1_linear" x1="10.3449" y1="19.7708" x2="31.6962" y2="19.7708" gradientUnits="userSpaceOnUse">
<stop stop-color="#E30613"/>
<stop offset="1" stop-color="#F39200"/>
</linearGradient>
<linearGradient id="paint2_linear" x1="10.3449" y1="25.4641" x2="30.4843" y2="25.4641" gradientUnits="userSpaceOnUse">
<stop stop-color="#E30613"/>
<stop offset="1" stop-color="#F39200"/>
</linearGradient>
<linearGradient id="paint3_linear" x1="10.3449" y1="31.1572" x2="29.0395" y2="31.1572" gradientUnits="userSpaceOnUse">
<stop stop-color="#E30613"/>
<stop offset="1" stop-color="#F39200"/>
</linearGradient>
<linearGradient id="paint4_linear" x1="10.3449" y1="36.8506" x2="23.6096" y2="36.8506" gradientUnits="userSpaceOnUse">
<stop stop-color="#E30613"/>
<stop offset="1" stop-color="#F39200"/>
</linearGradient>
<linearGradient id="paint5_linear" x1="11.285" y1="12.1662" x2="29.8658" y2="12.1662" gradientUnits="userSpaceOnUse">
<stop stop-color="#E30613"/>
<stop offset="1" stop-color="#F39200"/>
</linearGradient>
<clipPath id="clip0">
<rect width="50" height="50" fill="white"/>
</clipPath>
</defs>
</svg>
