<svg width="50" height="50" viewBox="0 0 50 50" fill="none" xmlns="http://www.w3.org/2000/svg">
<path d="M16.4566 17.3553C16.5709 17.2408 16.7228 17.1777 16.8841 17.1777C17.0454 17.1777 17.1973 17.2408 17.3116 17.3553C17.4547 17.4984 17.6423 17.5701 17.8299 17.5701C18.0172 17.5701 18.2045 17.4987 18.3476 17.3559C18.6337 17.07 18.634 16.6062 18.3482 16.3201C17.957 15.9285 17.4371 15.7129 16.8842 15.7129C16.3313 15.7129 15.8114 15.9285 15.4202 16.3201C15.1344 16.6063 15.1347 17.07 15.4208 17.3559C15.7071 17.6418 16.1707 17.6415 16.4566 17.3553V17.3553Z" fill="url(#paint0_linear)"/>
<path d="M24.4597 17.3553C24.574 17.2408 24.7259 17.1777 24.8872 17.1777C25.0485 17.1777 25.2004 17.2408 25.3147 17.3553C25.4578 17.4984 25.6454 17.5701 25.833 17.5701C26.0203 17.5701 26.2076 17.4987 26.3507 17.3559C26.6368 17.07 26.6371 16.6062 26.3513 16.3201C25.96 15.9285 25.4402 15.7129 24.8873 15.7129C24.3344 15.7129 23.8145 15.9285 23.4233 16.3201C23.1375 16.6063 23.1378 17.07 23.4239 17.3559C23.7101 17.6418 24.1738 17.6415 24.4597 17.3553Z" fill="url(#paint1_linear)"/>
<path d="M17.1251 21.8592C17.1251 22.91 17.5597 23.8333 18.3489 24.459C19.0269 24.9967 19.928 25.2928 20.8857 25.2928C22.7544 25.2928 24.6463 24.1134 24.6463 21.8592C24.6463 21.1196 24.0448 20.5178 23.3055 20.5178H18.466C17.7266 20.5178 17.1251 21.1196 17.1251 21.8592ZM23.1783 21.9827C23.104 23.4355 21.7155 23.828 20.8857 23.828C20.056 23.828 18.6674 23.4355 18.5931 21.9827H23.1783Z" fill="url(#paint2_linear)"/>
<path d="M47.6502 44.4675L44.8976 41.7145C44.9864 41.4683 45.0217 41.2252 45.0096 41.026L44.9432 39.8649L45.2146 39.0416C45.4236 38.4518 45.3006 37.8229 45.0848 37.4596L44.4891 36.4606L44.3465 35.6061C44.2566 34.9772 43.8523 34.4772 43.4969 34.2653L42.5086 33.6588L41.9871 32.9694C41.6238 32.4645 41.0398 32.2067 40.6111 32.1735L39.4539 32.0992L38.6746 31.7311C38.3855 31.5875 38.0779 31.5289 37.7957 31.5299C37.534 31.2389 37.2508 30.9557 36.9451 30.6803C35.2724 29.1714 33.0616 28.0453 30.8558 27.5694C30.5898 27.3688 30.1159 26.9999 29.5789 26.5819C29.0774 26.1916 28.4918 25.7359 27.9411 25.3128C29.5239 23.768 30.7497 21.8477 31.3137 19.8932C31.9577 19.7588 32.6089 19.4033 33.1363 18.8827C33.7932 18.2343 34.17 17.4194 34.17 16.6466V15.6417C34.17 14.6777 33.3874 13.8933 32.4254 13.8933H31.6424V13.8921V12.4332V9.12532C31.6424 7.18645 30.8895 5.34221 29.4651 3.79212C28.2259 2.44329 26.4766 1.33762 24.5397 0.67864C22.7256 0.0614526 20.8069 -0.144016 19.1365 0.10032C17.3806 0.357058 15.9475 1.08596 14.9699 2.21497C12.9818 2.50276 10.0248 4.01555 10.1268 10.4834C10.1278 10.5476 10.1287 10.6001 10.1287 10.6397V12.284V13.8935H9.34844C8.38496 13.8935 7.60107 14.6779 7.60107 15.6419V16.6468C7.60107 17.4196 7.97783 18.2346 8.63477 18.8829C9.16221 19.4035 9.81328 19.759 10.4574 19.8934C11.0299 21.8778 12.2848 23.8274 13.9031 25.3843C13.3999 25.7718 12.8728 26.1821 12.3885 26.5589C11.8388 26.9867 11.3536 27.3643 11.0828 27.5685C9.52715 27.9028 7.91426 28.5852 6.52051 29.5028C6.18262 29.7254 6.08887 30.1795 6.31152 30.5174C6.45215 30.7313 6.68555 30.8465 6.92383 30.8465C7.0625 30.8465 7.20215 30.8075 7.32617 30.7264C8.52119 29.9397 9.89316 29.3465 11.2222 29.0376L15.4463 32.1777C15.462 32.1894 15.4782 32.2004 15.4948 32.2108C15.6523 32.3093 15.7556 32.3903 15.8384 32.4553C16.0994 32.6601 16.3234 32.7406 16.522 32.7406C16.853 32.7406 17.1129 32.5164 17.3533 32.2708C17.4737 32.1479 17.6449 31.9737 17.902 31.7412L18.2981 33.301L15.8481 41.4696C15.8458 41.4774 15.8436 41.4853 15.8415 41.4931L15.8429 41.4881C15.7635 41.7207 15.7804 41.9405 15.8965 42.1631L17.2319 44.693H9.72705V40.0384C9.72705 39.6339 9.39922 39.306 8.99463 39.306C8.59004 39.306 8.26221 39.6339 8.26221 40.0384V44.693H3.78115C3.70205 44.693 3.62686 44.694 3.55459 44.6959C3.49795 44.6969 3.43057 44.6979 3.371 44.6979C3.37002 44.6715 3.36904 44.6412 3.36904 44.6061V36.9791C3.36904 35.4977 3.9208 34.0817 5.00869 32.7721C5.26748 32.4606 5.22451 31.9987 4.91299 31.7408C4.60146 31.4821 4.14053 31.525 3.88174 31.8356C2.58779 33.3942 1.9043 35.1725 1.9043 36.9791V44.6061C1.9043 44.9528 1.94531 45.4537 2.30371 45.8063C2.68066 46.1764 3.1582 46.1676 3.57998 46.1598C3.64443 46.1588 3.71182 46.1578 3.78115 46.1578H8.99355H8.99443C8.99443 46.1578 8.99502 46.1578 8.99531 46.1578H18.4446C18.4455 46.1578 18.4465 46.158 18.4474 46.158C18.4483 46.158 18.4494 46.1578 18.4505 46.1578H23.3212C23.3222 46.1578 23.3232 46.158 23.3243 46.158C23.3253 46.158 23.3262 46.1578 23.3271 46.1578H27.9644C28.1919 46.4401 28.561 46.6159 29.0063 46.6451L30.8539 46.8805C30.8578 46.9127 30.8617 46.9469 30.8656 46.9821L31.0658 48.7028C31.1029 49.2916 31.3959 49.7477 31.8529 49.9235C31.9857 49.9752 32.1234 49.9996 32.2611 49.9996C32.6049 49.9996 32.9535 49.8453 33.2455 49.5534L36.3146 46.4807C36.3862 46.4887 36.4567 46.4938 36.5237 46.4938C36.6116 46.4938 36.6956 46.4869 36.7718 46.4742C36.7757 46.4742 36.7796 46.4733 36.7835 46.4723L37.9192 46.2653L38.7649 46.4381C39.008 46.4927 39.2498 46.4941 39.474 46.4605L42.5658 49.553C42.8581 49.8455 43.2065 49.9999 43.55 49.9999C43.6883 49.9999 43.8257 49.9749 43.9584 49.9239C44.4158 49.7476 44.7089 49.2921 44.746 48.7026L44.9447 46.9878C44.9494 46.95 44.9534 46.9144 44.9568 46.8808L46.802 46.6451C47.3899 46.6068 47.8438 46.314 48.0198 45.8578C48.1974 45.3968 48.0594 44.8771 47.6502 44.4675V44.4675ZM28.6794 27.738C28.9156 27.9219 29.1343 28.092 29.3287 28.2429L25.6399 30.9851C25.5806 31.0228 25.5266 31.0586 25.4776 31.0925C25.318 30.9331 25.1005 30.7241 24.7915 30.4565L24.0091 29.7363C23.9959 29.7232 23.9822 29.7106 23.9681 29.6985L22.6019 28.4409C22.9387 28.3557 23.2867 28.2463 23.6531 28.1096C24.7636 27.6944 25.837 27.0688 26.8185 26.2978C27.4283 26.7644 28.1087 27.2937 28.6794 27.738V27.738ZM22.1443 32.5847H19.6273L19.1284 30.6204L20.9684 28.9282L22.6755 30.4995L22.1443 32.5847ZM32.4258 15.3582C32.5774 15.3582 32.7056 15.4881 32.7056 15.6418V16.6467C32.7056 17.0246 32.482 17.4707 32.1077 17.8403C31.9579 17.9881 31.7931 18.115 31.6234 18.2163C31.6357 18.0473 31.6428 17.8799 31.6428 17.7152V15.3582H32.4258ZM15.4139 3.63743C15.6179 3.61936 15.8049 3.51682 15.9298 3.35452C16.9688 2.00413 18.71 1.46477 20.5489 1.46477C21.7353 1.46477 22.9624 1.68928 24.0679 2.06536C26.8865 3.02425 30.1779 5.44866 30.1779 9.12532V12.4334V13.1599H29.0686C27.5039 13.1599 26.5025 12.2202 25.3431 11.1322C23.9513 9.8261 22.3738 8.34593 19.5776 8.34593H16.4085C14.0485 8.34593 13.668 10.2032 13.3901 11.5593C13.0949 13.0005 12.8704 13.7942 11.5936 13.8848V12.284V10.6396C11.5936 10.5943 11.5926 10.5339 11.5915 10.4603C11.5448 7.50628 12.1701 3.92464 15.4139 3.63743V3.63743ZM9.06582 16.6467V15.6418C9.06582 15.4881 9.19521 15.3582 9.34834 15.3582H10.1286V17.7152C10.1286 17.8799 10.1355 18.0472 10.1479 18.2163C9.97822 18.1149 9.81348 17.9881 9.66367 17.8402C9.28936 17.4708 9.06582 17.0245 9.06582 16.6467V16.6467ZM11.7523 19.0591C11.6469 18.5944 11.5935 18.1422 11.5935 17.7152V15.3517C14.1343 15.2236 14.5482 13.2042 14.8251 11.8533C15.1351 10.3402 15.339 9.81067 16.4084 9.81067H19.5775C21.794 9.81067 23.031 10.9714 24.3406 12.2003C25.6107 13.3922 26.9241 14.6247 29.0685 14.6247H30.1778V17.7153C30.1778 18.1423 30.1244 18.5945 30.0191 19.0583C29.2934 22.2411 26.3359 25.5424 23.1406 26.7373C22.2936 27.0533 21.5771 27.2005 20.8855 27.2005C20.194 27.2005 19.4775 27.0533 18.6312 26.7375C15.4354 25.5425 12.4779 22.2411 11.7523 19.0591V19.0591ZM17.143 30.4565C16.8351 30.7237 16.6181 30.9325 16.4588 31.0918C16.4101 31.0581 16.3563 31.0225 16.2974 30.985L12.6086 28.2429C12.8113 28.0858 13.0403 27.9075 13.2881 27.7146C13.8482 27.2787 14.4661 26.7979 15.0351 26.3616C15.9943 27.1032 17.039 27.7059 18.1187 28.1097C18.5327 28.2641 18.9231 28.3832 19.3005 28.4722L17.8164 29.8371C17.8151 29.8383 17.8138 29.8395 17.8125 29.8408L17.143 30.4565ZM28.1604 44.4674C28.0882 44.5397 28.0247 44.6149 27.97 44.693H24.5396L25.8769 42.1598C25.9935 41.9361 26.0094 41.7122 25.9233 41.4692L25.2928 39.3708C25.1765 38.9835 24.7682 38.7639 24.3806 38.8802C23.9932 38.9966 23.7734 39.405 23.8899 39.7924L24.4632 41.7L22.8832 44.693H18.8881L17.308 41.7L19.6026 34.0496H22.169L22.9413 36.6175C23.0367 36.9346 23.3276 37.1392 23.6425 37.1392C23.7124 37.1392 23.7834 37.1291 23.8537 37.1079C24.2411 36.9914 24.4606 36.5829 24.344 36.1956L23.4733 33.301L23.9006 31.6237C24.234 31.9163 24.4426 32.1283 24.583 32.2711C24.824 32.5165 25.0841 32.7405 25.4153 32.7405C25.6139 32.7405 25.8382 32.6599 26.099 32.4553C26.182 32.3903 26.2852 32.3093 26.4425 32.2109C26.4591 32.2005 26.4753 32.1894 26.491 32.1778L30.7142 29.0384C32.7409 29.5068 34.7738 30.5761 36.2636 32.0389L36.0292 32.1434L35.1688 32.1815C34.5341 32.1932 33.9892 32.536 33.7323 32.868L33.0175 33.7791L32.2694 34.2137C31.7284 34.5125 31.4032 35.0623 31.3202 35.4774C31.3192 35.4803 31.3183 35.4832 31.3183 35.4871L31.1054 36.6317L30.6474 37.3641C30.3065 37.8846 30.2733 38.5223 30.3954 38.9334L30.7362 40.0438L30.6698 40.91C30.6376 41.2387 30.6972 41.5541 30.803 41.8229L28.1604 44.4674ZM34.5665 46.1578L32.4865 48.2399L32.3195 46.8053C32.3078 46.7106 32.301 46.6315 32.2961 46.5641C32.2824 46.4069 32.258 46.2731 32.2219 46.1578C32.0646 45.6569 31.6887 45.5094 31.0773 45.4323L29.4719 45.2282L30.0061 44.693L31.7268 42.9707L31.9924 43.2389L32.3322 44.0358C32.4367 44.2955 32.5949 44.5162 32.7736 44.693C32.9982 44.9137 33.2561 45.066 33.4787 45.1354L34.5821 45.486L34.9436 45.7805L34.5665 46.1578ZM40.4424 44.1617L40.0332 44.4821L39.4248 44.9576C39.4225 44.959 39.4187 44.9608 39.4156 44.9623C39.4066 44.9659 39.3979 44.9705 39.3891 44.9745C39.3232 45.0021 39.2007 45.0356 39.085 45.0084C39.0781 45.0065 39.0713 45.0055 39.0654 45.0035L38.0723 44.8024C37.9805 44.7828 37.8867 44.7819 37.7949 44.7994L36.5352 45.0289C36.4805 45.0319 36.3125 45.0123 36.2012 44.9157C36.1953 44.9108 36.1904 44.9059 36.1846 44.902L35.9277 44.693L35.3994 44.2623C35.3281 44.2047 35.2461 44.1598 35.1582 44.1325L33.9277 43.7409C33.8809 43.7194 33.7451 43.6256 33.6904 43.4869C33.6875 43.4811 33.6855 43.4742 33.6826 43.4684L33.2842 42.5358C33.248 42.4508 33.1963 42.3737 33.1318 42.3082L32.2486 41.4165C32.2478 41.4157 32.247 41.4146 32.2461 41.4137C32.2453 41.4129 32.2445 41.4123 32.2437 41.4117L32.2207 41.3883C32.2197 41.3873 32.2197 41.3864 32.2178 41.3854C32.1855 41.3405 32.1123 41.1959 32.1279 41.0494C32.1289 41.0436 32.1289 41.0367 32.1299 41.0299L32.207 40.0172C32.2139 39.9254 32.2041 39.8336 32.1768 39.7457L31.7998 38.5162C31.79 38.4625 31.79 38.2926 31.874 38.1666C31.8779 38.1608 31.8818 38.1539 31.8848 38.1481L32.4219 37.2907C32.4707 37.2125 32.5039 37.1256 32.5205 37.0358L32.7559 35.7682C32.7725 35.7155 32.8496 35.5651 32.9805 35.4938C32.9863 35.4908 32.9922 35.4869 32.998 35.484L33.875 34.9742C33.9551 34.9283 34.0254 34.8668 34.083 34.7936L34.8818 33.776C34.9189 33.7399 35.0537 33.6471 35.2002 33.6451H35.2236L36.2324 33.6002C36.3242 33.5963 36.415 33.5748 36.499 33.5377L37.2637 33.1969L37.6846 33.0094C37.7246 32.9977 37.8838 32.9723 38.0254 33.0436C38.0303 33.0465 38.0361 33.0494 38.041 33.0514L38.9541 33.484C39.0303 33.5192 39.1113 33.5416 39.1953 33.5494C39.2041 33.5514 39.2119 33.5514 39.2207 33.5524L40.5029 33.6344C40.5459 33.6432 40.707 33.6959 40.7988 33.8258C40.8037 33.8326 40.8076 33.8385 40.8125 33.8444L41.4238 34.653C41.4785 34.7262 41.5469 34.7877 41.625 34.8356L42.7285 35.5123C42.7695 35.5446 42.877 35.6686 42.8975 35.816C42.8984 35.8229 42.8994 35.8297 42.9004 35.8375L43.0664 36.8366C43.0811 36.9264 43.1133 37.0133 43.1602 37.0914L43.8223 38.2028C43.8398 38.2418 43.8877 38.4039 43.833 38.5543C43.8311 38.5612 43.8281 38.567 43.8262 38.5739L43.5088 39.5377C43.4795 39.6246 43.4678 39.7174 43.4727 39.8092L43.5469 41.1022V41.1071C43.541 41.1647 43.5 41.3199 43.3945 41.4157C43.3896 41.4215 43.3838 41.4264 43.3789 41.4313L42.6514 42.1373C42.585 42.2008 42.5322 42.277 42.4941 42.361L41.9619 43.5358C41.9346 43.5817 41.8242 43.7076 41.6816 43.7457C41.6748 43.7467 41.668 43.7487 41.6611 43.7506L40.6875 44.0358C40.5986 44.0621 40.5156 44.1051 40.4424 44.1617V44.1617ZM44.735 45.4324C43.977 45.5272 43.5801 45.7288 43.5136 46.5683C43.5083 46.6349 43.5022 46.7141 43.4899 46.8138L43.3246 48.2402L40.8147 45.7299L41.2343 45.4019L42.0644 45.1587C42.6669 44.9966 43.1142 44.5376 43.2919 44.1499L43.7714 43.0913L43.9903 42.8786L46.3388 45.2275L44.735 45.4324Z" fill="url(#paint3_linear)"/>
<path d="M40.3322 36.1642C38.7642 34.7832 36.364 34.9352 34.9818 36.5037C34.9816 36.5039 34.9814 36.5041 34.9812 36.5043C33.6 38.0752 33.7524 40.4772 35.3203 41.8582C36.0184 42.4747 36.8985 42.8067 37.8212 42.8067C37.9023 42.8067 37.9837 42.8042 38.0653 42.799C39.0765 42.7351 40.0022 42.2804 40.6714 41.5193C42.053 39.9515 41.9011 37.5495 40.3322 36.1642V36.1642ZM39.5718 40.5514C39.1609 41.0189 38.593 41.2979 37.9728 41.3371C37.354 41.3763 36.7555 41.1713 36.2891 40.7595C35.3264 39.9115 35.2329 38.437 36.0807 37.4721C36.9289 36.5097 38.4017 36.416 39.3632 37.2629C40.3268 38.1135 40.4205 39.5884 39.5718 40.5514V40.5514Z" fill="url(#paint4_linear)"/>
<defs>
<linearGradient id="paint0_linear" x1="15.206" y1="16.6415" x2="18.5624" y2="16.6415" gradientUnits="userSpaceOnUse">
<stop stop-color="#E30613"/>
<stop offset="1" stop-color="#F39200"/>
</linearGradient>
<linearGradient id="paint1_linear" x1="23.2091" y1="16.6415" x2="26.5655" y2="16.6415" gradientUnits="userSpaceOnUse">
<stop stop-color="#E30613"/>
<stop offset="1" stop-color="#F39200"/>
</linearGradient>
<linearGradient id="paint2_linear" x1="17.1251" y1="22.9053" x2="24.6463" y2="22.9053" gradientUnits="userSpaceOnUse">
<stop stop-color="#E30613"/>
<stop offset="1" stop-color="#F39200"/>
</linearGradient>
<linearGradient id="paint3_linear" x1="1.9043" y1="25" x2="48.0958" y2="25" gradientUnits="userSpaceOnUse">
<stop stop-color="#E30613"/>
<stop offset="1" stop-color="#F39200"/>
</linearGradient>
<linearGradient id="paint4_linear" x1="34.0372" y1="39.0135" x2="41.6159" y2="39.0135" gradientUnits="userSpaceOnUse">
<stop stop-color="#E30613"/>
<stop offset="1" stop-color="#F39200"/>
</linearGradient>
</defs>
</svg>
