<svg width="50" height="50" fill="none" xmlns="http://www.w3.org/2000/svg"><g clip-path="url(#clip0)"><path d="M46.71 7.273h-7.153a.733.733 0 100 1.467h7.153c.98 0 1.777.797 1.777 1.777v25.897H1.513V10.517c0-.98.797-1.777 1.777-1.777h7.055a.733.733 0 100-1.467H3.29a3.248 3.248 0 00-3.244 3.244v28.259A3.248 3.248 0 003.29 42.02h12.315v3.302l-1.992 2.78a1.195 1.195 0 00-.092 1.246c.206.402.615.652 1.067.652h20.726c.452 0 .861-.25 1.068-.652.206-.402.17-.88-.093-1.247l-1.904-2.655a.73.73 0 00-.088-.252V42.02H46.71a3.248 3.248 0 003.244-3.244V10.517a3.248 3.248 0 00-3.244-3.244zm0 33.28H30.354a.734.734 0 000 1.467h2.476v2.805h-1.294a.733.733 0 100 1.467h1.65l1.608 2.241H15.108l1.607-2.241h1.748a.733.733 0 000-1.467h-1.391V42.02h10.156a.733.733 0 000-1.467H3.29a1.78 1.78 0 01-1.777-1.777v-.895h46.974v.895a1.78 1.78 0 01-1.777 1.777z" fill="url(#paint0_linear)"/><path d="M23.71 21.398c.302.381.755.6 1.241.6.487 0 .939-.219 1.241-.6l6.382-8.057a.734.734 0 00-1.15-.91l-5.575 7.038 3.59-12.327h6.174l-2.24 2.827a.733.733 0 101.15.911l3.04-3.837a.92.92 0 00.028-1.099L33.766.577A1.377 1.377 0 0032.647 0H17.255c-.444 0-.862.216-1.12.577l-3.824 5.367a.92.92 0 00.028 1.1L23.71 21.397zm4.202-14.256l-3.1 10.64-3.099-10.64h6.199zm-5.747-1.466l2.647-3.685 2.647 3.685h-5.294zm4.077-4.21h5.1L28.83 5.07l-2.588-3.603zM20.794 5.07l-2.51-3.603h5.098L20.794 5.07zm-.609 2.072l3.43 11.773-9.326-11.773h5.896zm15.413-1.466h-5.402l2.671-3.833 2.731 3.833zM16.895 2.039l2.533 3.637h-5.124l2.59-3.637z" fill="url(#paint1_linear)"/><path d="M14.844 26.75h28.064c1.155 0 2.095-.94 2.095-2.095v-6.238c0-1.155-.94-2.094-2.095-2.094h-10.47a.734.734 0 000 1.467h10.47c.346 0 .628.281.628.628v6.237a.628.628 0 01-.628.628H14.844a.733.733 0 100 1.466z" fill="url(#paint2_linear)"/><path d="M7.092 17.79h10.372a.733.733 0 100-1.467H7.092c-1.155 0-2.095.94-2.095 2.095v6.237c0 1.155.94 2.095 2.095 2.095h4.626a.733.733 0 000-1.467H7.092a.628.628 0 01-.628-.628v-6.238c0-.346.282-.627.628-.627z" fill="url(#paint3_linear)"/></g><defs><linearGradient id="paint0_linear" x1=".046" y1="28.637" x2="49.954" y2="28.637" gradientUnits="userSpaceOnUse"><stop stop-color="#E30613"/><stop offset="1" stop-color="#F39200"/></linearGradient><linearGradient id="paint1_linear" x1="12.143" y1="10.999" x2="37.759" y2="10.999" gradientUnits="userSpaceOnUse"><stop stop-color="#E30613"/><stop offset="1" stop-color="#F39200"/></linearGradient><linearGradient id="paint2_linear" x1="14.11" y1="21.536" x2="45.003" y2="21.536" gradientUnits="userSpaceOnUse"><stop stop-color="#E30613"/><stop offset="1" stop-color="#F39200"/></linearGradient><linearGradient id="paint3_linear" x1="4.997" y1="21.536" x2="18.198" y2="21.536" gradientUnits="userSpaceOnUse"><stop stop-color="#E30613"/><stop offset="1" stop-color="#F39200"/></linearGradient><clipPath id="clip0"><path fill="#fff" d="M0 0h50v50H0z"/></clipPath></defs></svg>