<svg width="50" height="50" fill="none" xmlns="http://www.w3.org/2000/svg"><path d="M16.457 17.355a.6.6 0 01.855 0 .73.73 0 001.036 0 .733.733 0 000-1.035 2.056 2.056 0 00-1.464-.607c-.553 0-1.073.216-1.464.607a.733.733 0 001.037 1.035z" fill="url(#paint0_linear)"/><path d="M24.46 17.355a.6.6 0 01.855 0 .73.73 0 001.036 0 .733.733 0 000-1.035 2.056 2.056 0 00-1.464-.607c-.553 0-1.073.216-1.464.607a.733.733 0 001.037 1.035z" fill="url(#paint1_linear)"/><path d="M17.125 21.86c0 1.05.435 1.973 1.224 2.599.678.538 1.579.834 2.537.834 1.868 0 3.76-1.18 3.76-3.434 0-.74-.601-1.341-1.34-1.341h-4.84c-.74 0-1.34.602-1.34 1.341zm6.053.123c-.074 1.453-1.463 1.845-2.292 1.845-.83 0-2.219-.392-2.293-1.845h4.585z" fill="url(#paint2_linear)"/><path d="M47.65 44.468l-2.752-2.754c.088-.246.124-.489.112-.688l-.067-1.161.272-.823c.209-.59.086-1.22-.13-1.582l-.596-1-.142-.854c-.09-.629-.495-1.129-.85-1.34l-.988-.607-.522-.69a1.981 1.981 0 00-1.376-.796l-1.157-.074-.78-.368a1.968 1.968 0 00-.878-.201 11.441 11.441 0 00-.85-.85c-1.674-1.509-3.884-2.635-6.09-3.11-.266-.201-.74-.57-1.277-.988a339.87 339.87 0 00-1.638-1.27c1.583-1.544 2.809-3.464 3.373-5.419.644-.134 1.295-.49 1.822-1.01.657-.649 1.034-1.464 1.034-2.236v-1.005a1.75 1.75 0 00-1.745-1.749h-.783V9.124c0-1.939-.752-3.783-2.177-5.333-1.24-1.349-2.988-2.454-4.925-3.113C22.726.06 20.807-.144 19.137.1c-1.756.257-3.19.986-4.167 2.115-1.988.288-4.945 1.8-4.843 8.268l.002.157v3.254h-.78A1.75 1.75 0 007.6 15.641v1.005c0 .773.377 1.588 1.034 2.236.527.52 1.178.876 1.822 1.01.573 1.985 1.828 3.934 3.446 5.491-.503.388-1.03.798-1.514 1.175-.55.428-1.035.805-1.306 1.01-1.556.334-3.169 1.016-4.562 1.934a.732.732 0 10.805 1.223 12.314 12.314 0 013.896-1.688l4.224 3.14a.727.727 0 00.049.033c.157.098.26.18.343.244.261.205.485.286.684.286.331 0 .59-.225.831-.47.12-.123.292-.297.549-.53l.396 1.56-2.45 8.169a1.031 1.031 0 00-.007.023l.002-.005a.818.818 0 00.053.675l1.336 2.53H9.727v-4.655a.732.732 0 10-1.465 0v4.655h-4.48c-.08 0-.155.001-.227.003l-.184.002a2.4 2.4 0 01-.002-.092V36.98c0-1.481.552-2.897 1.64-4.207a.732.732 0 10-1.127-.936c-1.294 1.558-1.978 3.337-1.978 5.143v7.627c0 .347.041.848.4 1.2.377.37.854.362 1.276.354l.201-.002h24.183c.228.282.597.458 1.042.487l1.848.235.012.102.2 1.72c.037.59.33 1.046.787 1.221.133.052.27.077.408.077.344 0 .692-.155.984-.447l3.07-3.072a1.521 1.521 0 00.469-.008l1.135-.208.846.173c.243.055.485.056.709.023l3.092 3.092c.292.293.64.447.984.447.138 0 .276-.025.408-.076.458-.176.75-.632.788-1.221l.199-1.715a4.71 4.71 0 00.012-.107l1.845-.236c.588-.038 1.042-.331 1.218-.787.177-.461.04-.98-.37-1.39zm-18.97-16.73l.649.505-3.69 2.742-.161.108c-.16-.16-.378-.369-.687-.637l-.782-.72a.77.77 0 00-.04-.038l-1.367-1.257c.337-.085.685-.195 1.051-.331 1.11-.416 2.184-1.041 3.166-1.812.61.466 1.29.996 1.86 1.44zm-6.536 4.847h-2.517l-.499-1.965 1.84-1.692 1.707 1.572-.53 2.085zm10.282-17.227c.151 0 .28.13.28.284v1.005c0 .378-.224.824-.598 1.193a2.57 2.57 0 01-.485.376c.013-.169.02-.336.02-.5v-2.358h.783zM15.414 3.638a.732.732 0 00.516-.283c1.039-1.35 2.78-1.89 4.619-1.89 1.186 0 2.413.224 3.519.6 2.819.96 6.11 3.384 6.11 7.06v4.035h-1.11c-1.564 0-2.566-.94-3.725-2.028-1.392-1.306-2.97-2.786-5.765-2.786h-3.17c-2.36 0-2.74 1.857-3.018 3.213-.295 1.442-.52 2.235-1.796 2.326V10.64l-.002-.18c-.047-2.954.578-6.535 3.822-6.823zM9.066 16.646v-1.005c0-.154.13-.284.282-.284h.78v2.357c0 .165.008.332.02.501a2.57 2.57 0 01-.484-.376c-.375-.37-.598-.816-.598-1.193zm2.686 2.412a6.103 6.103 0 01-.159-1.344v-2.363c2.541-.128 2.955-2.148 3.232-3.499.31-1.513.514-2.042 1.583-2.042h3.17c2.216 0 3.453 1.16 4.763 2.39 1.27 1.191 2.583 2.424 4.727 2.424h1.11v3.09c0 .427-.054.88-.159 1.343-.726 3.183-3.683 6.484-6.878 7.68-.847.315-1.564.463-2.255.463-.692 0-1.409-.148-2.255-.463-3.196-1.195-6.153-4.497-6.879-7.679zm5.391 11.397c-.308.268-.525.477-.684.636a5.068 5.068 0 00-.162-.107l-3.688-2.742.68-.528c.56-.436 1.177-.917 1.746-1.353.96.741 2.004 1.344 3.084 1.748.414.154.804.273 1.181.362l-1.484 1.365a.133.133 0 00-.003.004l-.67.615zM28.16 44.468a1.7 1.7 0 00-.19.226h-3.43l1.337-2.533a.823.823 0 00.046-.69l-.63-2.1a.732.732 0 00-1.403.422l.573 1.908-1.58 2.993h-3.995l-1.58-2.993 2.295-7.65h2.566l.772 2.568a.733.733 0 001.403-.422l-.87-2.895.427-1.677c.333.292.542.504.682.647.241.245.501.47.832.47.199 0 .423-.081.684-.286.083-.065.186-.146.343-.244a.767.767 0 00.049-.033l4.223-3.14c2.027.469 4.06 1.538 5.55 3l-.235.105-.86.038c-.635.012-1.18.355-1.437.687l-.715.911-.748.435c-.54.299-.866.848-.949 1.263a.028.028 0 00-.002.01l-.213 1.145-.458.732c-.34.52-.374 1.158-.252 1.57l.341 1.11-.066.866a1.98 1.98 0 00.133.913l-2.643 2.644zm6.406 1.69l-2.08 2.083-.166-1.435a4.703 4.703 0 01-.024-.24 1.92 1.92 0 00-.074-.407c-.157-.501-.533-.649-1.145-.726l-1.605-.204.534-.535 1.72-1.722.266.268.34.797c.105.26.263.48.442.657.224.22.482.373.705.442l1.103.351.362.295-.378.377zm5.876-1.995l-.409.32-.608.476-.01.004-.026.012a.526.526 0 01-.304.034l-.02-.005-.993-.2a.698.698 0 00-.277-.004l-1.26.23a.542.542 0 01-.334-.113l-.016-.014-.257-.209-.529-.43a.73.73 0 00-.24-.13l-1.231-.392a.537.537 0 01-.238-.254l-.007-.019-.399-.932a.734.734 0 00-.152-.228l-.883-.892-.003-.002-.002-.002-.023-.024-.003-.003a.551.551 0 01-.09-.336c0-.005 0-.012.002-.02l.077-1.012a.73.73 0 00-.03-.271l-.377-1.23a.55.55 0 01.085-.368l.537-.857a.734.734 0 00.099-.255l.235-1.268a.544.544 0 01.224-.274l.018-.01.877-.51a.722.722 0 00.208-.18l.799-1.018a.535.535 0 01.318-.13h.024l1.008-.046a.74.74 0 00.267-.062l.765-.341.42-.188a.524.524 0 01.357.042l.913.433a.736.736 0 00.241.065l.026.003 1.282.082a.538.538 0 01.296.192l.014.018.61.809a.72.72 0 00.202.183l1.103.676a.54.54 0 01.17.304l.002.021.166 1c.015.09.047.176.094.254l.662 1.112a.532.532 0 01.011.351l-.007.02-.317.964a.73.73 0 00-.036.271l.074 1.293v.005a.544.544 0 01-.152.309l-.016.015-.728.706a.72.72 0 00-.157.224l-.532 1.175a.538.538 0 01-.28.21c-.007 0-.014.003-.02.005l-.974.285a.748.748 0 00-.246.126zm4.293 1.27c-.758.095-1.155.297-1.221 1.136-.006.067-.012.146-.024.246l-.165 1.426-2.51-2.51.42-.328.83-.243c.602-.162 1.05-.621 1.227-1.01l.48-1.058.218-.212 2.349 2.349-1.604.204z" fill="url(#paint3_linear)"/><path d="M40.332 36.164a3.796 3.796 0 00-5.35.34 3.8 3.8 0 00.338 5.354 3.758 3.758 0 002.745.941 3.764 3.764 0 002.606-1.28 3.8 3.8 0 00-.339-5.355zm-.76 4.387a2.307 2.307 0 01-1.6.786 2.308 2.308 0 01-1.683-.578 2.334 2.334 0 01-.208-3.287 2.33 2.33 0 013.282-.21 2.334 2.334 0 01.209 3.29z" fill="url(#paint4_linear)"/><defs><linearGradient id="paint0_linear" x1="15.206" y1="16.642" x2="18.562" y2="16.642" gradientUnits="userSpaceOnUse"><stop stop-color="#E30613"/><stop offset="1" stop-color="#F39200"/></linearGradient><linearGradient id="paint1_linear" x1="23.209" y1="16.642" x2="26.566" y2="16.642" gradientUnits="userSpaceOnUse"><stop stop-color="#E30613"/><stop offset="1" stop-color="#F39200"/></linearGradient><linearGradient id="paint2_linear" x1="17.125" y1="22.905" x2="24.646" y2="22.905" gradientUnits="userSpaceOnUse"><stop stop-color="#E30613"/><stop offset="1" stop-color="#F39200"/></linearGradient><linearGradient id="paint3_linear" x1="1.904" y1="25" x2="48.096" y2="25" gradientUnits="userSpaceOnUse"><stop stop-color="#E30613"/><stop offset="1" stop-color="#F39200"/></linearGradient><linearGradient id="paint4_linear" x1="34.037" y1="39.014" x2="41.616" y2="39.014" gradientUnits="userSpaceOnUse"><stop stop-color="#E30613"/><stop offset="1" stop-color="#F39200"/></linearGradient></defs></svg>