<svg width="50" height="50" fill="none" xmlns="http://www.w3.org/2000/svg"><g clip-path="url(#clip0)"><path d="M48.838 11.314a.732.732 0 00-.435-.354l-2.437-.727.438-1.464c.124-.41.08-.843-.123-1.22a1.61 1.61 0 00-.3-.395l.812-2.714a2.715 2.715 0 00-1.823-3.373 2.696 2.696 0 00-2.068.214 2.689 2.689 0 00-1.309 1.607l-.812 2.714c-.529.1-.99.462-1.195.985L33.304.603l-.11-.105a2.528 2.528 0 00-.417-.346l-.008-.005a.724.724 0 00-.183-.083 1.105 1.105 0 00-.38-.064H2.461c-.765 0-1.387.622-1.387 1.386v20.959a.732.732 0 101.465 0V1.465h29.106l-.005 4.23a3.37 3.37 0 003.367 3.366h3.832l-3.011 10.07a.732.732 0 001.403.42l3.285-10.983a.768.768 0 00.016-.055l.413-1.38a.14.14 0 01.17-.089l3.797 1.134a.13.13 0 01.079.065.132.132 0 01.01.103l-.647 2.165-.002.005-.001.005-7.986 26.71-1.326-.396-2.731-.815 3.955-13.225a.732.732 0 00-1.403-.42l-4.166 13.928-.003.013-.006.026a.77.77 0 00-.02.144l-.001.022c0 .028.001.056.004.084v.002l.405 3.614.29 2.558c-.278-.182-.486-.5-.736-.907-.308-.502-.73-1.189-1.536-1.037-.677.13-.996.697-1.304 1.244-.16.284-.325.578-.555.87-.17.217-.285.278-.322.28-.03.003-.2-.014-.68-.491-1.256-1.247-2.233-.396-2.703.012-.175.153-.374.325-.505.349-.123.02-.348-.105-.604-.34a.732.732 0 10-.99 1.08c1.5 1.375 2.554.457 3.06.016.124-.108.332-.288.402-.301.002 0 .1.018.307.223.46.456 1.018.917 1.707.917.032 0 .063 0 .095-.003.506-.03.972-.312 1.384-.836.3-.38.511-.756.681-1.058.061-.108.134-.237.2-.343.04.062.079.126.114.183.411.67 1.171 1.908 2.86 1.767h.009a.707.707 0 00.29-.063.248.248 0 00.037-.017 1.429 1.429 0 00.365-.305l4.481-5.396c.007-.008.012-.017.018-.026a.817.817 0 00.066-.102l.012-.021a.739.739 0 00.039-.1l.003-.01 2.06-6.89v17.074H2.54V25.73a.732.732 0 10-1.465 0v22.881A1.39 1.39 0 002.461 50h37.233a1.39 1.39 0 001.39-1.39V26.564l4.462-14.926 1.736.517-2.977 9.953a.732.732 0 101.404.42l3.186-10.656a.732.732 0 00-.057-.557zm-5.841-8.007c.094-.317.308-.579.602-.738a1.249 1.249 0 011.79 1.452l-.76 2.543-2.393-.714.76-2.543zm-9.892 2.388l.004-3.256 5.413 5.157h-3.515a1.904 1.904 0 01-1.902-1.9zm-.36 36.252l-.497-4.416 3.337.995-2.84 3.42z" fill="url(#paint0_linear)"/><path d="M10.345 19.77c0 .405.328.733.732.733h19.887a.732.732 0 100-1.465H11.077a.733.733 0 00-.732.733z" fill="url(#paint1_linear)"/><path d="M11.077 26.197h18.675a.732.732 0 100-1.465H11.077a.732.732 0 100 1.465z" fill="url(#paint2_linear)"/><path d="M11.077 31.89h17.23a.732.732 0 100-1.465h-17.23a.732.732 0 100 1.465z" fill="url(#paint3_linear)"/><path d="M11.077 37.583h11.8a.732.732 0 100-1.465h-11.8a.732.732 0 100 1.465z" fill="url(#paint4_linear)"/><path d="M28.634 14.874c.68 0 1.232-.552 1.232-1.231V10.69c0-.68-.553-1.231-1.232-1.231H12.517c-.68 0-1.232.552-1.232 1.23v2.954c0 .678.553 1.23 1.232 1.23h16.117zm-15.884-3.95H28.4v2.485H12.75v-2.486z" fill="url(#paint5_linear)"/></g><defs><linearGradient id="paint0_linear" x1="1.074" y1="25" x2="48.926" y2="25" gradientUnits="userSpaceOnUse"><stop stop-color="#E30613"/><stop offset="1" stop-color="#F39200"/></linearGradient><linearGradient id="paint1_linear" x1="10.345" y1="19.771" x2="31.696" y2="19.771" gradientUnits="userSpaceOnUse"><stop stop-color="#E30613"/><stop offset="1" stop-color="#F39200"/></linearGradient><linearGradient id="paint2_linear" x1="10.345" y1="25.464" x2="30.484" y2="25.464" gradientUnits="userSpaceOnUse"><stop stop-color="#E30613"/><stop offset="1" stop-color="#F39200"/></linearGradient><linearGradient id="paint3_linear" x1="10.345" y1="31.157" x2="29.04" y2="31.157" gradientUnits="userSpaceOnUse"><stop stop-color="#E30613"/><stop offset="1" stop-color="#F39200"/></linearGradient><linearGradient id="paint4_linear" x1="10.345" y1="36.851" x2="23.61" y2="36.851" gradientUnits="userSpaceOnUse"><stop stop-color="#E30613"/><stop offset="1" stop-color="#F39200"/></linearGradient><linearGradient id="paint5_linear" x1="11.285" y1="12.166" x2="29.866" y2="12.166" gradientUnits="userSpaceOnUse"><stop stop-color="#E30613"/><stop offset="1" stop-color="#F39200"/></linearGradient><clipPath id="clip0"><path fill="#fff" d="M0 0h50v50H0z"/></clipPath></defs></svg>