<svg width="208" height="64" viewBox="0 0 208 64" fill="none" xmlns="http://www.w3.org/2000/svg">
<path d="M207.82 5.38413C208.032 5.20734 208.061 4.89206 207.884 4.67992L205.003 1.22293C204.826 1.01079 204.511 0.982125 204.299 1.15891C204.087 1.33569 204.058 1.65097 204.235 1.86311L206.796 4.936L203.723 7.49673C203.511 7.67351 203.482 7.9888 203.659 8.20094C203.836 8.41307 204.151 8.44174 204.363 8.26495L207.82 5.38413ZM6.50001 63.0001C6.92136 62.7309 6.92142 62.731 6.92139 62.731C6.92126 62.7308 6.92115 62.7306 6.9209 62.7302C6.9204 62.7294 6.91956 62.7281 6.91837 62.7262C6.91601 62.7225 6.91228 62.7166 6.90725 62.7086C6.89717 62.6925 6.88184 62.6678 6.8616 62.6349C6.82112 62.5689 6.76103 62.4696 6.68413 62.3386C6.5303 62.0765 6.30927 61.6879 6.0434 61.186C5.51154 60.182 4.80095 58.7263 4.09006 56.9259C2.66695 53.3217 1.25 48.3548 1.25 42.8752C1.25 37.4028 2.66247 31.4187 6.90039 25.7527C11.1411 20.0831 18.2389 14.6949 29.6733 10.4691L29.3267 9.5311C17.7611 13.8054 10.4839 19.2921 6.09961 25.1538C1.71253 31.0191 0.249999 37.2225 0.25 42.8752C0.250002 48.5205 1.70806 53.6161 3.15995 57.2932C3.88656 59.1334 4.61347 60.623 5.15974 61.6541C5.43293 62.1698 5.66112 62.5712 5.82175 62.8448C5.90207 62.9816 5.96551 63.0865 6.00927 63.1578C6.03114 63.1935 6.0481 63.2208 6.05978 63.2394C6.06562 63.2487 6.07015 63.2559 6.07331 63.2609C6.07489 63.2634 6.07613 63.2654 6.07702 63.2668C6.07747 63.2675 6.07788 63.2681 6.0781 63.2685C6.07842 63.269 6.07866 63.2693 6.50001 63.0001ZM29.6733 10.4691C41.1024 6.24529 57.9171 3.81085 76.7523 2.54579C95.5754 1.28154 116.372 1.18757 135.739 1.62489C155.105 2.06218 173.035 3.03051 186.124 3.88956C192.668 4.31908 198.001 4.72125 201.699 5.01601C203.547 5.16339 204.987 5.28391 205.964 5.36758C206.452 5.40941 206.825 5.44202 207.076 5.46417C207.201 5.47524 207.296 5.4837 207.36 5.48938C207.391 5.49223 207.415 5.49438 207.431 5.49581C207.439 5.49653 207.445 5.49707 207.449 5.49743C207.451 5.49761 207.452 5.49774 207.453 5.49783C207.454 5.49792 207.455 5.49796 207.5 5.00001C207.545 4.50207 207.545 4.50202 207.544 4.50192C207.543 4.50183 207.541 4.50169 207.539 4.50151C207.535 4.50114 207.529 4.50059 207.521 4.49986C207.505 4.49841 207.481 4.49624 207.449 4.49338C207.385 4.48766 207.29 4.47916 207.164 4.46805C206.912 4.44582 206.538 4.41313 206.049 4.37122C205.07 4.2874 203.629 4.16672 201.778 4.01917C198.077 3.72409 192.738 3.32157 186.189 2.89171C173.09 2.03202 155.145 1.06285 135.761 0.625144C116.378 0.187469 95.5496 0.281019 76.6853 1.54804C57.8329 2.81425 40.8977 5.25484 29.3267 9.5311L29.6733 10.4691Z" fill="#828282"/>
</svg>
