<svg width="197" height="145" viewBox="0 0 197 145" fill="none" xmlns="http://www.w3.org/2000/svg">
<path d="M172 144.512C172.007 144.788 172.236 145.007 172.512 145L177.011 144.889C177.287 144.882 177.505 144.653 177.498 144.377C177.492 144.101 177.262 143.883 176.986 143.889L172.988 143.988L172.889 139.989C172.882 139.713 172.653 139.495 172.377 139.502C172.101 139.508 171.883 139.738 171.889 140.014L172 144.512ZM0.5 13.5002C0.639246 13.9804 0.639643 13.9803 0.640552 13.98C0.641538 13.9797 0.642958 13.9793 0.644927 13.9787C0.648863 13.9776 0.654838 13.9759 0.662838 13.9736C0.678837 13.969 0.702935 13.962 0.735026 13.9529C0.799207 13.9345 0.895355 13.9072 1.02261 13.8714C1.27712 13.7998 1.65605 13.6942 2.15253 13.559C3.14549 13.2885 4.6086 12.8992 6.4868 12.4244C10.2433 11.4748 15.6598 10.1835 22.2961 8.81804C35.5701 6.08676 53.7173 3.05989 73.2178 1.87426C92.722 0.688414 113.557 1.34605 132.216 5.96988C150.874 10.5936 167.315 19.1724 178.098 33.7969L178.902 33.2035C167.935 18.328 151.251 9.65673 132.456 4.99924C113.662 0.341824 92.7155 -0.313041 73.1572 0.876105C53.5952 2.06547 35.3987 5.10109 22.0945 7.83855C15.4418 9.20744 10.0106 10.5021 6.24172 11.4549C4.35723 11.9312 2.8882 12.3222 1.8897 12.5942C1.39045 12.7302 1.00883 12.8364 0.751713 12.9088C0.623154 12.945 0.525721 12.9727 0.460275 12.9914C0.427552 13.0007 0.402825 13.0078 0.386203 13.0126C0.377891 13.015 0.371606 13.0168 0.36736 13.018C0.365237 13.0186 0.363586 13.0191 0.362523 13.0194C0.361383 13.0198 0.360754 13.0199 0.5 13.5002ZM178.098 33.7969C199.732 63.1407 198.234 90.7129 191.339 110.964C187.889 121.098 183.085 129.401 179.142 135.171C177.171 138.056 175.417 140.305 174.156 141.832C173.526 142.596 173.02 143.178 172.672 143.569C172.498 143.765 172.363 143.912 172.273 144.01C172.228 144.059 172.194 144.096 172.171 144.12C172.159 144.132 172.151 144.141 172.145 144.147C172.143 144.15 172.141 144.152 172.139 144.154C172.139 144.154 172.138 144.155 172.138 144.155C172.138 144.155 172.138 144.155 172.5 144.5C172.862 144.845 172.863 144.844 172.863 144.844C172.863 144.843 172.864 144.843 172.865 144.842C172.867 144.84 172.869 144.837 172.873 144.834C172.879 144.827 172.888 144.817 172.901 144.804C172.925 144.778 172.961 144.739 173.008 144.688C173.103 144.586 173.241 144.434 173.419 144.234C173.775 143.835 174.289 143.242 174.928 142.469C176.205 140.922 177.977 138.648 179.968 135.735C183.947 129.912 188.799 121.527 192.286 111.286C199.266 90.7873 200.768 62.8596 178.902 33.2035L178.098 33.7969Z" fill="#828282"/>
</svg>
