<svg width="207" height="58" viewBox="0 0 207 58" fill="none" xmlns="http://www.w3.org/2000/svg">
<path d="M204.982 0.868563C204.91 0.602151 204.635 0.445082 204.368 0.51774L200.027 1.70177C199.761 1.77443 199.604 2.0493 199.676 2.31571C199.749 2.58212 200.024 2.73919 200.29 2.66653L204.149 1.61406L205.202 5.47312C205.274 5.73953 205.549 5.8966 205.816 5.82394C206.082 5.75128 206.239 5.47641 206.166 5.21L204.982 0.868563ZM0.5 13.5001C0.216736 13.9121 0.217091 13.9124 0.217719 13.9128C0.218295 13.9132 0.219198 13.9138 0.220348 13.9146C0.222647 13.9162 0.22604 13.9185 0.230521 13.9216C0.239483 13.9277 0.252797 13.9369 0.270419 13.9489C0.305663 13.973 0.358141 14.0087 0.4275 14.0557C0.566219 14.1498 0.772469 14.289 1.04344 14.4701C1.58538 14.8324 2.38623 15.3623 3.42351 16.0341C5.49805 17.3776 8.51853 19.2889 12.3052 21.5616C19.8779 26.1069 30.5179 32.0997 42.7866 37.8898C67.2983 49.4578 98.4106 60.2652 124.562 56.9963L124.438 56.004C98.5894 59.2351 67.7017 48.5424 43.2134 36.9854C30.9821 31.213 20.3721 25.2371 12.8198 20.7042C9.04397 18.4379 6.0332 16.5328 3.96711 15.1947C2.93408 14.5257 2.13728 13.9984 1.59914 13.6388C1.33007 13.4589 1.12568 13.321 0.98876 13.2281C0.920302 13.1817 0.868714 13.1465 0.834348 13.1231C0.817165 13.1113 0.804287 13.1025 0.795759 13.0967C0.791494 13.0938 0.788317 13.0916 0.786233 13.0901C0.785191 13.0894 0.784449 13.0889 0.783927 13.0886C0.783459 13.0882 0.783264 13.0881 0.5 13.5001ZM124.562 56.9963C150.707 53.7281 170.802 39.7782 184.348 26.6719C191.122 20.117 196.265 13.7663 199.716 9.0533C201.441 6.69652 202.744 4.74849 203.616 3.38816C204.052 2.70797 204.381 2.17465 204.601 1.81055C204.711 1.6285 204.794 1.48875 204.849 1.39409C204.877 1.34676 204.898 1.31071 204.912 1.28628C204.919 1.27406 204.925 1.26475 204.928 1.25839C204.93 1.25521 204.932 1.25276 204.932 1.25106C204.933 1.25021 204.933 1.24949 204.934 1.24907C204.934 1.24854 204.934 1.24819 204.5 1.00012C204.066 0.752053 204.066 0.752082 204.066 0.752297C204.066 0.752618 204.065 0.753019 204.065 0.753659C204.064 0.754938 204.063 0.756958 204.061 0.759715C204.058 0.765229 204.053 0.773688 204.047 0.785048C204.034 0.807769 204.014 0.842095 203.987 0.887678C203.933 0.978843 203.853 1.11503 203.745 1.29346C203.529 1.65031 203.205 2.17606 202.774 2.84841C201.912 4.19316 200.621 6.12404 198.909 8.46257C195.485 13.1402 190.378 19.4458 183.652 25.9533C170.198 38.9721 150.293 52.7721 124.438 56.004L124.562 56.9963Z" fill="#828282"/>
</svg>
