<svg width="163" height="39" viewBox="0 0 163 39" fill="none" xmlns="http://www.w3.org/2000/svg">
<path d="M0.0400391 30.6962C-0.0682373 30.4421 0.0499268 30.1484 0.303955 30.0402L4.4436 28.2757C4.69763 28.1674 4.99135 28.2856 5.09961 28.5396C5.20789 28.7937 5.08974 29.0874 4.83571 29.1956L1.15601 30.764L2.72441 34.4437C2.83267 34.6978 2.71452 34.9915 2.46049 35.0997C2.20647 35.208 1.91275 35.0899 1.80447 34.8358L0.0400391 30.6962ZM162 0.500122C162.168 0.970993 162.168 0.971035 162.168 0.971125C162.168 0.971218 162.167 0.971356 162.167 0.971542C162.166 0.971916 162.164 0.97248 162.162 0.973234C162.158 0.974741 162.151 0.977008 162.143 0.98003C162.126 0.986075 162.101 0.995142 162.067 1.0072C162 1.03133 161.899 1.06743 161.766 1.11528C161.5 1.21098 161.104 1.35367 160.585 1.54153C159.548 1.91724 158.019 2.4736 156.055 3.19595C152.127 4.64067 146.457 6.74936 139.491 9.40483C125.557 14.7159 106.438 22.2137 85.6943 30.9608L85.3057 30.0394C106.062 21.2866 125.193 13.7844 139.134 8.47041C146.105 5.81339 151.779 3.70332 155.71 2.25742C157.676 1.53446 159.206 0.977538 160.245 0.601295C160.764 0.413174 161.161 0.270222 161.428 0.174271C161.561 0.126296 161.662 0.0900705 161.73 0.0658242C161.763 0.053701 161.789 0.0445726 161.806 0.0384676C161.815 0.0354151 161.821 0.0331184 161.825 0.0315811C161.827 0.0308125 161.829 0.0302337 161.83 0.0298452C161.831 0.029651 161.831 0.0295025 161.831 0.0294053C161.832 0.0293044 161.832 0.0292511 162 0.500122ZM85.6943 30.9608C64.8332 39.7577 43.4845 39.7526 27.37 37.558C19.3102 36.4604 12.5516 34.814 7.80638 33.4414C5.43355 32.755 3.56348 32.1369 2.28513 31.6899C1.64594 31.4663 1.15463 31.2855 0.822311 31.1603C0.656158 31.0976 0.529739 31.0489 0.444458 31.0156C0.40181 30.999 0.369461 30.9863 0.347549 30.9776C0.336594 30.9733 0.328262 30.9699 0.322556 30.9677C0.319717 30.9665 0.31752 30.9657 0.315994 30.965C0.315231 30.9647 0.314575 30.9645 0.314194 30.9643C0.313705 30.9641 0.313385 30.964 0.5 30.5001C0.686615 30.0363 0.68663 30.0363 0.686798 30.0363C0.687088 30.0364 0.687424 30.0366 0.687988 30.0368C0.689102 30.0373 0.690887 30.038 0.693329 30.0389C0.698196 30.0409 0.705704 30.0439 0.71582 30.0479C0.736053 30.0559 0.766724 30.068 0.807648 30.0839C0.889511 30.1158 1.01242 30.1632 1.175 30.2245C1.50015 30.3471 1.98395 30.5251 2.61526 30.7459C3.87793 31.1875 5.73051 31.7999 8.08424 32.4807C12.7922 33.8425 19.5023 35.4773 27.505 36.5672C43.5155 38.7476 64.6668 38.7425 85.3057 30.0394L85.6943 30.9608Z" fill="#828282"/>
</svg>
