<svg width="91" height="69" viewBox="0 0 91 69" fill="none" xmlns="http://www.w3.org/2000/svg">
<path d="M67.954 30.2907C67.8383 30.0399 67.5412 29.9305 67.2905 30.0462L63.2046 31.932C62.9539 32.0477 62.8445 32.3447 62.9602 32.5955C63.0759 32.8462 63.373 32.9556 63.6237 32.8399L67.2555 31.1637L68.9318 34.7955C69.0475 35.0463 69.3445 35.1557 69.5953 35.04C69.846 34.9243 69.9554 34.6272 69.8397 34.3765L67.954 30.2907ZM3.09721 1.00012C2.66094 0.755862 2.66072 0.756253 2.66045 0.75673C2.6603 0.757004 2.65999 0.757568 2.65968 0.758115C2.65907 0.759211 2.65827 0.760649 2.65729 0.76243C2.65532 0.765991 2.65261 0.770918 2.64919 0.777197C2.64235 0.789755 2.63265 0.80772 2.62033 0.830969C2.59569 0.877466 2.56056 0.945116 2.51679 1.03294C2.42926 1.20856 2.30709 1.465 2.16512 1.79442C1.88128 2.45301 1.51767 3.40473 1.19358 4.58665C0.545832 6.94887 0.0525229 10.2433 0.680612 13.9585C1.94436 21.4336 7.71069 30.426 25.3259 36.9688L25.6741 36.0314C8.28932 29.5742 2.85427 20.8167 1.66662 13.7918C1.06901 10.2569 1.5375 7.11387 2.15798 4.8511C2.46799 3.72052 2.81511 2.81286 3.08346 2.1902C3.21758 1.87899 3.33188 1.63934 3.41178 1.47902C3.45173 1.39888 3.48306 1.3386 3.50396 1.29916C3.51441 1.27944 3.52225 1.26493 3.52724 1.25576C3.52974 1.25118 3.53153 1.24793 3.53258 1.24602C3.53311 1.24507 3.53345 1.24446 3.5336 1.24419C3.53368 1.24405 3.53365 1.2441 3.53369 1.24403C3.53361 1.24416 3.53349 1.24438 3.09721 1.00012ZM25.3259 36.9688C42.9083 43.4994 53.5628 42.0294 59.8522 38.8205C62.991 37.2191 65.0154 35.1975 66.257 33.5689C66.8774 32.7551 67.3023 32.0397 67.5734 31.5239C67.709 31.2659 67.8063 31.0576 67.8705 30.9117C67.9026 30.8387 67.9264 30.7813 67.9427 30.741C67.9508 30.7209 67.957 30.705 67.9614 30.6936C67.9636 30.6879 67.9653 30.6833 67.9666 30.6799C67.9673 30.6782 67.9678 30.6767 67.9682 30.6756C67.9684 30.675 67.9687 30.6744 67.9688 30.6741C67.969 30.6735 67.9692 30.673 67.5 30.5002C67.0308 30.3273 67.031 30.327 67.0311 30.3267C67.0311 30.3267 67.0311 30.3265 67.0311 30.3265C67.0311 30.3265 67.031 30.3268 67.0308 30.3274C67.0304 30.3285 67.0295 30.3308 67.0282 30.3342C67.0256 30.341 67.0212 30.3522 67.015 30.3676C67.0026 30.3984 66.9829 30.4461 66.9552 30.5091C66.8997 30.6351 66.8124 30.8224 66.6883 31.0585C66.4399 31.531 66.0444 32.1984 65.4617 32.9627C64.297 34.4904 62.3839 36.4062 59.3977 37.9298C53.4372 40.9709 43.0917 42.5008 25.6741 36.0314L25.3259 36.9688Z" fill="#828282"/>
</svg>
