<svg width="244" height="88" viewBox="0 0 244 88" fill="none" xmlns="http://www.w3.org/2000/svg">
<path d="M0.351492 45.5227C0.0878109 45.6047 -0.059455 45.8849 0.0225639 46.1486L1.35914 50.4456C1.44116 50.7092 1.7214 50.8565 1.98508 50.7745C2.24876 50.6925 2.39603 50.4122 2.31401 50.1485L1.12594 46.329L4.94543 45.141C5.20911 45.059 5.35638 44.7787 5.27436 44.515C5.19234 44.2514 4.9121 44.1041 4.64842 44.1861L0.351492 45.5227ZM243 0.500122C242.516 0.374423 242.516 0.374323 242.516 0.37437C242.516 0.374581 242.516 0.374774 242.516 0.375195C242.516 0.376038 242.515 0.377466 242.515 0.379476C242.514 0.383495 242.512 0.389844 242.51 0.398503C242.505 0.415822 242.498 0.44238 242.488 0.478026C242.468 0.549319 242.438 0.656962 242.395 0.799738C242.311 1.08529 242.18 1.51136 241.994 2.0682C241.621 3.18188 241.03 4.8186 240.156 6.90034C238.408 11.0638 235.531 17.0073 231.016 24.1068C221.986 38.3046 206.406 57.131 180.212 75.5914L180.788 76.4088C207.094 57.8693 222.764 38.9456 231.859 24.6434C236.407 17.4929 239.31 11.4989 241.078 7.2874C241.962 5.18164 242.562 3.52149 242.942 2.38517C243.132 1.81701 243.267 1.3798 243.354 1.08332C243.398 0.935079 243.43 0.822019 243.452 0.745362C243.462 0.707034 243.47 0.677806 243.475 0.657832C243.478 0.647845 243.48 0.640171 243.482 0.634829C243.482 0.632159 243.483 0.630071 243.483 0.628569C243.483 0.627818 243.484 0.627131 243.484 0.626755C243.484 0.626215 243.484 0.625821 243 0.500122ZM180.212 75.5914C167.22 84.7475 149.541 87.4982 130.254 86.4228C110.977 85.3479 90.1614 80.4544 70.9629 74.3983C51.7678 68.3432 34.2082 61.1323 21.446 55.4342C15.0655 52.5854 9.88541 50.1153 6.30119 48.3578C4.5091 47.4791 3.11605 46.7785 2.17145 46.2979C1.69916 46.0576 1.33899 45.8722 1.09711 45.7471C0.976177 45.6845 0.884817 45.637 0.823805 45.6052C0.793299 45.5893 0.77038 45.5773 0.755145 45.5693C0.747527 45.5653 0.741831 45.5624 0.738067 45.5604C0.736185 45.5594 0.734815 45.5587 0.733873 45.5582C0.732987 45.5577 0.732587 45.5575 0.5 46.0001C0.267413 46.4427 0.267985 46.443 0.269042 46.4436C0.270042 46.4441 0.271585 46.4449 0.273582 46.446C0.277576 46.4481 0.283504 46.4512 0.291354 46.4553C0.307053 46.4635 0.33044 46.4757 0.361418 46.4919C0.423372 46.5242 0.51569 46.5722 0.637598 46.6353C0.881413 46.7614 1.24359 46.9478 1.71795 47.1892C2.66667 47.6719 4.06414 48.3747 5.86092 49.2557C9.45443 51.0177 14.6454 53.493 21.0383 56.3473C33.8231 62.0555 51.4197 69.282 70.6621 75.352C89.9011 81.4208 110.805 86.3399 130.199 87.4212C149.584 88.5021 167.53 85.7528 180.788 76.4088L180.212 75.5914Z" fill="#828282"/>
</svg>
