<svg width="110" height="206" viewBox="0 0 110 206" fill="none" xmlns="http://www.w3.org/2000/svg">
<path d="M109.52 205.5C109.796 205.488 110.011 205.256 110 204.98L109.817 200.483C109.806 200.208 109.573 199.993 109.297 200.004C109.021 200.015 108.807 200.248 108.818 200.524L108.98 204.521L104.983 204.683C104.708 204.694 104.493 204.927 104.504 205.203C104.515 205.479 104.748 205.693 105.024 205.682L109.52 205.5ZM45.5001 0.500122C45.4669 0.00122941 45.4664 0.00125909 45.4658 0.00130072C45.4654 0.00133011 45.4646 0.00138378 45.4637 0.00144342C45.462 0.00156277 45.4596 0.0017311 45.4565 0.00195098C45.4503 0.00239074 45.4414 0.00303686 45.4298 0.00391063C45.4067 0.00565815 45.3729 0.00831628 45.3288 0.0120554C45.2406 0.0195336 45.1111 0.0313364 44.943 0.0488271C44.6069 0.083807 44.1165 0.141546 43.4939 0.232959C42.2488 0.415763 40.474 0.733365 38.3459 1.27327C34.0914 2.35264 28.4146 4.32306 22.7342 7.88909C11.3476 15.0373 -3.11732e-05 28.5674 0 54H1C0.999969 28.9326 12.1524 15.7128 23.2659 8.73603C28.8355 5.23959 34.4088 3.30379 38.5918 2.24256C40.6825 1.71216 42.4233 1.40087 43.6392 1.22235C44.247 1.1331 44.7234 1.07708 45.0465 1.04346C45.208 1.02665 45.3312 1.01544 45.4133 1.00848C45.4543 1.005 45.4851 1.00259 45.5052 1.00107C45.5153 1.00031 45.5227 0.999769 45.5274 0.999434C45.5297 0.999267 45.5314 0.99915 45.5324 0.999081C45.5329 0.999046 45.5332 0.99903 45.5334 0.999013C45.5335 0.999008 45.5334 0.999015 45.5001 0.500122ZM0 54C1.56462e-05 66.7739 6.88006 82.6263 17.106 99.1614C27.3446 115.717 40.9888 133.037 54.6222 148.765C68.2574 164.495 81.8911 178.645 92.1153 188.861C97.2277 193.97 101.488 198.096 104.471 200.945C105.962 202.369 107.135 203.474 107.934 204.224C108.334 204.598 108.64 204.884 108.847 205.076C108.95 205.172 109.029 205.245 109.081 205.294C109.108 205.318 109.128 205.337 109.141 205.349C109.148 205.355 109.153 205.36 109.156 205.363C109.158 205.364 109.159 205.366 109.16 205.366C109.161 205.367 109.161 205.368 109.5 205C109.839 204.632 109.839 204.632 109.838 204.631C109.837 204.631 109.836 204.629 109.834 204.628C109.831 204.625 109.826 204.62 109.819 204.614C109.806 204.602 109.787 204.584 109.761 204.56C109.709 204.512 109.631 204.44 109.528 204.344C109.322 204.153 109.016 203.868 108.618 203.494C107.821 202.747 106.651 201.644 105.162 200.221C102.184 197.377 97.9286 193.257 92.8222 188.154C82.6089 177.949 68.9927 163.817 55.3778 148.11C41.7612 132.401 28.1554 115.127 17.9565 98.6354C7.74499 82.1237 1.00002 66.4761 1 54H0Z" fill="#828282"/>
</svg>
