<svg width="338" height="66" fill="none" xmlns="http://www.w3.org/2000/svg"><g clip-path="url(#clip0)"><path d="M269.305 33.464c-1.567 2.447-3.132 4.892-4.698 7.335a24.44 24.44 0 01-1.548 2.285c-1.651 2.021-3.89 2.033-5.512-.036-.976-1.25-1.759-2.643-2.622-3.984-1.251-1.944-2.498-3.894-4.143-5.744-.034.625-.099 1.247-.099 1.872v12.574c.033.67.004 1.34-.086 2.004a3.34 3.34 0 01-3.147 2.761 3.23 3.23 0 01-3.393-2.417 9.218 9.218 0 01-.279-2.475c-.018-8.3-.018-16.598 0-24.896a8.857 8.857 0 01.214-2.237c.719-2.735 3.702-3.526 5.667-1.507.557.625 1.05 1.303 1.472 2.026 2.569 4.023 5.114 8.06 7.669 12.084.437.682.932 1.328 1.527 2.162.599-.874 1.076-1.533 1.512-2.215 2.655-4.165 5.273-8.35 7.959-12.497 1.539-2.387 2.842-3.045 4.654-2.507 1.656.48 2.334 1.764 2.336 4.492V47.94c.028.587.004 1.175-.071 1.757a3.335 3.335 0 01-3.097 2.814c-1.598.11-2.974-.752-3.434-2.343a10.033 10.033 0 01-.302-2.723c-.029-4.6-.012-9.2-.012-13.8l-.573-.19M141.627 49.818c-3.978 3.165-8.148 3.52-12.438 1.62-4.375-1.94-6.47-5.645-7.005-10.272a14.746 14.746 0 011.323-8.32c3.672-7.553 12.966-8.281 17.435-4.457.243.175.497.335.759.48a14.66 14.66 0 011.098-1.557c1.802-1.969 4.756-1.344 5.606 1.19a5.6 5.6 0 01.271 1.723c.019 6.032.019 12.064 0 18.096a6.047 6.047 0 01-.24 1.728c-.81 2.643-3.885 3.333-5.752 1.293-.383-.418-.656-.937-1.064-1.533l.007.01zm.188-10.475c0-4.125-2.51-6.946-6.215-7.004-3.76-.06-6.569 2.925-6.583 6.991-.014 4.103 2.696 6.97 6.571 6.929 3.784-.031 6.231-2.745 6.231-6.916m56.921-10.395c1.513-2.418 2.758-3.141 4.427-2.643 1.734.507 2.423 1.725 2.427 4.424.014 5.705.014 11.41 0 17.114a14.71 14.71 0 01-.064 1.756c-.171 1.373-.907 2.334-2.234 2.747-1.407.438-2.656.123-3.631-1.007-.37-.485-.713-.99-1.026-1.514-2.459 2.057-5.241 2.985-8.387 2.672-5.246-.521-9.009-3.604-10.545-8.663a15.232 15.232 0 01-.085-8.68c2.524-9.066 12.904-11.536 19.123-6.196l-.005-.01zm-12.767 10.488c.034 4.052 2.833 6.91 6.711 6.842 3.731-.067 6.267-2.92 6.231-7-.045-4.029-2.71-6.92-6.378-6.92-3.735 0-6.58 3.077-6.544 7.078m116.622 10.373c-4.357 3.364-8.853 3.65-13.344 1.184-4.767-2.614-6.432-7.14-6.231-12.312a15.574 15.574 0 011.555-6.02c3.198-6.563 11.326-8.49 17.294-4.277.261.185.527.36.793.543.407-.61.719-1.228 1.163-1.704.864-.906 1.959-1.298 3.199-.942 1.308.375 2.176 1.235 2.396 2.614a11.1 11.1 0 01.089 1.757v17.364c0 .334 0 .67-.015 1.007-.036 1.574-.694 2.749-2.221 3.3-1.483.538-2.859.062-3.954-1.342-.265-.378-.512-.77-.736-1.172h.012zm.206-10.334c.062-4.13-2.668-7.16-6.418-7.133-3.648.029-6.432 2.965-6.504 6.866-.074 4.052 2.667 7.032 6.49 7.053 3.784.022 6.375-2.713 6.432-6.786zM219.874 28.52c2.179-1.557 4.433-2.357 6.937-2.36 4.976 0 8.868 3.168 9.225 8.113.353 5.011.197 10.063.129 15.095-.026 1.923-1.461 3.139-3.237 3.17-1.85.03-3.324-1.283-3.384-3.304-.101-3.437-.029-6.878-.052-10.32.027-.92-.03-1.841-.168-2.752-.479-2.477-2.428-4.015-4.794-3.886-2.533.137-4.406 1.923-4.484 4.523-.1 3.44-.031 6.88-.043 10.322.031.754.004 1.51-.078 2.26-.322 2.052-1.717 3.241-3.579 3.138-1.862-.103-3.089-1.41-3.244-3.492-.032-.418-.015-.839-.015-1.26V30.903a9.74 9.74 0 01.093-2.005 3.317 3.317 0 012.197-2.53 3.303 3.303 0 013.275.685c.434.377.752.889 1.229 1.468M166.343 32.5c-2.91 0-5.239.014-7.565 0a9.86 9.86 0 01-2.235-.19 2.709 2.709 0 01-2.18-2.704 2.908 2.908 0 01.573-1.76c.377-.507.91-.878 1.517-1.054.153-.059.315-.094.479-.106 5.344 0 10.693-.108 16.035.039 2.215.062 3.26 2.24 2.293 4.249-.283.512-.623.99-1.013 1.427-.889 1.11-1.798 2.206-2.697 3.307-2.271 2.791-4.542 5.582-6.81 8.373-.458.565-.87 1.168-1.625 2.185h6.284c1.336 0 2.679-.07 4.006.048 1.652.144 2.611 1.252 2.637 2.804.019 1.48-.767 2.495-2.308 2.831a9.434 9.434 0 01-1.987.161c-4.597.012-9.191 0-13.785 0h-.752c-1.309-.036-2.521-.317-3.163-1.617-.682-1.382-.241-2.579.692-3.696 3.246-3.938 6.482-7.885 9.706-11.841.518-.632 1-1.288 1.893-2.447m-59.618 1.728l8.003 9.267c1.038 1.202 2.112 2.377 3.115 3.605 1.28 1.596 1.242 3.278-.016 4.491-1.325 1.28-3.243 1.265-4.679-.273-2.279-2.447-4.429-5.014-6.629-7.532-1.979-2.269-3.975-4.52-5.926-6.814-1.886-2.215-1.893-3.352.029-5.445 3.679-4.002 7.396-7.967 11.107-11.937a7.53 7.53 0 011.295-1.173 3.061 3.061 0 013.904.361 3.087 3.087 0 01.366 3.915 14.05 14.05 0 01-1.461 1.715c-2.948 3.19-5.906 6.369-9.108 9.81m224.354-1.297c0-5.025.108-10.052-.045-15.075-.082-2.68 1.274-4.51 3.549-4.473 2.157.039 3.393 1.539 3.402 4.372.026 10.135.026 20.27 0 30.406a6.86 6.86 0 01-.275 1.973c-.495 1.605-1.807 2.487-3.402 2.391a3.331 3.331 0 01-3.14-2.764 10.869 10.869 0 01-.089-2V32.936m-14.272.033V18.403c-.022-.67 0-1.34.065-2.007.239-1.889 1.55-3.038 3.368-3.023 1.82.014 3.078 1.187 3.31 3.1.053.583.07 1.169.051 1.754V47.61c.03.753-.009 1.507-.118 2.252a3.365 3.365 0 01-1.192 1.903 3.35 3.35 0 01-5.372-1.98c-.1-.746-.136-1.5-.108-2.252-.009-4.854-.009-9.709 0-14.563M97.743 35.452v12.305c.027.751-.023 1.503-.148 2.244-.314 1.478-1.541 2.44-3.044 2.519-1.572.082-3.038-.885-3.417-2.387a9.19 9.19 0 01-.175-2.242c-.01-8.453-.01-16.906 0-25.359a10.46 10.46 0 01.117-2c.34-1.682 1.719-2.693 3.46-2.614 1.621.075 2.858 1.094 3.102 2.73.11.997.147 2.001.113 3.004v11.8" fill="#333"/><path fill-rule="evenodd" clip-rule="evenodd" d="M72 30.594c-.38-1.46-1.031-2.808-1.76-4.113a527.763 527.763 0 00-4.236-7.44 484.058 484.058 0 00-3.385-5.787 12.136 12.136 0 00-2.284-2.854c-1.5-1.344-3.223-1.834-5.184-1.296a8.329 8.329 0 00-2.68 1.37c-1.043.76-1.959 1.654-2.866 2.562-2.844 2.854-5.688 5.71-8.53 8.568-1.66 1.671-3.32 3.34-4.958 5.031-1.001 1.034-1.883 2.164-2.487 3.488-.874 1.913-.894 3.835-.01 5.74a9.943 9.943 0 001.082 1.827c.63.829 1.313 1.617 2.042 2.361 4.295 4.349 8.605 8.685 12.928 13.008.64.641 1.283 1.219 1.966 1.81.928.804 1.98 1.516 3.154 1.915 1.95.661 3.723.342 5.312-.977.297-.244.578-.506.841-.785a15.211 15.211 0 002.06-2.863 2014.15 2014.15 0 006.403-11.106 52.052 52.052 0 001.857-3.576c.692-1.4 1.053-2.94 1.056-4.503 0-.804-.109-1.605-.322-2.38zm-53.2 2.539c-.011-2.559.035-4.69.038-5.345.012-2.479.072-4.95.084-7.43 0-1.056 0-2.09-.012-3.15-.008-.533-.024-1.086-.024-1.62a14.712 14.712 0 00-.33-3.387c-.226-.955-.62-1.877-1.308-2.602-1.003-1.054-2.344-1.276-3.667-.676a5.808 5.808 0 00-1.892 1.444c-.761.86-1.429 1.8-1.991 2.803-2.443 4.223-4.878 8.45-7.306 12.68a24.416 24.416 0 00-1.77 3.723 9.582 9.582 0 00-.057 6.639c.43 1.21.96 2.383 1.584 3.506 2.314 4.07 4.65 8.078 6.98 12.14a26.435 26.435 0 002.125 3.267c.46.606 1.108 1.305 1.88 1.747 1.025.587 2.084.758 3.18.225a3.7 3.7 0 001.651-1.69c.551-1.045.738-2.213.854-3.463.033-.544.041-.889.058-1.398.055-1.698.065-3.434.058-5.13-.012-2.575-.118-8.056-.136-12.282v-.001zM49.114 57.83a46.143 46.143 0 00-2.531-2.838 3815 3815 0 00-12.822-12.865 50.07 50.07 0 00-2.382-2.22 8.754 8.754 0 00-2.849-1.713c-1.707-.605-3.313-.22-4.442 1.066a5.329 5.329 0 00-1.008 1.81c-.381 1.098-.524 2.331-.54 3.483a382.477 382.477 0 00-.035 7.397c.009 1.815.064 3.63.122 5.445a14.2 14.2 0 00.447 3.182c.563 2.127 1.778 3.71 3.83 4.58a8.946 8.946 0 002.125.577 25.01 25.01 0 003.78.26h8.763a33.23 33.23 0 004.101-.18c1.054-.125 2.07-.374 2.992-.928 1.496-.897 2.175-2.469 1.821-4.19a6.578 6.578 0 00-1.372-2.866zM22.73 23.4c.15.948.393 1.87.894 2.688.604.984 1.437 1.683 2.582 1.902.954.184 1.906 0 2.797-.397a10.951 10.951 0 002.938-2.006 87.685 87.685 0 002.506-2.425c4.264-4.28 8.523-8.562 12.777-12.842a17.946 17.946 0 002.125-2.476 7.01 7.01 0 001.076-2.25c.367-1.564.06-3.072-1.294-4.163a5.58 5.58 0 00-1.297-.746C46.855.26 45.466.15 44.565.088c-1.181-.08-2.353-.067-3.513-.08-1.205-.015-7.833-.01-10.06.031-.965.018-1.923.145-2.859.38-2.668.661-4.35 2.331-5.046 5.008-.402 1.55-.495 3.136-.516 4.726-.026 1.97-.064 3.98-.07 5.95 0 1.223.02 2.407.018 3.63-.001 1.223.012 2.452.21 3.668z" fill="url(#paint0_linear)"/></g><defs><linearGradient id="paint0_linear" x1="12.548" y1="9.493" x2="59.801" y2="56.614" gradientUnits="userSpaceOnUse"><stop stop-color="#FF8519"/><stop offset="1" stop-color="#FD238A"/></linearGradient><clipPath id="clip0"><path fill="#fff" d="M0 0h338v66H0z"/></clipPath></defs></svg>