<svg width="40" height="40" viewBox="0 0 40 40" fill="none" xmlns="http://www.w3.org/2000/svg">
<path d="M19.1663 10.9376C20.2714 10.9376 21.3312 11.3492 22.1126 12.0817C22.894 12.8143 23.333 13.8079 23.333 14.8439C23.333 15.8799 22.894 16.8734 22.1126 17.606C21.3312 18.3386 20.2714 18.7501 19.1663 18.7501C18.0613 18.7501 17.0015 18.3386 16.2201 17.606C15.4387 16.8734 14.9997 15.8799 14.9997 14.8439C14.9997 13.8079 15.4387 12.8143 16.2201 12.0817C17.0015 11.3492 18.0613 10.9376 19.1663 10.9376ZM19.1663 12.5001C18.5033 12.5001 17.8674 12.747 17.3986 13.1866C16.9297 13.6261 16.6663 14.2223 16.6663 14.8439C16.6663 15.4655 16.9297 16.0616 17.3986 16.5011C17.8674 16.9407 18.5033 17.1876 19.1663 17.1876C19.8294 17.1876 20.4653 16.9407 20.9341 16.5011C21.4029 16.0616 21.6663 15.4655 21.6663 14.8439C21.6663 14.2223 21.4029 13.6261 20.9341 13.1866C20.4653 12.747 19.8294 12.5001 19.1663 12.5001ZM11.333 19.3079L19.1663 31.3861L26.9997 19.3079C27.8445 18.0048 28.3042 16.5144 28.3317 14.9897C28.3592 13.465 27.9534 11.9609 27.156 10.6317C26.3586 9.30261 25.1984 8.19633 23.7943 7.42644C22.3902 6.65655 20.7929 6.25079 19.1663 6.25079C17.5397 6.25079 15.9424 6.65655 14.5384 7.42644C13.1343 8.19633 11.974 9.30261 11.1767 10.6317C10.3793 11.9609 9.9735 13.465 10.001 14.9897C10.0285 16.5144 10.4882 18.0048 11.333 19.3079ZM28.423 20.1204L19.1663 34.3939L9.90967 20.1204C8.91154 18.5803 8.36847 16.819 8.3362 15.0172C8.30392 13.2154 8.78361 11.438 9.72602 9.86733C10.6684 8.2967 12.0396 6.98943 13.6989 6.07967C15.3582 5.16991 17.2458 4.69043 19.168 4.69043C21.0902 4.69043 22.9778 5.16991 24.6371 6.07967C26.2964 6.98943 27.6676 8.2967 28.61 9.86733C29.5524 11.438 30.0321 13.2154 29.9998 15.0172C29.9675 16.819 29.4245 18.5803 28.4263 20.1204H28.423Z" fill="url(#paint0_linear)"/>
<defs>
<linearGradient id="paint0_linear" x1="8.33467" y1="19.5421" x2="30.0013" y2="19.5421" gradientUnits="userSpaceOnUse">
<stop stop-color="#E30613"/>
<stop offset="1" stop-color="#F39200"/>
</linearGradient>
</defs>
</svg>
