<svg width="50" height="50" viewBox="0 0 50 50" fill="none" xmlns="http://www.w3.org/2000/svg">
<path d="M32.1875 23.75H26.25V17.8125C26.25 17.6406 26.1094 17.5 25.9375 17.5H24.0625C23.8906 17.5 23.75 17.6406 23.75 17.8125V23.75H17.8125C17.6406 23.75 17.5 23.8906 17.5 24.0625V25.9375C17.5 26.1094 17.6406 26.25 17.8125 26.25H23.75V32.1875C23.75 32.3594 23.8906 32.5 24.0625 32.5H25.9375C26.1094 32.5 26.25 32.3594 26.25 32.1875V26.25H32.1875C32.3594 26.25 32.5 26.1094 32.5 25.9375V24.0625C32.5 23.8906 32.3594 23.75 32.1875 23.75Z" fill="url(#paint0_linear)"/>
<path d="M25 7.5C15.3359 7.5 7.5 15.3359 7.5 25C7.5 34.6641 15.3359 42.5 25 42.5C34.6641 42.5 42.5 34.6641 42.5 25C42.5 15.3359 34.6641 7.5 25 7.5ZM25 39.5312C16.9766 39.5312 10.4688 33.0234 10.4688 25C10.4688 16.9766 16.9766 10.4688 25 10.4688C33.0234 10.4688 39.5312 16.9766 39.5312 25C39.5312 33.0234 33.0234 39.5312 25 39.5312Z" fill="url(#paint1_linear)"/>
<defs>
<linearGradient id="paint0_linear" x1="17.5" y1="25" x2="32.5" y2="25" gradientUnits="userSpaceOnUse">
<stop stop-color="#E30613"/>
<stop offset="1" stop-color="#F39200"/>
</linearGradient>
<linearGradient id="paint1_linear" x1="7.5" y1="25" x2="42.5" y2="25" gradientUnits="userSpaceOnUse">
<stop stop-color="#E30613"/>
<stop offset="1" stop-color="#F39200"/>
</linearGradient>
</defs>
</svg>
