<svg width="30" height="30" viewBox="0 0 30 30" fill="none" xmlns="http://www.w3.org/2000/svg">
<path d="M15 25.2C9.35999 25.2 4.79999 20.64 4.79999 15C4.79999 9.35999 9.35999 4.79999 15 4.79999C20.64 4.79999 25.2 9.35999 25.2 15C25.2 20.64 20.64 25.2 15 25.2ZM15 5.99999C10.02 5.99999 5.99999 10.02 5.99999 15C5.99999 19.98 10.02 24 15 24C19.98 24 24 19.98 24 15C24 10.02 19.98 5.99999 15 5.99999Z" fill="black"/>
<path d="M11.8798 11.76C12.0598 11.28 12.2398 10.92 12.5998 10.62C12.8998 10.32 13.2598 10.08 13.7398 9.89997C14.2198 9.71997 14.6998 9.65997 15.2398 9.65997C15.6598 9.65997 16.0798 9.71997 16.4398 9.83997C16.7998 9.95997 17.1598 10.14 17.4598 10.38C17.7598 10.62 17.9998 10.92 18.1198 11.28C18.2998 11.64 18.3598 12.06 18.3598 12.48C18.3598 13.08 18.2398 13.56 17.9998 13.98C17.7598 14.4 17.3998 14.76 17.0398 15.18L16.2598 15.96C16.0798 16.14 15.8998 16.32 15.8398 16.5C15.7198 16.68 15.6598 16.92 15.6598 17.16C15.5998 17.4 15.5998 17.58 15.5998 18.06H14.6398C14.6398 17.58 14.6398 17.4 14.6998 17.04C14.7598 16.74 14.8798 16.44 14.9998 16.14C15.1198 15.9 15.2998 15.66 15.5398 15.42C15.7798 15.18 16.0798 14.94 16.3798 14.58C16.6798 14.28 16.9198 13.98 17.0998 13.68C17.2798 13.38 17.3998 12.96 17.3998 12.6C17.3998 12.3 17.3398 12 17.2198 11.76C17.0998 11.52 16.9198 11.28 16.7398 11.1C16.5598 10.92 16.3198 10.8 16.0198 10.68C15.7198 10.56 15.4798 10.5 15.1798 10.5C14.7598 10.5 14.3998 10.56 14.0998 10.74C13.7998 10.86 13.4998 11.1 13.3198 11.34C13.1398 11.58 12.9598 11.88 12.8398 12.24C12.7198 12.6 12.5998 12.78 12.5998 13.2H11.6398C11.6398 12.66 11.6998 12.24 11.8798 11.76V11.76ZM15.5998 19.2V20.4H14.3998V19.2H15.5998Z" fill="black"/>
</svg>
