<svg width="30" height="32" viewBox="0 0 30 32" fill="none" xmlns="http://www.w3.org/2000/svg">
<path d="M3.75 25.7325L8.2325 21.25H22.5C23.163 21.25 23.7989 20.9866 24.2678 20.5178C24.7366 20.0489 25 19.413 25 18.75V7.5C25 6.83696 24.7366 6.20107 24.2678 5.73223C23.7989 5.26339 23.163 5 22.5 5H6.25C5.58696 5 4.95107 5.26339 4.48223 5.73223C4.01339 6.20107 3.75 6.83696 3.75 7.5V25.7325ZM3.75 27.5H2.5V7.5C2.5 6.50544 2.89509 5.55161 3.59835 4.84835C4.30161 4.14509 5.25544 3.75 6.25 3.75H22.5C23.4946 3.75 24.4484 4.14509 25.1517 4.84835C25.8549 5.55161 26.25 6.50544 26.25 7.5V18.75C26.25 19.7446 25.8549 20.6984 25.1517 21.4017C24.4484 22.1049 23.4946 22.5 22.5 22.5H8.75L3.75 27.5ZM7.5 8.75H21.25V10H7.5V8.75ZM7.5 12.5H21.25V13.75H7.5V12.5ZM7.5 16.25H17.5V17.5H7.5V16.25Z" fill="url(#paint0_linear)"/>
<defs>
<linearGradient id="paint0_linear" x1="2.5" y1="15.625" x2="26.25" y2="15.625" gradientUnits="userSpaceOnUse">
<stop stop-color="#E30613"/>
<stop offset="1" stop-color="#F39200"/>
</linearGradient>
</defs>
</svg>
