<svg width="329" height="81" viewBox="0 0 329 81" fill="none" xmlns="http://www.w3.org/2000/svg">
<path d="M149.898 11.2V21H148.876V12.096H142.674V21H141.652V11.2H149.898ZM156.761 13.58C157.451 13.58 158.077 13.7387 158.637 14.056C159.197 14.364 159.635 14.8027 159.953 15.372C160.27 15.9413 160.429 16.59 160.429 17.318C160.429 18.0553 160.27 18.7087 159.953 19.278C159.635 19.8473 159.197 20.2907 158.637 20.608C158.086 20.916 157.461 21.07 156.761 21.07C156.163 21.07 155.622 20.9487 155.137 20.706C154.661 20.454 154.269 20.09 153.961 19.614V23.716H152.967V13.636H153.919V15.092C154.217 14.6067 154.609 14.2333 155.095 13.972C155.589 13.7107 156.145 13.58 156.761 13.58ZM156.691 20.188C157.204 20.188 157.671 20.0713 158.091 19.838C158.511 19.5953 158.837 19.2547 159.071 18.816C159.313 18.3773 159.435 17.878 159.435 17.318C159.435 16.758 159.313 16.2633 159.071 15.834C158.837 15.3953 158.511 15.0547 158.091 14.812C157.671 14.5693 157.204 14.448 156.691 14.448C156.168 14.448 155.697 14.5693 155.277 14.812C154.866 15.0547 154.539 15.3953 154.297 15.834C154.063 16.2633 153.947 16.758 153.947 17.318C153.947 17.878 154.063 18.3773 154.297 18.816C154.539 19.2547 154.866 19.5953 155.277 19.838C155.697 20.0713 156.168 20.188 156.691 20.188ZM165.602 21.07C164.893 21.07 164.254 20.9113 163.684 20.594C163.115 20.2673 162.667 19.8193 162.34 19.25C162.014 18.6807 161.85 18.0367 161.85 17.318C161.85 16.5993 162.014 15.9553 162.34 15.386C162.667 14.8167 163.115 14.3733 163.684 14.056C164.254 13.7387 164.893 13.58 165.602 13.58C166.312 13.58 166.951 13.7387 167.52 14.056C168.09 14.3733 168.533 14.8167 168.85 15.386C169.177 15.9553 169.34 16.5993 169.34 17.318C169.34 18.0367 169.177 18.6807 168.85 19.25C168.533 19.8193 168.09 20.2673 167.52 20.594C166.951 20.9113 166.312 21.07 165.602 21.07ZM165.602 20.188C166.125 20.188 166.592 20.0713 167.002 19.838C167.422 19.5953 167.749 19.2547 167.982 18.816C168.216 18.3773 168.332 17.878 168.332 17.318C168.332 16.758 168.216 16.2587 167.982 15.82C167.749 15.3813 167.422 15.0453 167.002 14.812C166.592 14.5693 166.125 14.448 165.602 14.448C165.08 14.448 164.608 14.5693 164.188 14.812C163.778 15.0453 163.451 15.3813 163.208 15.82C162.975 16.2587 162.858 16.758 162.858 17.318C162.858 17.878 162.975 18.3773 163.208 18.816C163.451 19.2547 163.778 19.5953 164.188 19.838C164.608 20.0713 165.08 20.188 165.602 20.188ZM178.606 20.132V22.778H177.668V21H171.074V22.778H170.136V20.132H170.556C171.05 20.104 171.386 19.74 171.564 19.04C171.741 18.34 171.862 17.36 171.928 16.1L172.026 13.636H177.458V20.132H178.606ZM172.838 16.156C172.791 17.2013 172.702 18.0647 172.572 18.746C172.441 19.418 172.208 19.88 171.872 20.132H176.464V14.518H172.922L172.838 16.156ZM183.077 13.58C184.038 13.58 184.776 13.8227 185.289 14.308C185.802 14.784 186.059 15.4933 186.059 16.436V21H185.107V19.852C184.883 20.2347 184.552 20.5333 184.113 20.748C183.684 20.9627 183.17 21.07 182.573 21.07C181.752 21.07 181.098 20.874 180.613 20.482C180.128 20.09 179.885 19.572 179.885 18.928C179.885 18.3027 180.109 17.7987 180.557 17.416C181.014 17.0333 181.738 16.842 182.727 16.842H185.065V16.394C185.065 15.7593 184.888 15.2787 184.533 14.952C184.178 14.616 183.66 14.448 182.979 14.448C182.512 14.448 182.064 14.5273 181.635 14.686C181.206 14.8353 180.837 15.0453 180.529 15.316L180.081 14.574C180.454 14.2567 180.902 14.014 181.425 13.846C181.948 13.6687 182.498 13.58 183.077 13.58ZM182.727 20.286C183.287 20.286 183.768 20.16 184.169 19.908C184.57 19.6467 184.869 19.2733 185.065 18.788V17.584H182.755C181.495 17.584 180.865 18.0227 180.865 18.9C180.865 19.3293 181.028 19.67 181.355 19.922C181.682 20.1647 182.139 20.286 182.727 20.286ZM195.159 17.724H193.563V21H192.569V17.724H190.973L188.719 21H187.529L190.175 17.206L187.739 13.636H188.817L190.973 16.87H192.569V13.636H193.563V16.87H195.159L197.329 13.636H198.407L195.971 17.22L198.617 21H197.427L195.159 17.724ZM202.669 13.58C203.63 13.58 204.367 13.8227 204.881 14.308C205.394 14.784 205.651 15.4933 205.651 16.436V21H204.699V19.852C204.475 20.2347 204.143 20.5333 203.705 20.748C203.275 20.9627 202.762 21.07 202.165 21.07C201.343 21.07 200.69 20.874 200.205 20.482C199.719 20.09 199.477 19.572 199.477 18.928C199.477 18.3027 199.701 17.7987 200.149 17.416C200.606 17.0333 201.329 16.842 202.319 16.842H204.657V16.394C204.657 15.7593 204.479 15.2787 204.125 14.952C203.77 14.616 203.252 14.448 202.571 14.448C202.104 14.448 201.656 14.5273 201.227 14.686C200.797 14.8353 200.429 15.0453 200.121 15.316L199.673 14.574C200.046 14.2567 200.494 14.014 201.017 13.846C201.539 13.6687 202.09 13.58 202.669 13.58ZM202.319 20.286C202.879 20.286 203.359 20.16 203.761 19.908C204.162 19.6467 204.461 19.2733 204.657 18.788V17.584H202.347C201.087 17.584 200.457 18.0227 200.457 18.9C200.457 19.3293 200.62 19.67 200.947 19.922C201.273 20.1647 201.731 20.286 202.319 20.286ZM211.961 13.636H212.955V19.488L217.869 13.636H218.751V21H217.757V15.148L212.857 21H211.961V13.636ZM231.522 13.636L227.84 21.882C227.541 22.5727 227.196 23.0627 226.804 23.352C226.412 23.6413 225.94 23.786 225.39 23.786C225.035 23.786 224.704 23.73 224.396 23.618C224.088 23.506 223.822 23.338 223.598 23.114L224.06 22.372C224.433 22.7453 224.881 22.932 225.404 22.932C225.74 22.932 226.024 22.8387 226.258 22.652C226.5 22.4653 226.724 22.148 226.93 21.7L227.252 20.986L223.962 13.636H224.998L227.77 19.894L230.542 13.636H231.522ZM235.945 21.07C235.217 21.07 234.564 20.9113 233.985 20.594C233.416 20.2767 232.968 19.8333 232.641 19.264C232.315 18.6853 232.151 18.0367 232.151 17.318C232.151 16.5993 232.315 15.9553 232.641 15.386C232.968 14.8167 233.416 14.3733 233.985 14.056C234.564 13.7387 235.217 13.58 235.945 13.58C236.58 13.58 237.145 13.706 237.639 13.958C238.143 14.2007 238.54 14.56 238.829 15.036L238.087 15.54C237.845 15.176 237.537 14.9053 237.163 14.728C236.79 14.5413 236.384 14.448 235.945 14.448C235.413 14.448 234.933 14.5693 234.503 14.812C234.083 15.0453 233.752 15.3813 233.509 15.82C233.276 16.2587 233.159 16.758 233.159 17.318C233.159 17.8873 233.276 18.3913 233.509 18.83C233.752 19.2593 234.083 19.5953 234.503 19.838C234.933 20.0713 235.413 20.188 235.945 20.188C236.384 20.188 236.79 20.0993 237.163 19.922C237.537 19.7447 237.845 19.474 238.087 19.11L238.829 19.614C238.54 20.09 238.143 20.454 237.639 20.706C237.135 20.9487 236.571 21.07 235.945 21.07ZM245.797 14.518H243.011V21H242.017V14.518H239.231V13.636H245.797V14.518ZM249.768 13.58C250.73 13.58 251.467 13.8227 251.98 14.308C252.494 14.784 252.75 15.4933 252.75 16.436V21H251.798V19.852C251.574 20.2347 251.243 20.5333 250.804 20.748C250.375 20.9627 249.862 21.07 249.264 21.07C248.443 21.07 247.79 20.874 247.304 20.482C246.819 20.09 246.576 19.572 246.576 18.928C246.576 18.3027 246.8 17.7987 247.248 17.416C247.706 17.0333 248.429 16.842 249.418 16.842H251.756V16.394C251.756 15.7593 251.579 15.2787 251.224 14.952C250.87 14.616 250.352 14.448 249.67 14.448C249.204 14.448 248.756 14.5273 248.326 14.686C247.897 14.8353 247.528 15.0453 247.22 15.316L246.772 14.574C247.146 14.2567 247.594 14.014 248.116 13.846C248.639 13.6687 249.19 13.58 249.768 13.58ZM249.418 20.286C249.978 20.286 250.459 20.16 250.86 19.908C251.262 19.6467 251.56 19.2733 251.756 18.788V17.584H249.446C248.186 17.584 247.556 18.0227 247.556 18.9C247.556 19.3293 247.72 19.67 248.046 19.922C248.373 20.1647 248.83 20.286 249.418 20.286ZM255.396 13.636H256.39V16.898H261.024V13.636H262.018V21H261.024V17.752H256.39V21H255.396V13.636ZM267.882 21.07C267.172 21.07 266.533 20.9113 265.964 20.594C265.394 20.2673 264.946 19.8193 264.62 19.25C264.293 18.6807 264.13 18.0367 264.13 17.318C264.13 16.5993 264.293 15.9553 264.62 15.386C264.946 14.8167 265.394 14.3733 265.964 14.056C266.533 13.7387 267.172 13.58 267.882 13.58C268.591 13.58 269.23 13.7387 269.8 14.056C270.369 14.3733 270.812 14.8167 271.13 15.386C271.456 15.9553 271.62 16.5993 271.62 17.318C271.62 18.0367 271.456 18.6807 271.13 19.25C270.812 19.8193 270.369 20.2673 269.8 20.594C269.23 20.9113 268.591 21.07 267.882 21.07ZM267.882 20.188C268.404 20.188 268.871 20.0713 269.282 19.838C269.702 19.5953 270.028 19.2547 270.262 18.816C270.495 18.3773 270.612 17.878 270.612 17.318C270.612 16.758 270.495 16.2587 270.262 15.82C270.028 15.3813 269.702 15.0453 269.282 14.812C268.871 14.5693 268.404 14.448 267.882 14.448C267.359 14.448 266.888 14.5693 266.468 14.812C266.057 15.0453 265.73 15.3813 265.488 15.82C265.254 16.2587 265.138 16.758 265.138 17.318C265.138 17.878 265.254 18.3773 265.488 18.816C265.73 19.2547 266.057 19.5953 266.468 19.838C266.888 20.0713 267.359 20.188 267.882 20.188ZM278.434 17.192C279.433 17.4253 279.932 18.0273 279.932 18.998C279.932 19.642 279.694 20.1367 279.218 20.482C278.742 20.8273 278.033 21 277.09 21H273.744V13.636H276.992C277.832 13.636 278.49 13.7993 278.966 14.126C279.442 14.4527 279.68 14.9193 279.68 15.526C279.68 15.9273 279.568 16.2727 279.344 16.562C279.129 16.842 278.826 17.052 278.434 17.192ZM274.71 16.912H276.922C277.491 16.912 277.925 16.8047 278.224 16.59C278.532 16.3753 278.686 16.0627 278.686 15.652C278.686 15.2413 278.532 14.9333 278.224 14.728C277.925 14.5227 277.491 14.42 276.922 14.42H274.71V16.912ZM277.048 20.216C277.683 20.216 278.159 20.1133 278.476 19.908C278.793 19.7027 278.952 19.3807 278.952 18.942C278.952 18.5033 278.807 18.1813 278.518 17.976C278.229 17.7613 277.771 17.654 277.146 17.654H274.71V20.216H277.048ZM284.936 17.724H283.256V21H282.262V13.636H283.256V16.87H284.95L287.54 13.636H288.618L285.72 17.206L288.828 21H287.652L284.936 17.724ZM292.794 13.58C293.755 13.58 294.492 13.8227 295.006 14.308C295.519 14.784 295.776 15.4933 295.776 16.436V21H294.824V19.852C294.6 20.2347 294.268 20.5333 293.83 20.748C293.4 20.9627 292.887 21.07 292.29 21.07C291.468 21.07 290.815 20.874 290.33 20.482C289.844 20.09 289.602 19.572 289.602 18.928C289.602 18.3027 289.826 17.7987 290.274 17.416C290.731 17.0333 291.454 16.842 292.444 16.842H294.782V16.394C294.782 15.7593 294.604 15.2787 294.25 14.952C293.895 14.616 293.377 14.448 292.696 14.448C292.229 14.448 291.781 14.5273 291.352 14.686C290.922 14.8353 290.554 15.0453 290.246 15.316L289.798 14.574C290.171 14.2567 290.619 14.014 291.142 13.846C291.664 13.6687 292.215 13.58 292.794 13.58ZM292.444 20.286C293.004 20.286 293.484 20.16 293.886 19.908C294.287 19.6467 294.586 19.2733 294.782 18.788V17.584H292.472C291.212 17.584 290.582 18.0227 290.582 18.9C290.582 19.3293 290.745 19.67 291.072 19.922C291.398 20.1647 291.856 20.286 292.444 20.286ZM144.494 45.07C143.766 45.07 143.113 44.9113 142.534 44.594C141.965 44.2767 141.517 43.8333 141.19 43.264C140.863 42.6853 140.7 42.0367 140.7 41.318C140.7 40.5993 140.863 39.9553 141.19 39.386C141.517 38.8167 141.965 38.3733 142.534 38.056C143.113 37.7387 143.766 37.58 144.494 37.58C145.129 37.58 145.693 37.706 146.188 37.958C146.692 38.2007 147.089 38.56 147.378 39.036L146.636 39.54C146.393 39.176 146.085 38.9053 145.712 38.728C145.339 38.5413 144.933 38.448 144.494 38.448C143.962 38.448 143.481 38.5693 143.052 38.812C142.632 39.0453 142.301 39.3813 142.058 39.82C141.825 40.2587 141.708 40.758 141.708 41.318C141.708 41.8873 141.825 42.3913 142.058 42.83C142.301 43.2593 142.632 43.5953 143.052 43.838C143.481 44.0713 143.962 44.188 144.494 44.188C144.933 44.188 145.339 44.0993 145.712 43.922C146.085 43.7447 146.393 43.474 146.636 43.11L147.378 43.614C147.089 44.09 146.692 44.454 146.188 44.706C145.684 44.9487 145.119 45.07 144.494 45.07ZM153.993 41.192C154.991 41.4253 155.491 42.0273 155.491 42.998C155.491 43.642 155.253 44.1367 154.777 44.482C154.301 44.8273 153.591 45 152.649 45H149.303V37.636H152.551C153.391 37.636 154.049 37.7993 154.525 38.126C155.001 38.4527 155.239 38.9193 155.239 39.526C155.239 39.9273 155.127 40.2727 154.903 40.562C154.688 40.842 154.385 41.052 153.993 41.192ZM150.269 40.912H152.481C153.05 40.912 153.484 40.8047 153.783 40.59C154.091 40.3753 154.245 40.0627 154.245 39.652C154.245 39.2413 154.091 38.9333 153.783 38.728C153.484 38.5227 153.05 38.42 152.481 38.42H150.269V40.912ZM152.607 44.216C153.241 44.216 153.717 44.1133 154.035 43.908C154.352 43.7027 154.511 43.3807 154.511 42.942C154.511 42.5033 154.366 42.1813 154.077 41.976C153.787 41.7613 153.33 41.654 152.705 41.654H150.269V44.216H152.607ZM164.26 41.626H158.1C158.156 42.3913 158.45 43.012 158.982 43.488C159.514 43.9547 160.186 44.188 160.998 44.188C161.456 44.188 161.876 44.1087 162.258 43.95C162.641 43.782 162.972 43.5393 163.252 43.222L163.812 43.866C163.486 44.258 163.075 44.5567 162.58 44.762C162.095 44.9673 161.558 45.07 160.97 45.07C160.214 45.07 159.542 44.9113 158.954 44.594C158.376 44.2673 157.923 43.8193 157.596 43.25C157.27 42.6807 157.106 42.0367 157.106 41.318C157.106 40.5993 157.26 39.9553 157.568 39.386C157.886 38.8167 158.315 38.3733 158.856 38.056C159.407 37.7387 160.023 37.58 160.704 37.58C161.386 37.58 161.997 37.7387 162.538 38.056C163.08 38.3733 163.504 38.8167 163.812 39.386C164.12 39.946 164.274 40.59 164.274 41.318L164.26 41.626ZM160.704 38.434C159.995 38.434 159.398 38.6627 158.912 39.12C158.436 39.568 158.166 40.156 158.1 40.884H163.322C163.257 40.156 162.982 39.568 162.496 39.12C162.02 38.6627 161.423 38.434 160.704 38.434ZM171.326 38.518H168.54V45H167.546V38.518H164.76V37.636H171.326V38.518ZM175.46 45.07C174.75 45.07 174.111 44.9113 173.542 44.594C172.972 44.2673 172.524 43.8193 172.198 43.25C171.871 42.6807 171.708 42.0367 171.708 41.318C171.708 40.5993 171.871 39.9553 172.198 39.386C172.524 38.8167 172.972 38.3733 173.542 38.056C174.111 37.7387 174.75 37.58 175.46 37.58C176.169 37.58 176.808 37.7387 177.378 38.056C177.947 38.3733 178.39 38.8167 178.708 39.386C179.034 39.9553 179.198 40.5993 179.198 41.318C179.198 42.0367 179.034 42.6807 178.708 43.25C178.39 43.8193 177.947 44.2673 177.378 44.594C176.808 44.9113 176.169 45.07 175.46 45.07ZM175.46 44.188C175.982 44.188 176.449 44.0713 176.86 43.838C177.28 43.5953 177.606 43.2547 177.84 42.816C178.073 42.3773 178.19 41.878 178.19 41.318C178.19 40.758 178.073 40.2587 177.84 39.82C177.606 39.3813 177.28 39.0453 176.86 38.812C176.449 38.5693 175.982 38.448 175.46 38.448C174.937 38.448 174.466 38.5693 174.046 38.812C173.635 39.0453 173.308 39.3813 173.066 39.82C172.832 40.2587 172.716 40.758 172.716 41.318C172.716 41.878 172.832 42.3773 173.066 42.816C173.308 43.2547 173.635 43.5953 174.046 43.838C174.466 44.0713 174.937 44.188 175.46 44.188ZM188.463 44.132V46.778H187.525V45H180.931V46.778H179.993V44.132H180.413C180.908 44.104 181.244 43.74 181.421 43.04C181.599 42.34 181.72 41.36 181.785 40.1L181.883 37.636H187.315V44.132H188.463ZM182.695 40.156C182.649 41.2013 182.56 42.0647 182.429 42.746C182.299 43.418 182.065 43.88 181.729 44.132H186.321V38.518H182.779L182.695 40.156ZM190.4 37.636H191.394V43.488L196.308 37.636H197.19V45H196.196V39.148L191.296 45H190.4V37.636ZM203.077 45.07C202.368 45.07 201.728 44.9113 201.159 44.594C200.59 44.2673 200.142 43.8193 199.815 43.25C199.488 42.6807 199.325 42.0367 199.325 41.318C199.325 40.5993 199.488 39.9553 199.815 39.386C200.142 38.8167 200.59 38.3733 201.159 38.056C201.728 37.7387 202.368 37.58 203.077 37.58C203.786 37.58 204.426 37.7387 204.995 38.056C205.564 38.3733 206.008 38.8167 206.325 39.386C206.652 39.9553 206.815 40.5993 206.815 41.318C206.815 42.0367 206.652 42.6807 206.325 43.25C206.008 43.8193 205.564 44.2673 204.995 44.594C204.426 44.9113 203.786 45.07 203.077 45.07ZM203.077 44.188C203.6 44.188 204.066 44.0713 204.477 43.838C204.897 43.5953 205.224 43.2547 205.457 42.816C205.69 42.3773 205.807 41.878 205.807 41.318C205.807 40.758 205.69 40.2587 205.457 39.82C205.224 39.3813 204.897 39.0453 204.477 38.812C204.066 38.5693 203.6 38.448 203.077 38.448C202.554 38.448 202.083 38.5693 201.663 38.812C201.252 39.0453 200.926 39.3813 200.683 39.82C200.45 40.2587 200.333 40.758 200.333 41.318C200.333 41.878 200.45 42.3773 200.683 42.816C200.926 43.2547 201.252 43.5953 201.663 43.838C202.083 44.0713 202.554 44.188 203.077 44.188ZM216.08 44.132V46.778H215.142V45H208.548V46.778H207.61V44.132H208.03C208.525 44.104 208.861 43.74 209.038 43.04C209.216 42.34 209.337 41.36 209.402 40.1L209.5 37.636H214.932V44.132H216.08ZM210.312 40.156C210.266 41.2013 210.177 42.0647 210.046 42.746C209.916 43.418 209.682 43.88 209.346 44.132H213.938V38.518H210.396L210.312 40.156ZM218.018 37.636H219.012V40.898H223.646V37.636H224.64V45H223.646V41.752H219.012V45H218.018V37.636ZM230.559 40.24C231.483 40.2493 232.187 40.4547 232.673 40.856C233.158 41.2573 233.401 41.836 233.401 42.592C233.401 43.376 233.139 43.978 232.617 44.398C232.094 44.818 231.347 45.0233 230.377 45.014L227.465 45V37.636H228.459V40.212L230.559 40.24ZM234.633 37.636H235.627V45H234.633V37.636ZM230.321 44.258C231.002 44.2673 231.515 44.132 231.861 43.852C232.215 43.5627 232.393 43.1427 232.393 42.592C232.393 42.0507 232.22 41.6493 231.875 41.388C231.529 41.1267 231.011 40.9913 230.321 40.982L228.459 40.954V44.23L230.321 44.258ZM243.063 45L240.725 41.92L238.373 45H237.253L240.165 41.22L237.393 37.636H238.513L240.725 40.52L242.937 37.636H244.029L241.257 41.22L244.197 45H243.063ZM251.492 37.58C252.23 37.58 252.892 37.7433 253.48 38.07C254.078 38.3873 254.544 38.8307 254.88 39.4C255.226 39.9693 255.398 40.6087 255.398 41.318C255.398 42.0273 255.226 42.6713 254.88 43.25C254.544 43.8193 254.078 44.2673 253.48 44.594C252.892 44.9207 252.23 45.084 251.492 45.084C250.876 45.084 250.312 44.9907 249.798 44.804C249.285 44.608 248.851 44.328 248.496 43.964L249.084 43.376C249.71 43.964 250.498 44.258 251.45 44.258C251.982 44.258 252.463 44.146 252.892 43.922C253.331 43.698 253.686 43.3853 253.956 42.984C254.236 42.5827 254.4 42.1347 254.446 41.64H250.512V40.884H254.432C254.33 40.1467 254.003 39.5493 253.452 39.092C252.902 38.6253 252.234 38.392 251.45 38.392C250.498 38.392 249.71 38.686 249.084 39.274L248.496 38.7C248.851 38.336 249.285 38.0607 249.798 37.874C250.312 37.678 250.876 37.58 251.492 37.58ZM260.162 41.724H258.482V45H257.488V37.636H258.482V40.87H260.176L262.766 37.636H263.844L260.946 41.206L264.054 45H262.878L260.162 41.724ZM269.417 37.58C270.108 37.58 270.733 37.7387 271.293 38.056C271.853 38.364 272.292 38.8027 272.609 39.372C272.926 39.9413 273.085 40.59 273.085 41.318C273.085 42.0553 272.926 42.7087 272.609 43.278C272.292 43.8473 271.853 44.2907 271.293 44.608C270.742 44.916 270.117 45.07 269.417 45.07C268.82 45.07 268.278 44.9487 267.793 44.706C267.317 44.454 266.925 44.09 266.617 43.614V47.716H265.623V37.636H266.575V39.092C266.874 38.6067 267.266 38.2333 267.751 37.972C268.246 37.7107 268.801 37.58 269.417 37.58ZM269.347 44.188C269.86 44.188 270.327 44.0713 270.747 43.838C271.167 43.5953 271.494 43.2547 271.727 42.816C271.97 42.3773 272.091 41.878 272.091 41.318C272.091 40.758 271.97 40.2633 271.727 39.834C271.494 39.3953 271.167 39.0547 270.747 38.812C270.327 38.5693 269.86 38.448 269.347 38.448C268.824 38.448 268.353 38.5693 267.933 38.812C267.522 39.0547 267.196 39.3953 266.953 39.834C266.72 40.2633 266.603 40.758 266.603 41.318C266.603 41.878 266.72 42.3773 266.953 42.816C267.196 43.2547 267.522 43.5953 267.933 43.838C268.353 44.0713 268.824 44.188 269.347 44.188ZM277.714 37.58C278.675 37.58 279.412 37.8227 279.926 38.308C280.439 38.784 280.696 39.4933 280.696 40.436V45H279.744V43.852C279.52 44.2347 279.188 44.5333 278.75 44.748C278.32 44.9627 277.807 45.07 277.21 45.07C276.388 45.07 275.735 44.874 275.25 44.482C274.764 44.09 274.522 43.572 274.522 42.928C274.522 42.3027 274.746 41.7987 275.194 41.416C275.651 41.0333 276.374 40.842 277.364 40.842H279.702V40.394C279.702 39.7593 279.524 39.2787 279.17 38.952C278.815 38.616 278.297 38.448 277.616 38.448C277.149 38.448 276.701 38.5273 276.272 38.686C275.842 38.8353 275.474 39.0453 275.166 39.316L274.718 38.574C275.091 38.2567 275.539 38.014 276.062 37.846C276.584 37.6687 277.135 37.58 277.714 37.58ZM277.364 44.286C277.924 44.286 278.404 44.16 278.806 43.908C279.207 43.6467 279.506 43.2733 279.702 42.788V41.584H277.392C276.132 41.584 275.502 42.0227 275.502 42.9C275.502 43.3293 275.665 43.67 275.992 43.922C276.318 44.1647 276.776 44.286 277.364 44.286ZM283.342 37.636H284.336V40.898H288.97V37.636H289.964V45H288.97V41.752H284.336V45H283.342V37.636ZM295.827 45.07C295.118 45.07 294.478 44.9113 293.909 44.594C293.34 44.2673 292.892 43.8193 292.565 43.25C292.238 42.6807 292.075 42.0367 292.075 41.318C292.075 40.5993 292.238 39.9553 292.565 39.386C292.892 38.8167 293.34 38.3733 293.909 38.056C294.478 37.7387 295.118 37.58 295.827 37.58C296.536 37.58 297.176 37.7387 297.745 38.056C298.314 38.3733 298.758 38.8167 299.075 39.386C299.402 39.9553 299.565 40.5993 299.565 41.318C299.565 42.0367 299.402 42.6807 299.075 43.25C298.758 43.8193 298.314 44.2673 297.745 44.594C297.176 44.9113 296.536 45.07 295.827 45.07ZM295.827 44.188C296.35 44.188 296.816 44.0713 297.227 43.838C297.647 43.5953 297.974 43.2547 298.207 42.816C298.44 42.3773 298.557 41.878 298.557 41.318C298.557 40.758 298.44 40.2587 298.207 39.82C297.974 39.3813 297.647 39.0453 297.227 38.812C296.816 38.5693 296.35 38.448 295.827 38.448C295.304 38.448 294.833 38.5693 294.413 38.812C294.002 39.0453 293.676 39.3813 293.433 39.82C293.2 40.2587 293.083 40.758 293.083 41.318C293.083 41.878 293.2 42.3773 293.433 42.816C293.676 43.2547 294.002 43.5953 294.413 43.838C294.833 44.0713 295.304 44.188 295.827 44.188ZM306.379 41.192C307.378 41.4253 307.877 42.0273 307.877 42.998C307.877 43.642 307.639 44.1367 307.163 44.482C306.687 44.8273 305.978 45 305.035 45H301.689V37.636H304.937C305.777 37.636 306.435 37.7993 306.911 38.126C307.387 38.4527 307.625 38.9193 307.625 39.526C307.625 39.9273 307.513 40.2727 307.289 40.562C307.075 40.842 306.771 41.052 306.379 41.192ZM302.655 40.912H304.867C305.437 40.912 305.871 40.8047 306.169 40.59C306.477 40.3753 306.631 40.0627 306.631 39.652C306.631 39.2413 306.477 38.9333 306.169 38.728C305.871 38.5227 305.437 38.42 304.867 38.42H302.655V40.912ZM304.993 44.216C305.628 44.216 306.104 44.1133 306.421 43.908C306.739 43.7027 306.897 43.3807 306.897 42.942C306.897 42.5033 306.753 42.1813 306.463 41.976C306.174 41.7613 305.717 41.654 305.091 41.654H302.655V44.216H304.993ZM148.022 61.636V69H147.028V62.518H142.408V69H141.414V61.636H148.022ZM153.886 69.07C153.176 69.07 152.537 68.9113 151.968 68.594C151.398 68.2673 150.95 67.8193 150.624 67.25C150.297 66.6807 150.134 66.0367 150.134 65.318C150.134 64.5993 150.297 63.9553 150.624 63.386C150.95 62.8167 151.398 62.3733 151.968 62.056C152.537 61.7387 153.176 61.58 153.886 61.58C154.595 61.58 155.234 61.7387 155.804 62.056C156.373 62.3733 156.816 62.8167 157.134 63.386C157.46 63.9553 157.624 64.5993 157.624 65.318C157.624 66.0367 157.46 66.6807 157.134 67.25C156.816 67.8193 156.373 68.2673 155.804 68.594C155.234 68.9113 154.595 69.07 153.886 69.07ZM153.886 68.188C154.408 68.188 154.875 68.0713 155.286 67.838C155.706 67.5953 156.032 67.2547 156.266 66.816C156.499 66.3773 156.616 65.878 156.616 65.318C156.616 64.758 156.499 64.2587 156.266 63.82C156.032 63.3813 155.706 63.0453 155.286 62.812C154.875 62.5693 154.408 62.448 153.886 62.448C153.363 62.448 152.892 62.5693 152.472 62.812C152.061 63.0453 151.734 63.3813 151.492 63.82C151.258 64.2587 151.142 64.758 151.142 65.318C151.142 65.878 151.258 66.3773 151.492 66.816C151.734 67.2547 152.061 67.5953 152.472 67.838C152.892 68.0713 153.363 68.188 153.886 68.188ZM167.318 59.2C168.569 59.2 169.549 59.4987 170.258 60.096C170.967 60.6933 171.322 61.5147 171.322 62.56C171.322 63.6053 170.967 64.4267 170.258 65.024C169.549 65.612 168.569 65.906 167.318 65.906H164.686V69H163.65V59.2H167.318ZM167.29 64.996C168.261 64.996 169.003 64.786 169.516 64.366C170.029 63.9367 170.286 63.3347 170.286 62.56C170.286 61.7667 170.029 61.16 169.516 60.74C169.003 60.3107 168.261 60.096 167.29 60.096H164.686V64.996H167.29ZM184.076 64.086C184.076 65.3833 183.614 66.4053 182.69 67.152C181.775 67.8893 180.492 68.2813 178.84 68.328V69.336H177.874V68.328C176.222 68.272 174.934 67.8753 174.01 67.138C173.095 66.4007 172.638 65.3833 172.638 64.086C172.638 62.7887 173.095 61.7713 174.01 61.034C174.934 60.2967 176.222 59.9 177.874 59.844V58.864H178.84V59.844C180.482 59.9 181.766 60.3013 182.69 61.048C183.614 61.7853 184.076 62.798 184.076 64.086ZM178.84 67.502C180.193 67.446 181.238 67.124 181.976 66.536C182.713 65.948 183.082 65.1313 183.082 64.086C183.082 63.0407 182.708 62.224 181.962 61.636C181.224 61.048 180.184 60.7307 178.84 60.684V67.502ZM173.632 64.086C173.632 65.1313 174 65.948 174.738 66.536C175.484 67.1147 176.53 67.4367 177.874 67.502V60.684C176.511 60.74 175.461 61.062 174.724 61.65C173.996 62.2287 173.632 63.0407 173.632 64.086ZM189.853 61.636H190.847V67.488L195.761 61.636H196.643V69H195.649V63.148L190.749 69H189.853V61.636ZM207.678 69.084C206.708 69.084 205.83 68.8693 205.046 68.44C204.272 68.0107 203.66 67.418 203.212 66.662C202.774 65.8967 202.554 65.0427 202.554 64.1C202.554 63.1573 202.774 62.308 203.212 61.552C203.66 60.7867 204.276 60.1893 205.06 59.76C205.844 59.3307 206.722 59.116 207.692 59.116C208.42 59.116 209.092 59.2373 209.708 59.48C210.324 59.7227 210.847 60.0773 211.276 60.544L210.618 61.202C209.853 60.4273 208.887 60.04 207.72 60.04C206.946 60.04 206.241 60.2173 205.606 60.572C204.972 60.9267 204.472 61.412 204.108 62.028C203.754 62.644 203.576 63.3347 203.576 64.1C203.576 64.8653 203.754 65.556 204.108 66.172C204.472 66.788 204.972 67.2733 205.606 67.628C206.241 67.9827 206.946 68.16 207.72 68.16C208.896 68.16 209.862 67.768 210.618 66.984L211.276 67.642C210.847 68.1087 210.32 68.468 209.694 68.72C209.078 68.9627 208.406 69.084 207.678 69.084ZM221.606 59.2V69H220.584V64.478H214.452V69H213.416V59.2H214.452V63.568H220.584V59.2H221.606ZM231.144 60.096H225.922L225.936 69H224.914V59.2H231.144V60.096Z" fill="#333333"/>
<rect x="130" y="1" width="1" height="80" fill="#333333"/>
<g clip-path="url(#clip0)">
<path d="M32.56 7.29H29.69V25.47C29.69 26.2312 29.9924 26.9612 30.5306 27.4994C31.0688 28.0376 31.7988 28.34 32.56 28.34C33.3212 28.34 34.0512 28.0376 34.5894 27.4994C35.1276 26.9612 35.43 26.2312 35.43 25.47V6.39C34.5884 6.97746 33.5864 7.29168 32.56 7.29Z" fill="#2BB673"/>
<path d="M28.14 25.47V22.6H2.87001C2.13682 22.6433 1.44787 22.965 0.944054 23.4994C0.44024 24.0338 0.159637 24.7405 0.159637 25.475C0.159637 26.2095 0.44024 26.9162 0.944054 27.4506C1.44787 27.985 2.13682 28.3067 2.87001 28.35H29C28.4248 27.5009 28.1245 26.4955 28.14 25.47Z" fill="#F7941D"/>
<path d="M2.87 21.05H5.74V2.87C5.74 2.10883 5.43763 1.37883 4.8994 0.840604C4.36117 0.302374 3.63117 0 2.87 0C2.10883 0 1.37883 0.302374 0.840604 0.840604C0.302374 1.37883 0 2.10883 0 2.87L0 22C0.838379 21.4 1.8392 21.0687 2.87 21.05Z" fill="#27AAE1"/>
<path d="M32.56 0H6.39C6.97746 0.841619 7.29168 1.84364 7.29 2.87V5.74H32.56C33.3212 5.74 34.0512 5.43763 34.5894 4.8994C35.1276 4.36117 35.43 3.63117 35.43 2.87C35.43 2.10883 35.1276 1.37883 34.5894 0.840604C34.0512 0.302374 33.3212 0 32.56 0V0Z" fill="#ED1C24"/>
<path d="M43.89 33.67L42.32 31.6C43.741 30.4764 45.5088 29.8824 47.32 29.92C51.75 29.92 53.96 33.08 53.96 37.73C53.96 42.38 51.66 45.57 47.04 45.57C45.2673 45.5883 43.5405 45.0068 42.14 43.92L43.77 41.76C44.6947 42.4739 45.8318 42.8576 47 42.85C48.93 42.85 50.11 41.68 50.3 38.71H44.65V36.44H50.27C50.05 33.81 49.07 32.6 47.17 32.6C45.9902 32.5956 44.8403 32.9708 43.89 33.67Z" fill="#231F20"/>
<path d="M57.86 45.15V30.34H61.44V36.19H62.93L66.62 30.34H70.21L65.76 37.2L70.66 45.15H66.66L62.79 38.57H61.39V45.15H57.86Z" fill="#231F20"/>
<path d="M73.59 51.25V30.34H76.73L76.92 32.16C77.4099 31.4769 78.0532 30.9184 78.7984 30.5293C79.5435 30.1403 80.3695 29.9316 81.21 29.92C85.13 29.92 86.75 32.92 86.75 37.7C86.75 42.24 84.65 45.57 80.9 45.57C80.197 45.5974 79.497 45.465 78.8526 45.1826C78.2083 44.9003 77.6364 44.4754 77.18 43.94V50.86L73.59 51.25ZM83 37.73C83 33.98 82 32.6 80.14 32.6C79.5122 32.6544 78.9082 32.8662 78.3839 33.2158C77.8595 33.5653 77.4317 34.0414 77.14 34.6V41.29C77.4139 41.7645 77.8094 42.1574 78.2858 42.4281C78.7622 42.6988 79.3021 42.8376 79.85 42.83C81.85 42.82 83 41.31 83 37.73Z" fill="#231F20"/>
<path d="M101.94 41.31C101.94 42.43 102.24 42.85 102.94 43.13L102.16 45.51C101.49 45.5279 100.83 45.3477 100.263 44.9919C99.6954 44.6361 99.2456 44.1205 98.97 43.51C98.4259 44.1715 97.7348 44.6968 96.9518 45.0441C96.1688 45.3913 95.3156 45.5508 94.46 45.51C91.46 45.51 89.59 43.63 89.59 40.86C89.59 37.72 92.08 35.96 96.59 35.96H98.41V35.12C98.41 33.24 97.55 32.6 95.48 32.6C94.1572 32.6405 92.8499 32.8972 91.61 33.36L90.79 31C92.4758 30.3649 94.2588 30.0266 96.06 30C100.23 30 101.94 31.79 101.94 35V41.31ZM98.46 41.14V38.14H97.2C94.43 38.14 93.45 39.06 93.45 40.68C93.45 42.14 94.12 42.92 95.61 42.92C96.2 42.9016 96.7745 42.7272 97.2751 42.4145C97.7758 42.1018 98.1846 41.6621 98.46 41.14Z" fill="#231F20"/>
<path d="M115.43 45.15V39H110.25V45.19H106.66V30.34H110.25V36.24H115.43V30.34H119V45.15H115.43Z" fill="#231F20"/>
<path d="M52.49 70.15V58.08H47.36V70.15H43.78V55.34H56.07V70.15H52.49Z" fill="#231F20"/>
<path d="M60.76 76.25V55.34H63.9L64.09 57.16C64.5799 56.4769 65.2233 55.9184 65.9684 55.5293C66.7135 55.1403 67.5395 54.9316 68.38 54.92C72.3 54.92 73.92 57.92 73.92 62.7C73.92 67.24 71.82 70.57 68.07 70.57C67.367 70.5974 66.667 70.465 66.0226 70.1826C65.3783 69.9003 64.8064 69.4754 64.35 68.94V75.86L60.76 76.25ZM70.17 62.73C70.17 58.98 69.17 57.6 67.31 57.6C66.6822 57.6544 66.0782 57.8662 65.5539 58.2158C65.0295 58.5654 64.6017 59.0414 64.31 59.6V66.29C64.5839 66.7645 64.9795 67.1574 65.4558 67.4281C65.9322 67.6988 66.4721 67.8376 67.02 67.83C69 67.82 70.17 66.31 70.17 62.73Z" fill="#231F20"/>
<path d="M84 54.92C88.43 54.92 91 58 91 62.73C91 67.46 88.42 70.57 84 70.57C79.58 70.57 77 67.57 77 62.73C77 58.08 79.64 54.92 84 54.92ZM84 57.63C81.9 57.63 80.75 59.23 80.75 62.73C80.75 66.23 81.87 67.85 83.97 67.85C86.07 67.85 87.19 66.28 87.19 62.73C87.19 59.18 86.14 57.63 84 57.63Z" fill="#231F20"/>
</g>
<defs>
<clipPath id="clip0">
<rect width="119.01" height="76.25" fill="white"/>
</clipPath>
</defs>
</svg>
