<svg width="40" height="40" fill="none" xmlns="http://www.w3.org/2000/svg"><path d="M19.166 10.938c1.105 0 2.165.411 2.947 1.144a3.787 3.787 0 011.22 2.762c0 1.036-.439 2.03-1.22 2.762a4.312 4.312 0 01-2.947 1.144 4.312 4.312 0 01-2.946-1.144A3.787 3.787 0 0115 14.844c0-1.036.439-2.03 1.22-2.762a4.312 4.312 0 012.946-1.144zm0 1.562c-.663 0-1.299.247-1.767.687a2.272 2.272 0 00-.733 1.657c0 .622.264 1.218.733 1.657.468.44 1.104.687 1.767.687.663 0 1.3-.247 1.768-.687.469-.44.732-1.036.732-1.657 0-.622-.263-1.218-.732-1.657a2.587 2.587 0 00-1.768-.687zm-7.833 6.808l7.833 12.078L27 19.308a8.202 8.202 0 001.332-4.318 8.174 8.174 0 00-1.176-4.358 8.888 8.888 0 00-3.362-3.206 9.639 9.639 0 00-4.628-1.175 9.638 9.638 0 00-4.628 1.175 8.887 8.887 0 00-3.361 3.206A8.174 8.174 0 0010 14.99a8.202 8.202 0 001.332 4.318zm17.09.812l-9.257 14.274L9.91 20.12a9.693 9.693 0 01-1.574-5.103 9.66 9.66 0 011.39-5.15 10.504 10.504 0 013.973-3.787c1.66-.91 3.547-1.39 5.469-1.39 1.922 0 3.81.48 5.47 1.39 1.658.91 3.03 2.217 3.972 3.787a9.66 9.66 0 011.39 5.15 9.692 9.692 0 01-1.574 5.103h-.003z" fill="url(#paint0_linear)"/><defs><linearGradient id="paint0_linear" x1="8.335" y1="19.542" x2="30.001" y2="19.542" gradientUnits="userSpaceOnUse"><stop stop-color="#E30613"/><stop offset="1" stop-color="#F39200"/></linearGradient></defs></svg>