<svg width="30" height="32" fill="none" xmlns="http://www.w3.org/2000/svg"><path d="M6.25 6.25H22.5A3.75 3.75 0 0126.25 10v11.25A3.75 3.75 0 0122.5 25H6.25a3.75 3.75 0 01-3.75-3.75V10a3.75 3.75 0 013.75-3.75zm0 1.25c-.61 0-1.17.219-1.604.582l9.729 6.318 9.729-6.318A2.49 2.49 0 0022.5 7.5H6.25zm8.125 8.39L3.918 9.1a2.495 2.495 0 00-.168.9v11.25a2.5 2.5 0 002.5 2.5H22.5a2.5 2.5 0 002.5-2.5V10c0-.318-.059-.621-.168-.9l-10.457 6.789v.001z" fill="url(#paint0_linear)"/><defs><linearGradient id="paint0_linear" x1="2.5" y1="15.625" x2="26.25" y2="15.625" gradientUnits="userSpaceOnUse"><stop stop-color="#E30613"/><stop offset="1" stop-color="#F39200"/></linearGradient></defs></svg>