<svg width="30" height="32" fill="none" xmlns="http://www.w3.org/2000/svg"><path d="M14.375 17.5c5.177 0 9.375 1.959 9.375 4.375V25H5v-3.125c0-2.416 4.197-4.375 9.375-4.375zm8.125 4.375c0-1.725-3.637-3.125-8.125-3.125-4.488 0-8.125 1.4-8.125 3.125v1.875H22.5v-1.875zM14.375 6.25a4.375 4.375 0 110 8.75 4.375 4.375 0 010-8.75zm0 1.25a3.125 3.125 0 100 6.25 3.125 3.125 0 000-6.25z" fill="url(#paint0_linear)"/><defs><linearGradient id="paint0_linear" x1="5" y1="15.625" x2="23.75" y2="15.625" gradientUnits="userSpaceOnUse"><stop stop-color="#E30613"/><stop offset="1" stop-color="#F39200"/></linearGradient></defs></svg>