<svg width="50" height="50" fill="none" xmlns="http://www.w3.org/2000/svg"><path d="M32.188 23.75H26.25v-5.938a.313.313 0 00-.313-.312h-1.875a.313.313 0 00-.312.313v5.937h-5.938a.313.313 0 00-.312.313v1.875c0 .171.14.312.313.312h5.937v5.938c0 .171.14.312.313.312h1.875c.171 0 .312-.14.312-.313V26.25h5.938c.171 0 .312-.14.312-.313v-1.875a.313.313 0 00-.313-.312z" fill="url(#paint0_linear)"/><path d="M25 7.5C15.336 7.5 7.5 15.336 7.5 25S15.336 42.5 25 42.5 42.5 34.664 42.5 25 34.664 7.5 25 7.5zm0 32.031c-8.023 0-14.531-6.508-14.531-14.531S16.977 10.469 25 10.469 39.531 16.977 39.531 25 33.023 39.531 25 39.531z" fill="url(#paint1_linear)"/><defs><linearGradient id="paint0_linear" x1="17.5" y1="25" x2="32.5" y2="25" gradientUnits="userSpaceOnUse"><stop stop-color="#E30613"/><stop offset="1" stop-color="#F39200"/></linearGradient><linearGradient id="paint1_linear" x1="7.5" y1="25" x2="42.5" y2="25" gradientUnits="userSpaceOnUse"><stop stop-color="#E30613"/><stop offset="1" stop-color="#F39200"/></linearGradient></defs></svg>