<svg width="30" height="30" fill="none" xmlns="http://www.w3.org/2000/svg"><path d="M15 25.2C9.36 25.2 4.8 20.64 4.8 15S9.36 4.8 15 4.8 25.2 9.36 25.2 15 20.64 25.2 15 25.2zM15 6c-4.98 0-9 4.02-9 9s4.02 9 9 9 9-4.02 9-9-4.02-9-9-9z" fill="#000"/><path d="M11.88 11.76c.18-.48.36-.84.72-1.14.3-.3.66-.54 1.14-.72.48-.18.96-.24 1.5-.24.42 0 .84.06 1.2.18s.72.3 1.02.54c.3.24.54.54.66.9.18.36.24.78.24 1.2 0 .6-.12 1.08-.36 1.5-.24.42-.6.78-.96 1.2l-.78.78c-.18.18-.36.36-.42.54-.12.18-.18.42-.18.66-.06.24-.06.42-.06.9h-.96c0-.48 0-.66.06-1.02.06-.3.18-.6.3-.9.12-.24.3-.48.54-.72.24-.24.54-.48.84-.84.3-.3.54-.6.72-.9.18-.3.3-.72.3-1.08 0-.3-.06-.6-.18-.84s-.3-.48-.48-.66c-.18-.18-.42-.3-.72-.42s-.54-.18-.84-.18c-.42 0-.78.06-1.08.24-.3.12-.6.36-.78.6-.18.24-.36.54-.48.9s-.24.54-.24.96h-.96c0-.54.06-.96.24-1.44zm3.72 7.44v1.2h-1.2v-1.2h1.2z" fill="#000"/></svg>