<svg width="30" height="32" fill="none" xmlns="http://www.w3.org/2000/svg"><path d="M3.75 25.733l4.482-4.483H22.5a2.5 2.5 0 002.5-2.5V7.5A2.5 2.5 0 0022.5 5H6.25a2.5 2.5 0 00-2.5 2.5v18.233zm0 1.767H2.5v-20a3.75 3.75 0 013.75-3.75H22.5a3.75 3.75 0 013.75 3.75v11.25a3.75 3.75 0 01-3.75 3.75H8.75l-5 5zM7.5 8.75h13.75V10H7.5V8.75zm0 3.75h13.75v1.25H7.5V12.5zm0 3.75h10v1.25h-10v-1.25z" fill="url(#paint0_linear)"/><defs><linearGradient id="paint0_linear" x1="2.5" y1="15.625" x2="26.25" y2="15.625" gradientUnits="userSpaceOnUse"><stop stop-color="#E30613"/><stop offset="1" stop-color="#F39200"/></linearGradient></defs></svg>