<svg width="50" height="50" fill="none" xmlns="http://www.w3.org/2000/svg"><g clip-path="url(#clip0)"><path d="M19.51 28.223a.73.73 0 00.556-.255l3.685-4.296a.732.732 0 00.176-.477v-8.036a.732.732 0 00-1.465 0v7.765l-3.508 4.09a.733.733 0 00.556 1.21z" fill="url(#paint0_linear)"/><path d="M48.233 35.791h-.457a8.91 8.91 0 00-.369-.897l.322-.322a1.768 1.768 0 000-2.497l-1.944-1.944a1.796 1.796 0 00-.367-.282 23.432 23.432 0 00.521-11.193.733.733 0 00-1.437.286c.729 3.664.516 7.352-.564 10.777a1.763 1.763 0 00-.65.412l-.321.322a9.485 9.485 0 00-.898-.369v-.456a1.77 1.77 0 00-1.376-1.724 18.14 18.14 0 00.578-5.857 17.992 17.992 0 00-6.108-12.445 18.03 18.03 0 00-11.957-4.51.732.732 0 00-.234 0c-4.946.063-9.85 2.135-13.37 6.131a.732.732 0 101.099.968A16.6 16.6 0 0122.36 6.577v1.745a.732.732 0 101.465 0V6.567c3.702.137 7.38 1.5 10.37 4.134a16.538 16.538 0 015.635 11.858h-1.762a.732.732 0 000 1.465h1.756a16.528 16.528 0 01-.64 3.836h-1.628c-.974 0-1.765.793-1.765 1.768v.51a9.239 9.239 0 00-.85.363l-.37-.37a1.768 1.768 0 00-2.496 0l-1.944 1.944a1.768 1.768 0 000 2.497l.421.422c-.118.26-.226.527-.32.798h-.604c-.975 0-1.768.79-1.768 1.764v1.614c-.94.273-1.901.46-2.87.565v-1.534a.732.732 0 10-1.465 0v1.628a16.58 16.58 0 01-11.334-4.14c-3.48-3.064-5.413-7.357-5.616-11.761h1.747a.732.732 0 100-1.465h-1.75c.106-2.573.807-5.14 2.14-7.484a.731.731 0 10-1.273-.724 18.121 18.121 0 00-2.354 8.883.73.73 0 000 .116c.002.948.078 1.898.23 2.841a18.143 18.143 0 005.909 10.694 18.038 18.038 0 0012.95 4.481.74.74 0 00.246-.014c1.174-.08 2.34-.272 3.48-.577a1.77 1.77 0 001.729 1.39h.654c.095.256.2.507.316.754l-.467.465a1.758 1.758 0 00-.409.64 21.863 21.863 0 01-6.559.996c-5.285 0-10.328-1.9-14.33-5.423-8.99-7.918-9.864-21.676-1.947-30.667 7.918-8.99 21.675-9.864 30.666-1.947a21.751 21.751 0 016.015 8.743.733.733 0 001.374-.51 23.232 23.232 0 00-6.42-9.333A23.046 23.046 0 0021.724.047 23.046 23.046 0 005.787 7.866a23.047 23.047 0 00-5.74 16.798A23.046 23.046 0 007.866 40.6c4.273 3.763 9.655 5.789 15.297 5.789a23.357 23.357 0 006.69-.969c.074.131.168.254.28.365l1.943 1.944a1.768 1.768 0 002.497 0l.468-.466c.247.116.497.22.752.314v.656c0 .974.79 1.767 1.764 1.767h2.75c.972 0 1.764-.793 1.764-1.767v-.602c.268-.095.535-.202.798-.323l.42.42a1.768 1.768 0 002.498 0l1.943-1.943a1.768 1.768 0 000-2.497l-.368-.368a8.93 8.93 0 00.363-.85h.509c.975 0 1.768-.792 1.768-1.765v-2.749c0-.974-.794-1.764-1.768-1.764zm.302 4.514c0 .162-.138.3-.302.3h-1.036a.732.732 0 00-.7.521 7.715 7.715 0 01-.674 1.569.735.735 0 00.12.88l.75.75a.305.305 0 010 .425l-1.943 1.944a.305.305 0 01-.426 0l-.792-.792a.734.734 0 00-.86-.13 7.861 7.861 0 01-1.534.618.733.733 0 00-.533.705v1.138a.306.306 0 01-.3.303h-2.75a.305.305 0 01-.299-.303V47.05a.734.734 0 00-.521-.701 7.78 7.78 0 01-1.486-.622.73.73 0 00-.868.124l-.845.843a.305.305 0 01-.425 0l-1.772-1.772-.172-.172a.306.306 0 010-.425l.844-.841a.731.731 0 00.125-.871 7.751 7.751 0 01-.625-1.487.732.732 0 00-.701-.521h-1.182a.306.306 0 01-.303-.3v-2.749c0-.163.138-.3.303-.3h1.14a.732.732 0 00.705-.533 7.97 7.97 0 01.615-1.535.733.733 0 00-.129-.86l-.792-.792a.305.305 0 010-.425l1.944-1.944a.305.305 0 01.425 0l.75.75a.733.733 0 00.878.12 7.72 7.72 0 011.572-.672.734.734 0 00.52-.702v-1.035c0-.165.137-.303.3-.303h2.749c.162 0 .3.138.3.303v.994a.73.73 0 00.535.704 7.72 7.72 0 011.617.664.728.728 0 00.87-.125l.697-.698a.305.305 0 01.426 0l.17.17 1.774 1.774a.305.305 0 010 .425l-.699.698a.734.734 0 00-.124.87c.285.52.507 1.063.662 1.617a.733.733 0 00.706.535h.994c.164 0 .302.137.302.3v2.749z" fill="url(#paint1_linear)"/><path d="M38.931 35.589a3.346 3.346 0 00-3.342 3.342c0 1.842 1.5 3.34 3.343 3.34a3.344 3.344 0 003.34-3.34 3.345 3.345 0 00-3.34-3.342zm0 5.218a1.879 1.879 0 01-1.877-1.876 1.88 1.88 0 011.877-1.877c1.034 0 1.876.842 1.876 1.877a1.877 1.877 0 01-1.876 1.876z" fill="url(#paint2_linear)"/></g><defs><linearGradient id="paint0_linear" x1="18.778" y1="21.325" x2="23.927" y2="21.325" gradientUnits="userSpaceOnUse"><stop stop-color="#E30613"/><stop offset="1" stop-color="#F39200"/></linearGradient><linearGradient id="paint1_linear" x1="0" y1="25" x2="50.001" y2="25" gradientUnits="userSpaceOnUse"><stop stop-color="#E30613"/><stop offset="1" stop-color="#F39200"/></linearGradient><linearGradient id="paint2_linear" x1="35.589" y1="38.93" x2="42.272" y2="38.93" gradientUnits="userSpaceOnUse"><stop stop-color="#E30613"/><stop offset="1" stop-color="#F39200"/></linearGradient><clipPath id="clip0"><path fill="#fff" d="M0 0h50v50H0z"/></clipPath></defs></svg>