<svg width="50" height="50" fill="none" xmlns="http://www.w3.org/2000/svg"><g clip-path="url(#clip0)"><path d="M27.903 15.431c0-1.6-1.302-2.902-2.903-2.902a2.906 2.906 0 00-2.902 2.902c0 1.6 1.302 2.903 2.902 2.903s2.903-1.302 2.903-2.903zM25 16.87a1.44 1.44 0 01-1.438-1.438A1.44 1.44 0 0125 13.993a1.44 1.44 0 011.438 1.438A1.44 1.44 0 0125 16.869z" fill="url(#paint0_linear)"/><path d="M46.53 47.357a.732.732 0 00-.732.733v.445h-2.306v-2.154a.732.732 0 10-1.464 0v2.154H34.45v-7.252h7.367a3.981 3.981 0 013.95 3.48.732.732 0 101.453-.18 5.448 5.448 0 00-5.403-4.765h-.436a5.075 5.075 0 001.523-3.626 5.097 5.097 0 00-5.092-5.091 5.1 5.1 0 00-4.862 3.581 5.43 5.43 0 00-3.945-1.697h-.436a5.08 5.08 0 001.478-2.969 15.472 15.472 0 007.943-6.253.732.732 0 00-1.232-.792 14.012 14.012 0 01-6.746 5.5 5.105 5.105 0 00-2.654-3.622c.035-.075.064-.153.087-.235l.598-2.177a7.608 7.608 0 001.503-.868l2.186.57c.66.172 1.36-.12 1.701-.711l.977-1.692a1.525 1.525 0 00-.235-1.83l-1.586-1.608a7.657 7.657 0 000-1.734l1.586-1.608c.48-.486.577-1.238.235-1.83l-.977-1.691a1.525 1.525 0 00-1.702-.712l-2.185.57a7.61 7.61 0 00-1.503-.868l-.599-2.177a1.526 1.526 0 00-1.467-1.118h-1.954c-.683 0-1.286.46-1.467 1.118l-.599 2.177a7.608 7.608 0 00-1.502.868l-2.186-.57c-.66-.172-1.36.12-1.701.711l-.978 1.693a1.525 1.525 0 00.235 1.83l1.587 1.607a7.637 7.637 0 000 1.734l-1.587 1.608a1.525 1.525 0 00-.234 1.83l.976 1.692a1.526 1.526 0 001.702.711l2.186-.57c.466.346.97.637 1.502.868l.6 2.177c.021.082.05.16.085.235a5.105 5.105 0 00-2.654 3.622c-5.393-2.061-8.954-7.19-8.954-13.04 0-7.7 6.265-13.966 13.966-13.966S38.967 7.73 38.967 15.43c0 1.589-.264 3.146-.785 4.628a.733.733 0 001.382.485c.575-1.638.867-3.358.867-5.113C40.431 6.924 33.51 0 25 0S9.57 6.923 9.57 15.431a15.3 15.3 0 003.07 9.239 15.575 15.575 0 007.313 5.346 5.08 5.08 0 001.478 2.97h-.436a5.43 5.43 0 00-3.945 1.697 5.1 5.1 0 00-4.863-3.582 5.097 5.097 0 00-5.09 5.09c0 1.419.583 2.703 1.521 3.627h-.436a5.45 5.45 0 00-5.444 5.445v4.005c0 .404.327.732.732.732h43.06a.732.732 0 00.732-.733V48.09a.732.732 0 00-.732-.733zm-22.507-23.09a.057.057 0 01-.054-.041l-.695-2.526a.732.732 0 00-.448-.49 6.152 6.152 0 01-1.741-1.007.732.732 0 00-.65-.143l-2.535.662a.057.057 0 01-.064-.027l-.977-1.692a.057.057 0 01.009-.068l1.84-1.865a.732.732 0 00.202-.633 6.25 6.25 0 01-.083-1.006c0-.331.028-.67.083-1.006a.732.732 0 00-.201-.633l-1.841-1.865a.056.056 0 01-.009-.068l.977-1.692a.057.057 0 01.064-.027l2.535.662a.734.734 0 00.65-.143 6.151 6.151 0 011.74-1.006.733.733 0 00.449-.491l.694-2.526a.057.057 0 01.055-.041h1.954c.026 0 .048.017.055.041l.694 2.526a.732.732 0 00.448.491 6.149 6.149 0 011.742 1.006.733.733 0 00.65.143l2.535-.662a.056.056 0 01.063.027l.977 1.692c.013.022.01.05-.009.068l-1.84 1.865a.732.732 0 00-.202.633c.055.336.083.675.083 1.006 0 .332-.028.67-.083 1.006a.732.732 0 00.202.633l1.84 1.865a.057.057 0 01.009.068l-.977 1.692a.057.057 0 01-.063.027l-2.536-.662a.734.734 0 00-.65.143 6.155 6.155 0 01-1.74 1.006.733.733 0 00-.449.491l-.694 2.526a.057.057 0 01-.055.041h-1.954zm-2.65 5.091A3.63 3.63 0 0125 25.732c2 0 3.626 1.627 3.626 3.627A3.63 3.63 0 0125 32.985a3.63 3.63 0 01-3.627-3.627zm9.306 13.809h2.306v5.368H30.68v-5.368zm7.133-10.602c2 0 3.627 1.627 3.627 3.627 0 2-1.627 3.626-3.627 3.626a3.63 3.63 0 01-3.626-3.626c0-2 1.627-3.627 3.626-3.627zm-29.25 3.627c0-2 1.626-3.627 3.625-3.627 2 0 3.627 1.627 3.627 3.627a3.63 3.63 0 01-3.627 3.626 3.63 3.63 0 01-3.626-3.627zm-4.36 9.07a3.984 3.984 0 013.98-3.98h7.368v7.253H7.972V46.38a.732.732 0 10-1.465 0v2.155H4.202v-3.273zm25.013 3.273h-8.43v-.76a.732.732 0 10-1.465 0v.76h-2.305v-5.368h2.305v1.19a.732.732 0 101.465 0v-4.279a.732.732 0 10-1.465 0v1.624h-2.305v-3.273a3.984 3.984 0 013.98-3.98h8.01a3.985 3.985 0 013.98 3.98v3.273H30.68v-1.623a.732.732 0 10-1.465 0v8.456z" fill="url(#paint1_linear)"/></g><defs><linearGradient id="paint0_linear" x1="22.098" y1="15.431" x2="27.903" y2="15.431" gradientUnits="userSpaceOnUse"><stop stop-color="#E30613"/><stop offset="1" stop-color="#F39200"/></linearGradient><linearGradient id="paint1_linear" x1="2.738" y1="25" x2="47.262" y2="25" gradientUnits="userSpaceOnUse"><stop stop-color="#E30613"/><stop offset="1" stop-color="#F39200"/></linearGradient><clipPath id="clip0"><path fill="#fff" d="M0 0h50v50H0z"/></clipPath></defs></svg>