<svg width="40" height="40" fill="none" xmlns="http://www.w3.org/2000/svg"><path d="M25.96 10.642H14.04a3.455 3.455 0 00-3.452 3.45v11.923a3.455 3.455 0 003.451 3.451h11.922a3.455 3.455 0 003.451-3.451V14.093a3.455 3.455 0 00-3.451-3.451zM20 26.25a6.204 6.204 0 01-6.197-6.197A6.204 6.204 0 0120 13.857a6.204 6.204 0 016.197 6.197A6.205 6.205 0 0120 26.25zm6.396-11.113a1.468 1.468 0 01-1.466-1.466c0-.808.657-1.466 1.466-1.466.809 0 1.466.658 1.466 1.466 0 .808-.657 1.466-1.466 1.466z" fill="url(#paint0_linear)"/><path d="M20 16.476a3.583 3.583 0 00-3.578 3.577A3.583 3.583 0 0020 23.633a3.582 3.582 0 003.578-3.58A3.582 3.582 0 0020 16.476z" fill="url(#paint1_linear)"/><path d="M20 0C8.955 0 0 8.955 0 20s8.955 20 20 20 20-8.955 20-20S31.045 0 20 0zm12.03 26.015a6.076 6.076 0 01-6.07 6.07H14.04a6.076 6.076 0 01-6.07-6.07V14.093a6.077 6.077 0 016.07-6.07h11.92a6.076 6.076 0 016.07 6.07v11.922z" fill="url(#paint2_linear)"/><defs><linearGradient id="paint0_linear" x1="10.588" y1="20.054" x2="29.412" y2="20.054" gradientUnits="userSpaceOnUse"><stop stop-color="#E30613"/><stop offset="1" stop-color="#F39200"/></linearGradient><linearGradient id="paint1_linear" x1="16.422" y1="20.054" x2="23.578" y2="20.054" gradientUnits="userSpaceOnUse"><stop stop-color="#E30613"/><stop offset="1" stop-color="#F39200"/></linearGradient><linearGradient id="paint2_linear" x1="0" y1="20" x2="40" y2="20" gradientUnits="userSpaceOnUse"><stop stop-color="#E30613"/><stop offset="1" stop-color="#F39200"/></linearGradient></defs></svg>