<svg width="30" height="30" fill="none" xmlns="http://www.w3.org/2000/svg"><path d="M15 30c8.284 0 15-6.716 15-15 0-8.284-6.716-15-15-15C6.716 0 0 6.716 0 15c0 8.284 6.716 15 15 15z" fill="#7AA5DA"/><path d="M29.995 14.653l-6.658-6.648-10.846 13.22 7.81 7.81C25.968 26.895 30 21.418 30 15c0-.116-.002-.232-.005-.347z" fill="#7AA5DA"/><path d="M22.483 7.823a.808.808 0 011.085.919L20.886 21.56a.845.845 0 01-1.326.508l-4.048-2.972-2.064 2.107a.686.686 0 01-1.143-.274l-1.49-4.726-3.99-1.179a.573.573 0 01-.047-1.082l15.705-6.12zm-1.968 2.845c.174-.155-.029-.427-.227-.304l-8.614 5.342a.392.392 0 00-.167.45l1.174 5.158c.024.08.137.068.147-.014l.262-3.931a.389.389 0 01.13-.25l7.295-6.451z" fill="#fff"/><path d="M20.289 10.364c.198-.123.4.15.226.304l-7.295 6.45a.39.39 0 00-.13.25l-.262 3.932c-.01.082-.123.093-.146.014l-1.175-5.158a.391.391 0 01.168-.45l8.614-5.342z" fill="#9EC2E5"/><path d="M12.724 21.368a.674.674 0 01-.42-.438l-1.488-4.726-3.991-1.179a.573.573 0 01-.047-1.082l15.706-6.12a.805.805 0 01.847.167l-10.655 8.698v.38l-.058-.042.058 2.398v1.924a.388.388 0 00.048.018v.002z" fill="#fff"/><path d="M23.585 8.526a.879.879 0 01-.017.216L20.887 21.56a.845.845 0 01-1.327.508l-4.048-2.972-2.836-2.028v-.38L23.331 7.99a.84.84 0 01.15.187.543.543 0 01.053.11l.012.036a.808.808 0 01.04.203z" fill="#fff"/><path d="M15.512 19.097l-2.064 2.107a.829.829 0 01-.109.091v.001a.72.72 0 01-.12.064c-.021.008-.041.016-.063.021a.683.683 0 01-.432-.015l-.047-1.942V17.07l2.835 2.028zm-2.117 2.157z" fill="#fff"/><path d="M13.339 21.295v.001h-.001zm-.12.065zm-.329.045zm.071.005zm-.071-.005zm0 0zm-.145-.031l.067.02-.028-.007a.015.015 0 01-.01-.004.156.156 0 01-.029-.01z" fill="#fff"/><path d="M12.784 21.387l.028.006a.134.134 0 01-.028-.006zm-.039-.013l.029.009a.264.264 0 01-.046-.014l.017.005zm0 0l-.017-.005-.004-.001v-.002a.09.09 0 00.021.008zm-.069-1.95l.048 1.942a.398.398 0 01-.048-.018v-1.924zm0-2.355v2.355l-.058-2.398.058.043z" fill="#fff"/><path d="M20.515 10.668l-7.295 6.45a.39.39 0 00-.13.25l-.262 3.933c-.01.081-.123.093-.147.014l-1.174-5.16a.391.391 0 01.167-.449l8.614-5.342c.198-.123.401.15.227.304z" fill="#ADBCC9"/></svg>