<svg width="30" height="30" fill="none" xmlns="http://www.w3.org/2000/svg"><path d="M15 30c8.284 0 15-6.716 15-15 0-8.284-6.716-15-15-15C6.716 0 0 6.716 0 15c0 8.284 6.716 15 15 15z" fill="#6F3FAA"/><path d="M21.508 8.23c-3.652-.883-7.31-1.914-11.053-.604-2.425.91-2.425 3.536-2.324 5.758 0 .606-.707 1.414-.404 2.121.606 2.02 1.111 4.04 3.232 5.05.304.203 0 .607.203.91-.101 0-.304.1-.304.202 0 .484.218 1.224.073 1.702l6.446 6.443c6.627-1.056 11.806-6.45 12.534-13.18L21.507 8.23z" fill="#6F3FAA"/><path d="M22.935 10.542l-.005-.02c-.4-1.62-2.207-3.358-3.867-3.72l-.018-.004a21.49 21.49 0 00-8.09 0l-.018.004c-1.66.362-3.466 2.1-3.868 3.72l-.004.02a15.833 15.833 0 000 6.82l.004.02c.385 1.551 2.057 3.21 3.654 3.666v1.81c0 .654.798.975 1.252.503l1.832-1.905a21.56 21.56 0 005.237-.35l.02-.003c1.659-.362 3.465-2.1 3.866-3.72l.005-.02a15.835 15.835 0 000-6.82zm-1.45 6.493c-.268 1.057-1.64 2.37-2.73 2.614a20.029 20.029 0 01-4.302.347.102.102 0 00-.076.031L13.039 21.4l-1.423 1.461a.167.167 0 01-.287-.115V19.75a.103.103 0 00-.084-.101c-1.09-.243-2.462-1.557-2.73-2.614a14.367 14.367 0 010-6.165c.268-1.057 1.64-2.37 2.73-2.613a20.015 20.015 0 017.51 0c1.091.242 2.462 1.556 2.73 2.614a14.35 14.35 0 010 6.164z" fill="#fff"/><path d="M17.371 18.418c-.167-.051-.327-.085-.475-.147-1.537-.638-2.952-1.46-4.072-2.721-.637-.717-1.136-1.527-1.558-2.384-.2-.406-.368-.828-.54-1.248-.156-.382.074-.777.317-1.066.228-.27.521-.477.839-.63.248-.119.492-.05.673.16.392.454.751.932 1.042 1.458.18.324.13.72-.194.94-.08.054-.151.117-.225.177a.737.737 0 00-.169.178.488.488 0 00-.032.43c.4 1.099 1.074 1.954 2.18 2.414.177.074.355.16.56.136.34-.04.452-.415.69-.61.235-.192.534-.194.786-.035.252.16.496.33.74.504.238.17.475.336.695.53.212.186.284.43.165.683-.218.463-.535.848-.992 1.094-.13.07-.284.092-.43.137-.167-.051.146-.045 0 0zm-2.367-8.725c2.01.056 3.662 1.39 4.016 3.378.06.339.081.685.108 1.029.011.144-.07.281-.227.283-.16.002-.233-.133-.244-.277-.02-.286-.035-.573-.074-.857a3.592 3.592 0 00-2.893-3.003c-.224-.04-.454-.05-.681-.074-.144-.015-.332-.024-.364-.202-.026-.15.1-.269.243-.277.038-.002.077 0 .116 0 2.01.056-.039 0 0 0z" fill="#fff"/><path d="M18.06 13.653c-.004.026-.006.085-.02.14-.054.202-.36.227-.43.024a.609.609 0 01-.024-.195 2.447 2.447 0 00-.308-1.221 2.275 2.275 0 00-.954-.895 2.738 2.738 0 00-.76-.233c-.114-.019-.23-.03-.345-.046-.14-.02-.214-.109-.208-.246a.216.216 0 01.241-.214 3.16 3.16 0 011.317.343c.834.442 1.31 1.14 1.45 2.07.006.043.016.084.02.127l.02.346c-.003.025-.008-.138 0 0z" fill="#fff"/><path d="M16.809 13.605c-.168.003-.258-.09-.276-.245-.012-.107-.021-.216-.047-.32a.904.904 0 00-.333-.524.873.873 0 00-.272-.13c-.123-.037-.252-.027-.374-.057-.134-.033-.208-.14-.187-.266a.242.242 0 01.255-.194c.78.056 1.336.459 1.416 1.376.005.065.012.134-.002.196-.025.105-.104.159-.18.164-.168.003.076-.005 0 0z" fill="#fff"/><path d="M22.935 10.542l-.005-.02c-.224-.908-.891-1.853-1.726-2.572l-1.128 1c.67.534 1.246 1.275 1.41 1.92a14.35 14.35 0 010 6.165c-.268 1.057-1.64 2.37-2.73 2.614a20.029 20.029 0 01-4.303.347.102.102 0 00-.076.031l-1.338 1.374-1.423 1.46a.167.167 0 01-.287-.115V19.75a.103.103 0 00-.084-.101c-.62-.138-1.33-.623-1.877-1.209l-1.115.988c.696.758 1.594 1.37 2.47 1.62v1.81c0 .654.798.975 1.252.503l1.832-1.905a21.385 21.385 0 005.237-.349l.02-.004c1.659-.361 3.465-2.1 3.866-3.72l.005-.02a15.835 15.835 0 000-6.82z" fill="#fff"/><path d="M17.371 18.418c.146-.045-.167-.051 0 0z" fill="#fff"/><path d="M18.628 16.504c-.22-.194-.457-.36-.695-.53a16.283 16.283 0 00-.74-.504.652.652 0 00-.785.034c-.24.196-.35.57-.692.61-.204.024-.381-.061-.558-.135a3.616 3.616 0 01-1.588-1.263l-.83.735.084.099c1.12 1.26 2.535 2.083 4.072 2.72.148.063.308.097.475.148-.167-.051.146-.045 0 0 .146-.045.3-.068.43-.137.457-.246.775-.631.992-1.094.12-.253.047-.497-.165-.683zM15.01 9.693h-.001zm-.006 0h.005a50.82 50.82 0 00-.005 0zm2.884 1.196l-.354.313a3.55 3.55 0 011.049 2.047c.04.284.054.57.075.857.01.144.082.28.244.277.156-.002.238-.139.226-.283-.027-.344-.048-.69-.108-1.03a4.036 4.036 0 00-1.132-2.181zm.131 2.291c-.101-.678-.383-1.232-.85-1.654l-.353.313c.182.162.34.352.462.562.214.37.307.796.308 1.221 0 .065.003.134.024.195.07.203.376.178.43-.024.014-.055.016-.114.02-.14-.004.026-.009-.137 0 0-.009-.137-.014-.242-.022-.347-.003-.042-.013-.084-.02-.126z" fill="#fff"/><path d="M18.06 13.653c-.009-.138-.004.025 0 0zm-1.251-.048l.008-.002a.67.67 0 00-.03 0l.022.002z" fill="#fff"/><path d="M16.809 13.605l-.022-.001a.31.31 0 00.022 0zm.008-.002l-.008.002c.02-.002.018-.002.008-.002zm-.363-1.443l-.36.318c.02.012.04.024.059.038a.903.903 0 01.333.523c.026.105.035.214.047.322.017.147.1.237.255.242h.029a.2.2 0 00.172-.163.636.636 0 00.002-.195c-.045-.513-.239-.865-.537-1.085z" fill="#fff"/></svg>