<svg width="40" height="40" fill="none" xmlns="http://www.w3.org/2000/svg"><path d="M20 40c11.046 0 20-8.954 20-20S31.046 0 20 0 0 8.954 0 20s8.954 20 20 20z" fill="#4D76A1"/><path fill-rule="evenodd" clip-rule="evenodd" d="M19.244 28.772h1.57s.474-.052.716-.313c.223-.24.216-.69.216-.69s-.03-2.106.947-2.416c.964-.306 2.201 2.035 3.513 2.935.992.682 1.745.532 1.745.532l3.508-.048s1.834-.113.964-1.556c-.071-.118-.506-1.067-2.607-3.017-2.2-2.041-1.905-1.711.744-5.242 1.613-2.15 2.258-3.463 2.057-4.025-.192-.535-1.379-.394-1.379-.394l-3.949.025s-.292-.04-.51.09c-.212.127-.348.424-.348.424s-.625 1.664-1.459 3.079c-1.758 2.985-2.461 3.143-2.748 2.958-.669-.433-.502-1.736-.502-2.663 0-2.893.439-4.1-.855-4.412-.429-.104-.745-.172-1.843-.183-1.408-.015-2.601.004-3.276.335-.45.22-.796.71-.585.738.261.035.852.16 1.165.586.405.551.39 1.787.39 1.787s.233 3.407-.542 3.83c-.532.29-1.262-.303-2.83-3.011a25.185 25.185 0 01-1.41-2.922s-.117-.286-.325-.44c-.253-.185-.607-.245-.607-.245l-3.752.025s-.564.016-.77.26c-.184.219-.015.67-.015.67s2.938 6.872 6.264 10.336c3.05 3.175 6.513 2.967 6.513 2.967z" fill="#fff"/></svg>