<svg width="30" height="30" fill="none" xmlns="http://www.w3.org/2000/svg"><path d="M15 30c8.284 0 15-6.716 15-15 0-8.284-6.716-15-15-15C6.716 0 0 6.716 0 15c0 8.284 6.716 15 15 15z" fill="#75B73B"/><path d="M21.108 8.896c-.87-.217-2.149-.969-2.977-1.27-3.232-1.01-7.575-.202-8.788 3.536-.1.1-.303.1-.404.1-2.424 2.829-.808 6.263-1.01 9.395-.069 1.103-.65 2.08-1.396 2.905l6.286 6.28c.712.103 1.44.158 2.18.158 7.41 0 13.563-5.371 14.781-12.431l-8.672-8.673z" fill="#75B73B"/><path d="M14.58 6.354c-4.572.218-8.18 4.026-8.166 8.602a8.542 8.542 0 00.935 3.873l-.912 4.425a.335.335 0 00.405.393l4.335-1.028a8.544 8.544 0 003.69.896c4.672.071 8.569-3.639 8.715-8.31a8.587 8.587 0 00-9.002-8.85zm5.174 13.33A6.679 6.679 0 0115 21.653a6.653 6.653 0 01-2.992-.701l-.604-.301-2.658.63.56-2.717-.298-.582a6.647 6.647 0 01-.73-3.052c0-1.796.699-3.484 1.968-4.754A6.734 6.734 0 0115 8.207c1.796 0 3.484.7 4.754 1.97a6.679 6.679 0 011.969 4.753 6.73 6.73 0 01-1.97 4.754z" fill="#fff"/><path d="M19.167 16.792l-1.663-.478a.62.62 0 00-.614.162l-.406.414a.606.606 0 01-.659.14c-.787-.319-2.442-1.79-2.864-2.526a.606.606 0 01.048-.672l.355-.46a.62.62 0 00.076-.629l-.7-1.582a.62.62 0 00-.968-.222c-.464.393-1.015.989-1.082 1.65-.118 1.165.382 2.634 2.272 4.398 2.183 2.037 3.931 2.306 5.07 2.03.645-.155 1.161-.782 1.486-1.296a.62.62 0 00-.351-.93z" fill="#fff"/><path d="M20.86 8.655l-1.303 1.334c.067.062.133.123.197.187a6.679 6.679 0 011.969 4.754 6.73 6.73 0 01-1.97 4.754A6.68 6.68 0 0115 21.653a6.653 6.653 0 01-2.992-.701l-.604-.301-2.658.63.055-.267-2.354 2.412a.334.334 0 00.394.22l4.336-1.027a8.545 8.545 0 003.69.896c4.672.071 8.569-3.64 8.714-8.31a8.564 8.564 0 00-2.721-6.55z" fill="#fff"/><path d="M19.167 16.792l-1.663-.478a.62.62 0 00-.614.162l-.406.414a.606.606 0 01-.659.14c-.454-.184-1.198-.753-1.827-1.343l-1.156 1.185.12.115c2.183 2.037 3.931 2.306 5.07 2.03.645-.155 1.161-.782 1.486-1.296a.62.62 0 00-.351-.93z" fill="#fff"/></svg>