<svg width="40" height="40" fill="none" xmlns="http://www.w3.org/2000/svg"><path d="M20 40c11.046 0 20-8.954 20-20S31.046 0 20 0 0 8.954 0 20s8.954 20 20 20z" fill="#D22215"/><path d="M30.067 13.307c-.6.183-1.225.34-1.852.497-4.444.942-10.37-1.617-12.929 2.559-2.134 3.32-2.808 7.474-5.236 10.442l12.968 12.967c8.63-1.306 15.45-8.127 16.756-16.758l-9.707-9.707z" fill="#D22215"/><path d="M26.691 11.901H13.31a4.754 4.754 0 00-4.754 4.754v6.69A4.754 4.754 0 0013.31 28.1h13.38a4.754 4.754 0 004.754-4.755v-6.69a4.754 4.754 0 00-4.754-4.754zm-3.215 8.425l-6.26 2.985a.251.251 0 01-.359-.226v-6.158c0-.187.198-.309.365-.224l6.26 3.172a.251.251 0 01-.006.45z" fill="#fff"/><path d="M26.691 11.901h-6.826v6.141l3.617 1.833a.251.251 0 01-.006.45l-3.61 1.723V28.1h6.825a4.754 4.754 0 004.754-4.755v-6.69a4.754 4.754 0 00-4.754-4.754z" fill="#fff"/></svg>